<svg width="525" height="575" viewBox="0 0 525 575" fill="none" xmlns="http://www.w3.org/2000/svg">
<mask id="mask0_0_402" style="mask-type:luminance" maskUnits="userSpaceOnUse" x="0" y="63" width="525" height="512">
<path fill-rule="evenodd" clip-rule="evenodd" d="M0.431641 63.1316H525V574.14H0.431641V63.1316Z" fill="white"/>
</mask>
<g mask="url(#mask0_0_402)">
<path fill-rule="evenodd" clip-rule="evenodd" d="M461.083 551.01C447.509 559.11 431.715 564.96 414.306 568.76C402.751 571.26 390.438 572.91 377.622 573.61C330.492 576.46 276.297 567.71 224.071 550.21C212.364 546.31 200.759 541.96 189.355 537.16C104.43 501.76 30.6067 443.96 9.91799 376.96C-27.8767 254.66 53.2633 166.71 147.22 86.0102C185.318 53.2602 234.971 57.9602 286.339 85.6102C298.349 92.0602 310.409 99.7602 322.469 108.51C367.731 141.46 412.54 189.41 450.385 242.71C524.663 347.36 567.655 487.56 461.083 551.01Z" fill="#FDE6D6"/>
</g>
<path fill-rule="evenodd" clip-rule="evenodd" d="M421.488 156.765C412.723 139.255 409.514 117.095 427.089 109.96C446.718 101.995 477.994 114.875 487.097 144.1C492.915 162.775 490.916 188.845 474.84 198.865C461.084 207.445 432.241 178.24 421.488 156.765Z" fill="#E8E5EA"/>
<path fill-rule="evenodd" clip-rule="evenodd" d="M143.218 67.6727C143.203 67.6727 143.188 67.6727 143.172 67.6727C139.797 67.4427 136.411 67.3177 133.121 67.2977C132.768 67.2977 132.49 67.0177 132.49 66.6727C132.495 66.3277 132.773 66.0477 133.121 66.0477H133.126C136.446 66.0677 139.857 66.1927 143.263 66.4227C143.611 66.4477 143.869 66.7477 143.849 67.0927C143.823 67.4227 143.546 67.6727 143.218 67.6727ZM112.972 68.6327C112.664 68.6327 112.392 68.4077 112.346 68.0977C112.296 67.7577 112.533 67.4377 112.881 67.3877C116.141 66.9177 119.542 66.5677 122.978 66.3427C123.372 66.2777 123.629 66.5827 123.649 66.9277C123.674 67.2677 123.412 67.5677 123.064 67.5877C119.658 67.8127 116.292 68.1627 113.063 68.6227C113.032 68.6277 113.002 68.6327 112.972 68.6327ZM163.271 70.1477C163.23 70.1477 163.195 70.1427 163.16 70.1377C159.844 69.5477 156.494 69.0477 153.199 68.6377C152.851 68.5927 152.603 68.2827 152.649 67.9377C152.694 67.5977 152.982 67.3677 153.355 67.3977C156.675 67.8077 160.046 68.3177 163.382 68.9077C163.72 68.9677 163.952 69.2927 163.891 69.6327C163.836 69.9327 163.568 70.1477 163.271 70.1477ZM93.3025 73.1477C93.0351 73.1477 92.7878 72.9777 92.702 72.7077C92.5961 72.3777 92.7828 72.0277 93.1158 71.9277C96.31 70.9277 99.6 70.0377 102.9 69.2727C103.233 69.1927 103.581 69.4027 103.657 69.7377C103.738 70.0727 103.526 70.4077 103.188 70.4877C99.9179 71.2477 96.6531 72.1327 93.4943 73.1177C93.4287 73.1377 93.3681 73.1477 93.3025 73.1477ZM182.99 74.5277C182.935 74.5277 182.879 74.5227 182.824 74.5077C179.544 73.6277 176.254 72.8227 173.04 72.1077C172.697 72.0327 172.485 71.6977 172.56 71.3577C172.636 71.0227 172.954 70.8077 173.312 70.8877C176.547 71.6077 179.857 72.4177 183.157 73.2977C183.49 73.3927 183.692 73.7327 183.596 74.0677C183.52 74.3427 183.268 74.5277 182.99 74.5277ZM202.302 80.4778C202.231 80.4778 202.16 80.4678 202.09 80.4428C198.931 79.3378 195.706 78.2828 192.517 77.2978C192.184 77.1928 191.998 76.8428 192.104 76.5178C192.204 76.1878 192.563 75.9978 192.891 76.1078C196.095 77.0928 199.334 78.1578 202.508 79.2628C202.836 79.3778 203.013 79.7378 202.897 80.0628C202.806 80.3178 202.564 80.4778 202.302 80.4778ZM74.617 80.6727C74.3899 80.6727 74.1679 80.5477 74.0569 80.3277C73.9005 80.0227 74.0216 79.6477 74.3344 79.4877C77.3065 77.9877 80.4149 76.5827 83.5686 75.3177C83.8815 75.1777 84.2549 75.3427 84.3861 75.6627C84.5173 75.9827 84.3609 76.3477 84.0379 76.4777C80.9195 77.7277 77.8464 79.1177 74.9046 80.6027C74.8138 80.6477 74.7129 80.6727 74.617 80.6727ZM221.154 87.7227C221.073 87.7227 220.992 87.7077 220.906 87.6727C217.818 86.3727 214.674 85.1027 211.556 83.9077C211.233 83.7827 211.072 83.4177 211.198 83.0977C211.329 82.7777 211.692 82.6277 212.015 82.7427C215.144 83.9427 218.303 85.2177 221.401 86.5227C221.724 86.6577 221.87 87.0227 221.739 87.3427C221.633 87.5777 221.401 87.7227 221.154 87.7227ZM57.5615 91.3277C57.3698 91.3277 57.1881 91.2477 57.062 91.0877C56.85 90.8127 56.9005 90.4177 57.178 90.2077C59.8272 88.1877 62.6277 86.2477 65.4989 84.4527C65.7966 84.2727 66.1852 84.3577 66.3719 84.6477C66.5586 84.9427 66.4677 85.3277 66.1751 85.5077C63.3342 87.2877 60.5689 89.2027 57.945 91.2027C57.834 91.2877 57.6978 91.3277 57.5615 91.3277ZM239.531 96.0827C239.44 96.0827 239.344 96.0627 239.254 96.0177C236.216 94.5327 233.153 93.0877 230.141 91.7177C229.828 91.5727 229.686 91.1977 229.833 90.8877C229.979 90.5727 230.352 90.4327 230.67 90.5777C233.688 91.9527 236.766 93.4077 239.814 94.8927C240.127 95.0477 240.253 95.4227 240.101 95.7327C239.99 95.9527 239.763 96.0827 239.531 96.0827ZM42.822 104.963C42.6707 104.963 42.5243 104.913 42.4032 104.803C42.1408 104.578 42.1206 104.183 42.3528 103.923C44.5881 101.428 46.9699 99.0027 49.4374 96.7227C49.6897 96.4827 50.0883 96.4977 50.3255 96.7477C50.5677 97.0027 50.5525 97.3977 50.2952 97.6327C47.863 99.8927 45.5065 102.288 43.2913 104.753C43.1702 104.893 42.9986 104.963 42.822 104.963ZM257.429 105.413C257.323 105.413 257.222 105.388 257.122 105.333C254.19 103.708 251.203 102.103 248.251 100.563C247.943 100.403 247.822 100.023 247.983 99.7177C248.15 99.4127 248.533 99.2927 248.836 99.4527C251.803 101.003 254.795 102.613 257.737 104.243C258.04 104.413 258.151 104.793 257.979 105.093C257.863 105.298 257.651 105.413 257.429 105.413ZM274.838 115.623C274.727 115.623 274.611 115.593 274.505 115.528C271.629 113.748 268.728 112.003 265.882 110.333C265.579 110.158 265.478 109.773 265.66 109.478C265.831 109.173 266.22 109.078 266.522 109.258C269.373 110.928 272.29 112.683 275.176 114.468C275.469 114.653 275.56 115.038 275.373 115.333C275.257 115.518 275.05 115.623 274.838 115.623ZM30.8277 121.043C30.7117 121.043 30.6007 121.013 30.4947 120.948C30.202 120.768 30.1062 120.383 30.2878 120.088C32.064 117.223 33.9764 114.413 35.9595 111.743C36.1715 111.468 36.5651 111.413 36.8426 111.613C37.1252 111.818 37.1807 112.208 36.9738 112.483C35.0109 115.128 33.1237 117.903 31.3626 120.743C31.2466 120.938 31.0397 121.043 30.8277 121.043ZM291.742 126.633C291.616 126.633 291.49 126.593 291.384 126.523C288.589 124.608 285.768 122.728 283.008 120.928C282.715 120.738 282.634 120.353 282.826 120.063C283.018 119.783 283.406 119.698 283.699 119.883C286.469 121.688 289.295 123.573 292.096 125.488C292.388 125.688 292.459 126.078 292.262 126.358C292.136 126.533 291.939 126.633 291.742 126.633ZM308.097 138.358C307.965 138.358 307.834 138.318 307.718 138.233C305.013 136.208 302.289 134.203 299.614 132.283C299.332 132.078 299.271 131.688 299.473 131.413C299.68 131.128 300.073 131.068 300.356 131.273C303.035 133.193 305.77 135.203 308.48 137.238C308.758 137.443 308.808 137.838 308.601 138.113C308.475 138.273 308.288 138.358 308.097 138.358ZM21.639 138.853C21.5582 138.853 21.4775 138.838 21.3968 138.808C21.0738 138.673 20.9224 138.303 21.0587 137.988C22.3807 134.868 23.8188 131.798 25.3276 128.868C25.484 128.558 25.8625 128.433 26.1753 128.593C26.4882 128.748 26.6093 129.128 26.4529 129.433C24.9542 132.343 23.5312 135.383 22.2193 138.473C22.1183 138.713 21.8862 138.853 21.639 138.853ZM323.946 150.818C323.805 150.818 323.664 150.773 323.542 150.678C320.999 148.583 318.36 146.458 315.696 144.363C315.423 144.148 315.378 143.758 315.595 143.488C315.817 143.218 316.211 143.178 316.478 143.383C319.152 145.483 321.802 147.613 324.35 149.713C324.617 149.933 324.658 150.328 324.436 150.593C324.309 150.743 324.128 150.818 323.946 150.818ZM15.0438 157.768C14.9832 157.768 14.9277 157.763 14.8722 157.748C14.5392 157.653 14.3373 157.308 14.4332 156.973C15.3516 153.718 16.3608 150.488 17.4406 147.378C17.5567 147.053 17.92 146.868 18.2429 146.988C18.5709 147.103 18.7475 147.458 18.6365 147.783C17.5617 150.873 16.5576 154.078 15.6493 157.313C15.5736 157.588 15.3162 157.768 15.0438 157.768ZM339.256 163.998C339.099 163.998 338.953 163.943 338.832 163.833C336.344 161.593 333.796 159.348 331.258 157.163C330.995 156.943 330.97 156.543 331.197 156.283C331.424 156.018 331.823 156.003 332.085 156.223C334.633 158.413 337.182 160.663 339.68 162.908C339.937 163.143 339.957 163.538 339.72 163.793C339.594 163.928 339.427 163.998 339.256 163.998ZM10.6942 177.323C10.6588 177.323 10.6235 177.318 10.5882 177.313C10.2451 177.258 10.0129 176.933 10.0735 176.593C10.6336 173.268 11.2795 169.953 11.991 166.733C12.0667 166.398 12.3997 166.188 12.7428 166.253C13.0809 166.328 13.2979 166.663 13.2222 166.998C12.5158 170.198 11.8749 173.498 11.3148 176.798C11.2644 177.103 10.9969 177.323 10.6942 177.323ZM353.904 177.818C353.743 177.818 353.581 177.758 353.46 177.633C351.073 175.278 348.636 172.928 346.224 170.653C345.972 170.413 345.962 170.018 346.204 169.768C346.441 169.523 346.845 169.508 347.092 169.748C349.514 172.033 351.957 174.388 354.348 176.748C354.596 176.993 354.596 177.388 354.348 177.633C354.227 177.758 354.066 177.818 353.904 177.818ZM367.872 192.308C367.7 192.308 367.534 192.238 367.407 192.103C365.142 189.638 362.826 187.173 360.52 184.783C360.282 184.538 360.293 184.138 360.54 183.903C360.797 183.668 361.191 183.668 361.433 183.923C363.749 186.318 366.07 188.788 368.341 191.263C368.578 191.518 368.558 191.913 368.296 192.143C368.179 192.253 368.028 192.308 367.872 192.308ZM8.25637 197.198C8.24123 197.198 8.2261 197.198 8.20591 197.198C7.85774 197.168 7.60039 196.868 7.62562 196.528C7.89306 193.158 8.23114 189.793 8.62978 186.533C8.67015 186.193 8.95272 185.963 9.33117 185.988C9.67935 186.028 9.92156 186.338 9.88119 186.683C9.4876 189.928 9.14952 193.273 8.88208 196.623C8.86189 196.948 8.58436 197.198 8.25637 197.198ZM381.092 207.473C380.911 207.473 380.729 207.393 380.603 207.243C378.504 204.703 376.319 202.128 374.103 199.588C373.876 199.328 373.907 198.933 374.174 198.708C374.437 198.478 374.835 198.513 375.062 198.773C377.282 201.318 379.477 203.903 381.582 206.453C381.804 206.718 381.763 207.113 381.491 207.333C381.375 207.428 381.234 207.473 381.092 207.473ZM7.43947 217.213C7.09129 217.208 6.80872 216.928 6.80872 216.583C6.82385 213.228 6.89954 209.853 7.03074 206.548C7.04588 206.208 7.31332 205.923 7.68672 205.948C8.0349 205.963 8.30738 206.253 8.29225 206.598C8.16105 209.888 8.08536 213.248 8.07022 216.588C8.07022 216.933 7.78764 217.213 7.43947 217.213ZM393.46 223.328C393.263 223.328 393.071 223.243 392.95 223.073C390.967 220.378 388.929 217.683 386.89 215.073C386.678 214.798 386.729 214.408 387.006 214.193C387.279 213.983 387.672 214.028 387.889 214.308C389.938 216.928 391.982 219.633 393.97 222.338C394.172 222.618 394.111 223.008 393.833 223.208C393.717 223.293 393.586 223.328 393.46 223.328ZM8.00955 237.243C7.67652 237.243 7.39898 236.983 7.3788 236.653C7.17696 233.263 7.02558 229.883 6.93475 226.623C6.92466 226.278 7.19714 225.988 7.54532 225.978H7.5655C7.90359 225.978 8.18616 226.248 8.19626 226.588C8.28708 229.838 8.43847 233.198 8.64031 236.578C8.66049 236.923 8.39305 237.218 8.04488 237.243H8.00955ZM404.839 239.888C404.632 239.888 404.425 239.788 404.304 239.598C402.528 236.823 400.661 234.013 398.758 231.248C398.567 230.963 398.637 230.573 398.925 230.378C399.208 230.183 399.606 230.258 399.803 230.543C401.71 233.318 403.587 236.143 405.369 238.928C405.555 239.223 405.47 239.608 405.177 239.793C405.071 239.858 404.955 239.888 404.839 239.888ZM415.052 257.178C414.83 257.178 414.613 257.058 414.497 256.848C412.923 253.948 411.262 251.018 409.557 248.133C409.385 247.838 409.486 247.458 409.784 247.278C410.077 247.098 410.47 247.203 410.647 247.503C412.357 250.398 414.028 253.343 415.607 256.258C415.774 256.558 415.658 256.943 415.35 257.103C415.259 257.153 415.153 257.178 415.052 257.178ZM9.79139 257.203C9.47349 257.203 9.201 256.968 9.16568 256.648C8.76705 253.283 8.42392 249.918 8.13125 246.668C8.10097 246.323 8.35832 246.018 8.70145 245.988C9.11018 245.953 9.35743 246.213 9.38771 246.553C9.67533 249.798 10.0235 253.148 10.4171 256.508C10.4575 256.848 10.2102 257.158 9.86203 257.198C9.8368 257.203 9.81662 257.203 9.79139 257.203ZM423.878 275.193C423.635 275.193 423.403 275.053 423.297 274.818C421.965 271.773 420.547 268.718 419.089 265.743C418.937 265.433 419.069 265.058 419.382 264.908C419.689 264.753 420.068 264.883 420.224 265.193C421.693 268.193 423.116 271.258 424.458 274.318C424.594 274.638 424.448 275.003 424.13 275.143C424.049 275.173 423.963 275.193 423.878 275.193ZM12.6316 277.043C12.3289 277.043 12.0614 276.823 12.011 276.518C11.4408 273.173 10.921 269.838 10.4619 266.603C10.4114 266.263 10.6536 265.943 10.9967 265.898C11.3197 265.843 11.6578 266.083 11.7082 266.428C12.1674 269.653 12.6872 272.978 13.2523 276.313C13.3129 276.653 13.0807 276.973 12.7376 277.033C12.7023 277.038 12.667 277.043 12.6316 277.043ZM431.002 293.923C430.735 293.923 430.488 293.758 430.402 293.493C429.398 290.383 428.283 287.218 427.082 284.073C426.961 283.748 427.122 283.388 427.45 283.268C427.773 283.128 428.136 283.303 428.262 283.628C429.474 286.793 430.594 289.983 431.603 293.108C431.709 293.438 431.527 293.793 431.194 293.898C431.129 293.918 431.063 293.923 431.002 293.923ZM16.4415 296.718C16.1488 296.718 15.8915 296.518 15.8259 296.223C15.1194 292.983 14.4382 289.673 13.8075 286.393C13.7368 286.053 13.9639 285.728 14.307 285.663C14.6401 285.573 14.9782 285.818 15.0438 286.158C15.6745 289.428 16.3507 292.728 17.0571 295.963C17.1328 296.298 16.9158 296.633 16.5727 296.703C16.5323 296.713 16.4869 296.718 16.4415 296.718ZM436.049 313.298C435.756 313.298 435.488 313.088 435.433 312.788C434.807 309.603 434.06 306.333 433.208 303.068C433.122 302.733 433.324 302.393 433.662 302.308C433.99 302.223 434.338 302.423 434.429 302.758C435.287 306.043 436.043 309.338 436.669 312.553C436.735 312.888 436.513 313.218 436.17 313.283C436.129 313.293 436.089 313.298 436.049 313.298ZM21.1393 316.203C20.8568 316.203 20.6045 316.013 20.5288 315.733C19.676 312.503 18.8535 309.258 18.0714 306.008C17.9906 305.668 18.1975 305.333 18.5356 305.253C18.8686 305.173 19.2168 305.378 19.2976 305.713C20.0847 308.958 20.8971 312.193 21.7499 315.418C21.8357 315.753 21.6389 316.093 21.3008 316.183C21.2453 316.193 21.1898 316.203 21.1393 316.203ZM438.546 333.138C438.213 333.138 437.936 332.878 437.916 332.543C437.744 329.278 437.446 325.938 437.022 322.623C436.977 322.283 437.224 321.968 437.567 321.928C437.946 321.898 438.228 322.128 438.274 322.468C438.698 325.813 439.005 329.183 439.177 332.478C439.197 332.823 438.93 333.118 438.582 333.138H438.546ZM26.8162 335.938C26.5487 335.938 26.3015 335.768 26.2157 335.498L26.0643 335.013C25.0803 331.838 24.1115 328.603 23.1982 325.403C23.1023 325.073 23.294 324.728 23.6321 324.633C23.9803 324.543 24.3184 324.733 24.4092 325.063C25.3276 328.253 26.2914 331.483 27.2753 334.653L27.4166 335.128C27.5226 335.458 27.3359 335.803 27.0029 335.908C26.9423 335.928 26.8767 335.938 26.8162 335.938ZM438.218 353.138C438.203 353.138 438.193 353.138 438.178 353.138C437.83 353.113 437.567 352.813 437.593 352.468C437.825 349.198 437.986 345.848 438.062 342.508C438.067 342.163 438.314 341.913 438.708 341.898C439.051 341.903 439.328 342.188 439.323 342.538C439.248 345.898 439.086 349.268 438.849 352.558C438.829 352.888 438.546 353.138 438.218 353.138ZM33.0682 354.978C32.8109 354.978 32.5636 354.818 32.4728 354.558C31.3829 351.403 30.3131 348.233 29.2686 345.053C29.1626 344.728 29.3443 344.373 29.6773 344.268C30.0103 344.163 30.3636 344.343 30.4695 344.668C31.5141 347.838 32.5788 351.003 33.6687 354.153C33.7797 354.478 33.6031 354.833 33.2751 354.948C33.2045 354.968 33.1389 354.978 33.0682 354.978ZM435.741 372.988C435.705 372.988 435.67 372.983 435.63 372.978C435.287 372.913 435.059 372.588 435.12 372.253C435.7 369.033 436.205 365.718 436.624 362.393C436.664 362.048 436.997 361.803 437.325 361.848C437.673 361.893 437.915 362.203 437.875 362.548C437.456 365.898 436.947 369.233 436.361 372.468C436.306 372.773 436.043 372.988 435.741 372.988ZM39.9054 373.798C39.6531 373.798 39.4109 373.643 39.3201 373.393C38.1292 370.278 36.9636 367.148 35.8182 364.008C35.697 363.683 35.8686 363.323 36.1966 363.203C36.5296 363.093 36.8829 363.258 37.004 363.583C38.1444 366.718 39.31 369.843 40.4958 372.948C40.6169 373.273 40.4554 373.633 40.1325 373.753C40.0568 373.783 39.9811 373.798 39.9054 373.798ZM47.3736 392.418C47.1264 392.418 46.8942 392.273 46.7933 392.033C45.4965 388.958 44.2299 385.863 42.9785 382.743C42.8473 382.423 43.0088 382.058 43.3317 381.933C43.6446 381.808 44.018 381.958 44.1492 382.278C45.3956 385.393 46.6672 388.483 47.9539 391.553C48.0901 391.873 47.9388 392.238 47.6158 392.368C47.5351 392.403 47.4543 392.418 47.3736 392.418ZM431.053 392.433C430.997 392.433 430.937 392.428 430.871 392.408C430.538 392.308 430.352 391.958 430.452 391.628C431.411 388.468 432.294 385.228 433.066 382.008C433.152 381.673 433.475 381.468 433.828 381.543C434.166 381.628 434.378 381.963 434.298 382.298C433.515 385.543 432.627 388.803 431.658 391.988C431.578 392.258 431.325 392.433 431.053 392.433ZM55.4675 410.783C55.2303 410.783 55.0032 410.648 54.8973 410.418C53.4995 407.393 52.1169 404.338 50.7595 401.263C50.6233 400.948 50.7696 400.578 51.0875 400.438C51.4054 400.308 51.7788 400.443 51.9201 400.763C53.2724 403.833 54.645 406.878 56.0427 409.898C56.189 410.213 56.0477 410.583 55.7349 410.728C55.6491 410.768 55.5583 410.783 55.4675 410.783ZM424.079 411.198C423.994 411.198 423.908 411.183 423.822 411.143C423.504 411.008 423.363 410.638 423.499 410.323C424.841 407.303 426.103 404.193 427.263 401.078C427.384 400.758 427.743 400.588 428.076 400.708C428.399 400.828 428.565 401.188 428.444 401.513C427.279 404.653 426.002 407.783 424.655 410.823C424.549 411.058 424.322 411.198 424.079 411.198ZM64.2323 428.838C64.0002 428.838 63.7782 428.713 63.6672 428.498C62.1584 425.528 60.6648 422.528 59.1914 419.498C59.04 419.188 59.1712 418.813 59.4891 418.663C59.812 418.518 60.1804 418.643 60.3318 418.953C61.8002 421.973 63.2837 424.968 64.7924 427.933C64.9489 428.243 64.8278 428.618 64.5149 428.773C64.4241 428.818 64.3282 428.838 64.2323 428.838ZM414.855 428.998C414.744 428.998 414.633 428.973 414.532 428.913C414.23 428.733 414.134 428.353 414.31 428.058C416.021 425.193 417.661 422.253 419.18 419.313C419.341 419.003 419.715 418.883 420.027 419.043C420.34 419.203 420.461 419.578 420.305 419.883C418.771 422.843 417.121 425.808 415.395 428.693C415.279 428.888 415.067 428.998 414.855 428.998ZM403.593 445.598C403.461 445.598 403.325 445.558 403.209 445.473C402.937 445.268 402.881 444.873 403.088 444.598C405.111 441.948 407.079 439.223 408.936 436.488C409.133 436.203 409.522 436.123 409.814 436.318C410.102 436.513 410.178 436.903 409.981 437.188C408.114 439.943 406.136 442.688 404.097 445.353C403.971 445.513 403.784 445.598 403.593 445.598ZM73.7037 446.543C73.4817 446.543 73.2698 446.428 73.1537 446.223C71.544 443.363 69.9192 440.398 68.3196 437.408C68.1581 437.103 68.2692 436.723 68.577 436.563C68.8898 436.413 69.2683 436.518 69.4297 436.823C71.0293 439.803 72.6491 442.763 74.2537 445.613C74.4253 445.913 74.3143 446.298 74.0115 446.463C73.9157 446.518 73.8097 446.543 73.7037 446.543ZM390.584 460.888C390.432 460.888 390.276 460.833 390.155 460.718C389.903 460.488 389.888 460.088 390.125 459.838C392.426 457.393 394.676 454.878 396.811 452.373C397.038 452.118 397.436 452.078 397.699 452.298C397.966 452.523 398.001 452.918 397.774 453.183C395.625 455.703 393.364 458.228 391.048 460.693C390.922 460.823 390.755 460.888 390.584 460.888ZM83.9472 463.818C83.7403 463.818 83.5334 463.713 83.4123 463.523C81.6614 460.718 79.9003 457.828 78.1796 454.933C78.008 454.633 78.1039 454.248 78.4067 454.073C78.7044 453.898 79.0929 454.003 79.2695 454.298C80.9852 457.188 82.7362 460.068 84.4871 462.863C84.6688 463.158 84.578 463.543 84.2802 463.723C84.1793 463.788 84.0633 463.818 83.9472 463.818ZM376.147 474.883C375.971 474.883 375.799 474.813 375.673 474.673C375.441 474.418 375.466 474.023 375.723 473.793C378.256 471.543 380.729 469.253 383.085 466.973C383.333 466.733 383.736 466.743 383.974 466.983C384.221 467.233 384.216 467.628 383.964 467.868C381.597 470.158 379.109 472.463 376.566 474.723C376.445 474.828 376.294 474.883 376.147 474.883ZM95.0484 480.568C94.8465 480.568 94.6497 480.473 94.5286 480.298C92.6212 477.583 90.7138 474.783 88.8619 471.978C88.6652 471.693 88.7509 471.303 89.0436 471.113C89.3312 470.928 89.7198 471.008 89.9166 471.298C91.7634 474.093 93.6658 476.878 95.5631 479.583C95.7649 479.868 95.6943 480.258 95.4066 480.453C95.2956 480.528 95.1745 480.568 95.0484 480.568ZM360.575 487.648C360.383 487.648 360.197 487.563 360.076 487.403C359.864 487.128 359.914 486.738 360.192 486.528C362.871 484.488 365.53 482.398 368.084 480.308C368.351 480.083 368.745 480.123 368.967 480.388C369.189 480.658 369.153 481.048 368.886 481.268C366.318 483.373 363.653 485.473 360.959 487.518C360.843 487.608 360.706 487.648 360.575 487.648ZM107.093 496.653C106.912 496.653 106.725 496.573 106.599 496.418C104.56 493.863 102.486 491.183 100.433 488.448C100.226 488.173 100.286 487.778 100.564 487.573C100.846 487.373 101.24 487.428 101.452 487.703C103.49 490.428 105.554 493.098 107.588 495.638C107.805 495.908 107.759 496.303 107.487 496.518C107.371 496.608 107.235 496.653 107.093 496.653ZM344.14 499.303C343.938 499.303 343.742 499.203 343.615 499.023C343.424 498.738 343.499 498.348 343.792 498.158C346.598 496.293 349.388 494.378 352.088 492.468C352.365 492.263 352.764 492.333 352.966 492.613C353.168 492.893 353.107 493.288 352.824 493.488C350.115 495.403 347.314 497.323 344.493 499.198C344.387 499.268 344.261 499.303 344.14 499.303ZM327.049 509.993C326.832 509.993 326.625 509.883 326.504 509.688C326.328 509.393 326.424 509.008 326.726 508.828C329.663 507.093 332.56 505.338 335.33 503.603C335.628 503.428 336.016 503.508 336.203 503.798C336.384 504.093 336.299 504.478 336.006 504.663C333.221 506.398 330.319 508.163 327.372 509.903C327.271 509.963 327.16 509.993 327.049 509.993ZM120.223 511.883C120.056 511.883 119.885 511.813 119.764 511.683C117.518 509.278 115.253 506.748 113.032 504.173C112.81 503.913 112.836 503.513 113.103 503.293C113.371 503.073 113.769 503.098 113.991 503.363C116.201 505.928 118.457 508.438 120.687 510.833C120.924 511.088 120.909 511.483 120.652 511.718C120.531 511.828 120.379 511.883 120.223 511.883ZM309.454 519.863C309.227 519.863 309.01 519.743 308.899 519.538C308.732 519.233 308.848 518.853 309.151 518.688C312.128 517.098 315.075 515.488 317.992 513.853C318.294 513.683 318.678 513.788 318.855 514.088C319.021 514.388 318.915 514.768 318.612 514.943C315.691 516.578 312.734 518.193 309.752 519.788C309.656 519.838 309.555 519.863 309.454 519.863ZM134.594 525.963C134.443 525.963 134.291 525.908 134.175 525.803C131.698 523.603 129.215 521.283 126.803 518.908C126.551 518.663 126.551 518.268 126.798 518.023C127.04 517.778 127.439 517.778 127.686 518.018C130.088 520.383 132.556 522.683 135.018 524.873C135.275 525.103 135.296 525.498 135.063 525.758C134.937 525.893 134.766 525.963 134.594 525.963ZM291.49 529.048C291.258 529.048 291.031 528.923 290.925 528.703C290.768 528.393 290.9 528.013 291.207 527.863C294.235 526.373 297.242 524.873 300.225 523.348C300.527 523.193 300.906 523.313 301.072 523.618C301.229 523.923 301.113 524.303 300.8 524.463C297.813 525.988 294.805 527.493 291.768 528.983C291.677 529.028 291.581 529.048 291.49 529.048ZM273.239 537.683C273.001 537.683 272.774 537.548 272.668 537.318C272.522 537.008 272.658 536.633 272.976 536.493C276.039 535.088 279.092 533.668 282.12 532.238C282.427 532.098 282.816 532.223 282.962 532.533C283.114 532.843 282.977 533.218 282.665 533.368C279.627 534.803 276.574 536.218 273.501 537.623C273.42 537.663 273.329 537.683 273.239 537.683ZM150.373 538.458C150.252 538.458 150.126 538.418 150.015 538.343C147.315 536.463 144.585 534.433 141.906 532.303C141.633 532.088 141.588 531.693 141.805 531.423C142.032 531.158 142.425 531.113 142.693 531.328C145.352 533.438 148.057 535.458 150.736 537.318C151.024 537.518 151.094 537.908 150.893 538.193C150.772 538.363 150.575 538.458 150.373 538.458ZM254.831 545.858C254.588 545.858 254.356 545.718 254.25 545.483C254.114 545.168 254.26 544.798 254.578 544.658C257.667 543.323 260.745 541.978 263.803 540.618C264.12 540.478 264.494 540.618 264.635 540.933C264.776 541.248 264.635 541.618 264.322 541.758C261.254 543.118 258.176 544.468 255.083 545.803C255.002 545.838 254.916 545.858 254.831 545.858ZM167.711 548.703C167.615 548.703 167.519 548.683 167.429 548.638C164.466 547.193 161.469 545.578 158.517 543.823C158.22 543.648 158.124 543.263 158.3 542.968C158.477 542.673 158.865 542.573 159.168 542.753C162.09 544.483 165.057 546.088 167.989 547.518C168.301 547.673 168.428 548.043 168.276 548.353C168.165 548.578 167.938 548.703 167.711 548.703ZM236.196 553.613C235.938 553.613 235.696 553.453 235.605 553.198C235.484 552.873 235.656 552.513 235.984 552.398C237.447 551.873 238.946 551.293 240.439 550.668C242.059 549.988 243.684 549.308 245.304 548.623C245.622 548.493 245.995 548.633 246.131 548.948C246.268 549.268 246.121 549.638 245.803 549.768C244.179 550.458 242.554 551.143 240.929 551.823C239.415 552.453 237.896 553.043 236.413 553.573C236.342 553.598 236.266 553.613 236.196 553.613ZM186.558 555.768C186.507 555.768 186.452 555.758 186.402 555.748C183.197 554.908 179.948 553.868 176.738 552.658C176.41 552.538 176.244 552.173 176.37 551.853C176.496 551.528 176.859 551.368 177.182 551.493C180.356 552.683 183.566 553.713 186.719 554.538C187.058 554.628 187.259 554.968 187.169 555.298C187.093 555.583 186.841 555.768 186.558 555.768ZM216.562 558.148C216.239 558.148 215.966 557.908 215.931 557.588C215.896 557.243 216.148 556.938 216.491 556.898C219.786 556.553 223.111 555.993 226.371 555.233C226.724 555.148 227.052 555.368 227.128 555.698C227.214 556.033 227.002 556.373 226.664 556.448C223.349 557.223 219.973 557.788 216.627 558.143C216.602 558.148 216.582 558.148 216.562 558.148ZM206.47 558.578H206.46C203.114 558.513 199.713 558.233 196.342 557.753C195.999 557.703 195.762 557.388 195.812 557.048C195.858 556.703 196.146 556.458 196.524 556.518C199.839 556.993 203.19 557.263 206.485 557.328C206.828 557.338 207.111 557.623 207.1 557.968C207.095 558.308 206.813 558.578 206.47 558.578Z" fill="#D8D5DB"/>
<mask id="mask1_0_402" style="mask-type:luminance" maskUnits="userSpaceOnUse" x="47" y="82" width="368" height="493">
<path fill-rule="evenodd" clip-rule="evenodd" d="M47.6108 82.9597H414.647V574.14H47.6108V82.9597Z" fill="white"/>
</mask>
<g mask="url(#mask1_0_402)">
<path fill-rule="evenodd" clip-rule="evenodd" d="M389.529 495.51C386.703 496.26 383.878 497.71 381.607 500.26C380.295 501.76 378.579 504.56 377.066 507.51C376.712 497.41 376.359 488.81 376.006 483.51C376.965 483.41 377.52 483.41 377.52 483.41C377.52 482.21 377.52 481.01 377.469 479.71C377.217 455.36 374.543 413.01 371.01 370.81C372.272 373.41 373.483 375.81 374.643 377.96C374.694 378.71 374.694 379.46 374.845 380.26C376.712 390.36 386.047 446.26 388.772 479.96C389.277 486.01 389.529 491.31 389.529 495.51ZM411.984 372.31V372.21C409.057 362.76 399.218 334.61 388.015 306.66L400.429 302.46C400.429 302.46 364.097 238.41 342.854 224.31C342.803 224.26 342.753 224.26 342.702 224.21C335.234 217.31 324.335 212.81 308.036 210.96C307.935 197.61 308.944 175.11 310.105 157.86C318.481 155.96 322.518 146.21 323.073 144.06C324.234 139.66 323.174 136.01 321.004 133.66C321.66 128.21 322.77 117.61 322.468 108.51C322.215 100.16 320.853 93.1097 316.917 92.2597C316.967 92.1097 317.068 92.0097 317.119 91.9097C318.431 87.7597 315.958 83.1597 315.857 82.9597L313.637 84.1597C314.243 85.2097 315.504 88.5097 314.697 91.1097C310.963 87.0097 299.357 85.3597 286.338 85.6097C268.122 85.9097 247.231 90.0597 241.58 96.5597C237.644 101.06 238.805 103.51 242.892 104.61C242.286 108.81 242.034 112.46 241.933 115.81C241.328 117.36 240.773 118.96 240.217 120.66C238.754 121.66 237.341 123.11 236.282 125.36L238.603 126.41C238.653 126.31 238.704 126.26 238.754 126.16C238.149 128.71 237.594 131.31 237.19 134.16C232.648 165.16 225.231 196.01 256.264 196.36C256.213 199.86 256.012 203.26 255.658 206.46C255.406 209.01 255.053 211.41 254.599 213.56C242.791 216.41 233.557 220.91 227.148 226.96C204.34 245.61 175.527 305.51 175.527 305.51L185.216 310.26C178.05 324.06 170.986 338.16 165.688 349.61C141.164 332.81 98.0711 301.66 85.3551 288.01C85.3551 287.96 85.3046 287.96 85.2542 287.91C85.7588 282.66 84.8 274.16 83.3871 269.36C83.3871 269.26 83.3871 269.16 83.3367 269.01C83.2358 268.76 83.1348 268.61 83.0844 268.41C82.9835 268.11 82.8825 267.76 82.7816 267.51C82.5293 266.86 82.3275 266.41 82.1256 266.01C78.7448 258.61 73.396 255.71 70.217 245.86C68.5518 240.61 64.4646 242.76 62.9003 246.26L50.8908 219.66L47.6108 221.11L63.0517 255.46C59.4185 253.86 56.2395 252.91 54.0697 253.66C51.0926 254.66 47.8127 269.51 49.2256 274.81C50.6385 280.06 65.1205 296.96 70.5198 299.86C70.9235 300.06 71.3776 300.21 71.7813 300.26C80.5109 312.36 138.389 380.46 161.651 392.26C176.083 399.51 186.931 393.26 190.514 383.96C195.157 376.56 203.684 362.11 212.969 345.41C209.941 391.91 204.138 444.31 193.189 481.06C194.198 481.21 195.257 481.36 196.317 481.51C193.239 496.76 190.968 516.81 189.354 537.16C200.758 541.96 212.363 546.31 224.07 550.21C276.297 567.71 330.491 576.46 377.621 573.61C378.378 571.31 378.731 568.91 378.68 566.36C378.428 556.36 378.125 544.11 377.822 532.01C380.345 538.51 383.625 543.86 386.249 545.21C389.025 546.61 402.144 538.66 405.021 533.91C407.846 529.31 410.016 507.21 408.351 501.31C408.25 500.91 407.947 500.61 407.745 500.26C408.351 496.96 409.259 489.76 410.268 480.36C413.498 448.66 417.333 391.71 411.984 372.31Z" fill="#D1CDD3"/>
</g>
<path fill-rule="evenodd" clip-rule="evenodd" d="M283.115 276.401L250.22 255.131C250.22 255.131 217.527 314.746 201.405 349.626C176.896 332.811 133.803 301.676 121.082 287.996C121.047 287.961 121.011 287.941 120.976 287.906C121.476 282.646 120.517 274.171 119.119 269.366C119.089 269.241 119.084 269.141 119.038 269.006C118.968 268.781 118.872 268.601 118.796 268.386C118.695 268.106 118.604 267.751 118.503 267.511C118.236 266.866 118.029 266.396 117.842 265.991C114.462 258.636 109.103 255.696 105.944 245.876C103.744 239.021 97.401 244.771 98.0267 249.716C98.0267 249.716 98.9703 252.926 100.035 256.016C95.8418 254.036 92.2187 252.836 89.7765 253.651C86.8195 254.636 83.5144 269.506 84.9323 274.821C86.325 280.051 100.827 296.961 106.257 299.871C106.65 300.081 107.064 300.196 107.488 300.261C116.243 312.376 174.121 380.481 197.388 392.241C211.799 399.526 222.623 393.251 226.241 383.971C237.241 366.276 270.53 308.686 283.115 276.401Z" fill="#FFAD69"/>
<path fill-rule="evenodd" clip-rule="evenodd" d="M287.591 239.775C292.577 264.625 272.534 335.34 272.534 335.34L211.225 305.525C211.225 305.525 274.442 174.22 287.591 239.775Z" fill="#EA3939"/>
<path fill-rule="evenodd" clip-rule="evenodd" d="M414.407 566.359C414.407 567.159 414.407 567.959 414.306 568.759C402.751 571.259 390.439 572.909 377.622 573.609C330.492 576.459 276.297 567.709 224.071 550.209C225.888 523.509 228.714 495.659 233.053 476.859L377.47 479.709L388.773 479.959L410.269 480.359L411.531 480.409C412.54 491.809 413.751 537.959 414.407 566.359Z" fill="#232323"/>
<path fill-rule="evenodd" clip-rule="evenodd" d="M331.921 210.127C371.553 211.422 384.95 224.677 391.782 247.602C399.538 273.632 413.203 430.852 413.203 483.387C413.203 483.387 294.601 491.712 228.897 481.042C249.495 412.092 251.725 288.107 252.139 251.172C252.447 223.457 281.678 208.482 331.921 210.127Z" fill="#FF4E4A"/>
<path fill-rule="evenodd" clip-rule="evenodd" d="M297.008 145.837C293.103 142.927 272.737 145.567 278.606 104.482C280.74 89.4922 294.95 99.4972 305.006 101.497C315.063 103.497 308.67 146.577 308.67 146.577L297.008 145.837Z" fill="#232323"/>
<path fill-rule="evenodd" clip-rule="evenodd" d="M347.715 135.996C346.024 146.886 342.644 205.806 344.051 219.486C345.459 233.171 278.67 237.081 287.405 222.001C296.145 206.921 289.943 156.936 289.943 156.936L347.715 135.996Z" fill="#FFAD69"/>
<path fill-rule="evenodd" clip-rule="evenodd" d="M343.09 137.661L289.951 156.941C289.951 156.941 293.538 186.056 291.374 206.551C331.893 203.446 342.293 152.736 342.979 142.971C343.09 141.131 343.146 139.356 343.09 137.661Z" fill="#D88344"/>
<path fill-rule="evenodd" clip-rule="evenodd" d="M272.89 134.143C267.965 167.778 259.603 201.313 300.749 195.793C341.899 190.273 348.292 137.998 348.171 128.138C347.53 75.5227 282.573 68.0027 272.89 134.143Z" fill="#FFAD69"/>
<path fill-rule="evenodd" clip-rule="evenodd" d="M352.608 92.2407C352.658 92.1107 352.77 92.0207 352.815 91.8907C354.152 87.7657 351.69 83.1707 351.584 82.9757L349.363 84.1607C349.384 84.2007 351.402 88.0057 350.413 91.1007C341.401 81.2357 286.959 85.4407 277.276 96.5857C264.974 110.746 302.809 104.361 324.128 100.786C327.116 113.156 340.649 133.641 344.55 136.551L356.211 137.296C356.211 137.296 362.574 94.4107 352.608 92.2407Z" fill="#232323"/>
<path fill-rule="evenodd" clip-rule="evenodd" d="M443.459 500.244C446.073 485.854 454.681 397.459 447.713 372.329C447.702 372.289 447.708 372.249 447.697 372.204C442.833 356.474 418.678 288.669 401.188 256.564L363.5 267.524C363.5 267.524 395.042 349.094 410.337 377.944C410.382 378.719 410.382 379.479 410.533 380.279C412.784 392.179 425.359 467.684 425.217 495.494C422.432 496.264 419.596 497.714 417.341 500.264C414.469 503.514 409.464 512.849 409.817 516.989C410.821 528.804 417.447 542.879 421.983 545.204C424.758 546.624 437.838 538.639 440.709 533.934C443.534 529.304 445.714 507.219 444.049 501.329C443.938 500.924 443.666 500.599 443.459 500.244Z" fill="#FFAD69"/>
<path fill-rule="evenodd" clip-rule="evenodd" d="M378.568 224.316C399.827 238.396 436.118 302.441 436.118 302.441L371.493 324.316C371.493 324.316 322.486 187.176 378.568 224.316Z" fill="#FF4E4A"/>
<path fill-rule="evenodd" clip-rule="evenodd" d="M307.539 132.478C307.67 134.118 306.777 135.523 305.536 135.623C304.294 135.718 303.184 134.473 303.053 132.833C302.917 131.198 303.815 129.788 305.056 129.693C306.293 129.593 307.403 130.838 307.539 132.478Z" fill="#232323"/>
<path fill-rule="evenodd" clip-rule="evenodd" d="M281.328 133.166C281.46 134.806 280.566 136.211 279.325 136.311C278.089 136.406 276.974 135.161 276.843 133.526C276.706 131.886 277.604 130.476 278.846 130.381C280.082 130.281 281.197 131.526 281.328 133.166Z" fill="#232323"/>
<path fill-rule="evenodd" clip-rule="evenodd" d="M313.984 123.276C310.477 117.941 304.442 119.211 304.382 119.221L303.827 116.781C304.145 116.716 311.643 115.141 316.099 121.911L313.984 123.276Z" fill="#232323"/>
<path fill-rule="evenodd" clip-rule="evenodd" d="M274.308 126.391L272.018 125.351C275.419 117.996 283.063 118.471 283.386 118.486L283.21 120.981C282.972 120.966 276.973 120.651 274.308 126.391Z" fill="#232323"/>
<path fill-rule="evenodd" clip-rule="evenodd" d="M299.115 163.447C297.44 163.447 296.38 163.262 296.34 163.252L296.799 160.797C297.263 160.882 308.339 162.742 314.511 152.567L316.67 153.857C311.579 162.247 303.379 163.447 299.115 163.447Z" fill="#232323"/>
<path fill-rule="evenodd" clip-rule="evenodd" d="M279.717 152.053L286.135 130.373L288.552 131.073L283.098 149.508L291.933 149.393L291.969 151.893L279.717 152.053Z" fill="#D88344"/>
<path fill-rule="evenodd" clip-rule="evenodd" d="M116.248 285.512L112.948 286.972L83.3281 221.117L86.6232 219.657L116.248 285.512Z" fill="#232323"/>
<path fill-rule="evenodd" clip-rule="evenodd" d="M337.736 140.276C334.018 148.576 329.365 156.606 341.037 158.096C352.708 159.591 358.137 146.606 358.799 144.061C362.326 130.491 345.043 123.956 337.736 140.276Z" fill="#FFAD69"/>
<path fill-rule="evenodd" clip-rule="evenodd" d="M163.141 0.832214H44.4031C40.2654 0.832214 36.9098 4.15221 36.9098 8.25221V50.1472C36.9098 54.2472 40.2654 57.5722 44.4031 57.5722H51.6341L59.7885 68.3672C61.6 70.7672 65.3996 70.0522 66.2019 67.1622L68.8461 57.5722H163.141C167.279 57.5722 170.629 54.2472 170.629 50.1472V8.25221C170.629 4.15221 167.279 0.832214 163.141 0.832214Z" fill="#4D8DFF"/>
<mask id="mask2_0_402" style="mask-type:luminance" maskUnits="userSpaceOnUse" x="0" y="0" width="525" height="575">
<path fill-rule="evenodd" clip-rule="evenodd" d="M0.43042 574.14H525V0.8302H0.43042V574.14Z" fill="white"/>
</mask>
<g mask="url(#mask2_0_402)">
<path fill-rule="evenodd" clip-rule="evenodd" d="M48.5747 14.3252H153.557V11.8252H48.5747V14.3252Z" fill="white"/>
<path fill-rule="evenodd" clip-rule="evenodd" d="M48.5747 26.1552H117.897V23.6552H48.5747V26.1552Z" fill="white"/>
<path fill-rule="evenodd" clip-rule="evenodd" d="M48.5747 37.9852H135.225V35.4852H48.5747V37.9852Z" fill="white"/>
<path fill-rule="evenodd" clip-rule="evenodd" d="M135.226 141.023H44.4022C40.2645 141.023 36.9139 144.348 36.9139 148.443V190.338C36.9139 194.438 40.2645 197.763 44.4022 197.763H51.6332L59.7876 208.558C61.5991 210.958 65.4038 210.243 66.201 207.353L68.8452 197.763H135.226C139.363 197.763 142.714 194.438 142.714 190.338V148.443C142.714 144.348 139.363 141.023 135.226 141.023Z" fill="#FF4E4A"/>
<path fill-rule="evenodd" clip-rule="evenodd" d="M48.5747 154.515H96.9005V152.015H48.5747V154.515Z" fill="white"/>
<path fill-rule="evenodd" clip-rule="evenodd" d="M106.902 154.515H123.564V152.015H106.902V154.515Z" fill="white"/>
<path fill-rule="evenodd" clip-rule="evenodd" d="M48.5747 166.345H82.9028V163.845H48.5747V166.345Z" fill="white"/>
<path fill-rule="evenodd" clip-rule="evenodd" d="M48.5747 178.175H114.895V175.675H48.5747V178.175Z" fill="white"/>
<path fill-rule="evenodd" clip-rule="evenodd" d="M104.811 70.8882H215.39C219.522 70.8882 222.873 74.2132 222.873 78.3082V120.208C222.873 124.303 219.522 127.628 215.39 127.628H208.154L199.999 138.428C198.188 140.823 194.383 140.108 193.591 137.218L190.942 127.628H104.811C100.673 127.628 97.3229 124.303 97.3229 120.208V78.3082C97.3229 74.2132 100.673 70.8882 104.811 70.8882Z" fill="#FFC84D"/>
<path fill-rule="evenodd" clip-rule="evenodd" d="M166.889 84.3802H211.213V81.8802H166.889V84.3802Z" fill="white"/>
<path fill-rule="evenodd" clip-rule="evenodd" d="M114.9 96.2152H211.213V93.7152H114.9V96.2152Z" fill="white"/>
<path fill-rule="evenodd" clip-rule="evenodd" d="M163.891 108.045H211.213V105.545H163.891V108.045Z" fill="white"/>
<path fill-rule="evenodd" clip-rule="evenodd" d="M134.226 108.045H155.888V105.545H134.226V108.045Z" fill="white"/>
<path fill-rule="evenodd" clip-rule="evenodd" d="M296.57 277.651C277.279 277.651 261.581 293.206 261.581 312.321C261.581 331.441 277.279 346.996 296.57 346.996C315.866 346.996 331.564 331.441 331.564 312.321C331.564 293.206 315.866 277.651 296.57 277.651ZM296.57 349.496C275.886 349.496 259.058 332.821 259.058 312.321C259.058 291.826 275.886 275.151 296.57 275.151C317.259 275.151 334.087 291.826 334.087 312.321C334.087 332.821 317.259 349.496 296.57 349.496Z" fill="white"/>
</g>
</svg>
