<svg width="601" height="495" viewBox="0 0 601 495" fill="none" xmlns="http://www.w3.org/2000/svg">
<ellipse rx="232.802" ry="219" transform="matrix(-1 0 0 1 286.088 247.999)" fill="#FFE5D2"/>
<path fill-rule="evenodd" clip-rule="evenodd" d="M479.416 343.693C479.516 343.634 480.141 344.464 481.064 346.098C481.991 347.726 483.145 350.2 484.218 353.391C486.415 359.752 487.795 369.142 486.977 379.382C486.166 389.621 483.814 398.609 482 405.006C480.143 411.407 478.777 415.292 478.541 415.226C478.281 415.154 479.203 411.134 480.727 404.671C482.211 398.209 484.329 389.269 485.122 379.24C485.92 369.214 484.785 360.088 482.961 353.779C481.19 347.439 479.124 343.846 479.416 343.693Z" fill="white"/>
<path fill-rule="evenodd" clip-rule="evenodd" d="M485.685 292.449C485.802 292.397 486.557 293.789 487.818 296.354C489.077 298.92 490.847 302.659 492.94 307.325C497.093 316.656 502.683 329.719 506.737 344.883C508.73 352.469 510.088 359.844 510.776 366.616C511.469 373.387 511.539 379.539 511.193 384.674C510.857 389.811 510.212 393.933 509.592 396.736C508.979 399.544 508.493 401.057 508.383 401.032C508.039 400.965 509.557 394.783 509.879 384.612C510.28 374.462 508.956 360.36 504.938 345.366C500.93 330.366 495.57 317.297 491.732 307.85C489.8 303.123 488.238 299.296 487.156 296.652C486.1 293.996 485.567 292.502 485.685 292.449Z" fill="white"/>
<path fill-rule="evenodd" clip-rule="evenodd" d="M253.676 352.594C253.891 352.827 251.781 354.852 249.043 358.612C248.364 359.556 247.626 360.589 246.935 361.769C246.18 362.905 245.523 364.209 244.792 365.556C243.432 368.3 242.142 371.419 241.147 374.815C240.195 378.223 239.64 381.554 239.34 384.607C239.25 386.137 239.117 387.594 239.155 388.959C239.117 390.328 239.195 391.6 239.271 392.763C239.603 397.411 240.321 400.255 240.015 400.338C239.829 400.402 238.648 397.655 237.963 392.898C237.799 391.71 237.642 390.405 237.613 388.992C237.507 387.58 237.583 386.07 237.63 384.48C237.844 381.31 238.369 377.834 239.359 374.297C240.391 370.77 241.782 367.546 243.278 364.748C244.077 363.374 244.809 362.055 245.646 360.917C246.417 359.736 247.241 358.714 248.008 357.795C251.102 354.134 253.554 352.442 253.676 352.594Z" fill="white"/>
<path fill-rule="evenodd" clip-rule="evenodd" d="M258.627 369C258.783 369.251 257.608 370.156 256.072 371.886C255.295 372.741 254.476 373.849 253.67 375.132C252.898 376.438 252.159 377.935 251.578 379.587C251.023 381.246 250.688 382.884 250.497 384.393C250.344 385.903 250.311 387.282 250.4 388.438C250.549 390.752 250.921 392.195 250.644 392.296C250.445 392.381 249.608 391.06 249.096 388.614C248.829 387.395 248.72 385.901 248.789 384.247C248.897 382.598 249.211 380.79 249.819 378.976C250.451 377.171 251.313 375.553 252.237 374.187C253.195 372.84 254.197 371.734 255.153 370.939C257.054 369.329 258.522 368.808 258.627 369Z" fill="white"/>
<path fill-rule="evenodd" clip-rule="evenodd" d="M189.89 216.107C189.987 216.022 190.819 216.847 192.248 218.419C192.974 219.197 193.831 220.177 194.738 221.386C195.655 222.583 196.757 223.913 197.791 225.512C198.325 226.301 198.885 227.127 199.468 227.988C200.044 228.854 200.567 229.803 201.149 230.761C202.341 232.663 203.409 234.81 204.571 237.051C206.765 241.595 208.862 246.753 210.533 252.343C212.15 257.951 213.176 263.429 213.789 268.442C214.024 270.958 214.286 273.346 214.313 275.593C214.342 276.716 214.415 277.798 214.399 278.841C214.376 279.882 214.351 280.881 214.33 281.835C214.324 283.745 214.117 285.462 213.995 286.971C213.885 288.481 213.696 289.771 213.506 290.82C213.157 292.923 212.904 294.07 212.777 294.052C212.449 294.009 213.066 289.35 213.015 281.821C212.997 280.88 212.981 279.896 212.963 278.869C212.942 277.843 212.833 276.777 212.772 275.675C212.68 273.466 212.364 271.123 212.089 268.656C211.391 263.741 210.335 258.379 208.748 252.875C207.107 247.388 205.099 242.308 203.029 237.8C201.928 235.579 200.927 233.44 199.813 231.535C199.267 230.575 198.782 229.623 198.248 228.749C197.707 227.879 197.19 227.042 196.696 226.244C192.673 219.895 189.637 216.324 189.89 216.107Z" fill="white"/>
<path fill-rule="evenodd" clip-rule="evenodd" d="M210.957 224.878C211.115 224.737 213.252 226.748 215.97 230.624C217.337 232.554 218.778 234.986 220.181 237.791C221.543 240.614 222.843 243.82 223.88 247.295C224.886 250.779 225.525 254.183 225.907 257.298C226.243 260.42 226.347 263.249 226.24 265.617C226.052 270.356 225.344 273.214 225.135 273.181C224.836 273.144 225.076 270.251 224.924 265.616C224.863 263.299 224.626 260.548 224.208 257.523C223.743 254.503 223.072 251.211 222.097 247.826C221.088 244.451 219.873 241.32 218.633 238.532C217.351 235.762 216.064 233.324 214.865 231.344C212.488 227.37 210.727 225.073 210.957 224.878Z" fill="white"/>
<path fill-rule="evenodd" clip-rule="evenodd" d="M137.19 378.076L135.57 374.748L90.4857 409.414L110.155 441.479L155.033 403.4L137.19 378.076Z" fill="#35B74B"/>
<path fill-rule="evenodd" clip-rule="evenodd" d="M92.375 410.155L109.654 440.226L110.759 439.73L95.3715 411.613L92.375 410.155Z" fill="#D7D4D4"/>
<path fill-rule="evenodd" clip-rule="evenodd" d="M136.299 377.417L92.375 410.154C92.375 410.154 92.5592 410.857 93.6492 411.291C94.7405 411.724 95.3715 411.614 95.3715 411.614L141.55 379.808C141.55 379.808 138.888 379.186 137.923 378.461C136.956 377.733 136.299 377.417 136.299 377.417Z" fill="#F5F3F3"/>
<path fill-rule="evenodd" clip-rule="evenodd" d="M142.679 378.526L94.5469 410.879L110.179 440.693L112.698 444.822L160.832 408.972C160.832 408.972 155.762 401.358 152.718 396.76C149.674 392.163 143.699 381.32 143.374 380.625C143.048 379.93 142.679 378.526 142.679 378.526Z" fill="#35B74B"/>
<path fill-rule="evenodd" clip-rule="evenodd" d="M539.614 155.165L540.973 152.371L578.833 181.481L562.316 208.408L524.63 176.431L539.614 155.165Z" fill="#157FFB"/>
<path fill-rule="evenodd" clip-rule="evenodd" d="M577.246 182.103L562.737 207.354L561.809 206.938L574.73 183.328L577.246 182.103Z" fill="#D7D4D4"/>
<path fill-rule="evenodd" clip-rule="evenodd" d="M540.362 154.611L577.247 182.102C577.247 182.102 577.091 182.692 576.177 183.056C575.26 183.42 574.729 183.327 574.729 183.327L535.952 156.62C535.952 156.62 538.188 156.098 538.999 155.487C539.81 154.877 540.362 154.611 540.362 154.611Z" fill="#F5F3F3"/>
<path fill-rule="evenodd" clip-rule="evenodd" d="M535.004 155.543L575.423 182.71L562.296 207.747L560.181 211.214L519.76 181.109C519.76 181.109 524.019 174.714 526.574 170.854C529.132 166.994 534.148 157.888 534.421 157.305C534.694 156.723 535.004 155.543 535.004 155.543Z" fill="#157FFB"/>
<path fill-rule="evenodd" clip-rule="evenodd" d="M83.3643 102.772C83.3643 102.772 80.5059 104.763 81.9344 108.082C83.3643 111.401 89.6308 121.248 98.0963 120.915C98.443 120.903 87.4318 102.772 87.4318 102.772H83.3643Z" fill="#FF7B5B"/>
<path fill-rule="evenodd" clip-rule="evenodd" d="M70.4142 284.293C70.4142 284.293 59.8282 274.777 56.439 276.481C52.2983 278.565 28.5984 301.933 29.5245 312.941C29.905 317.45 35.1208 313.587 44.415 303.885C53.7119 294.185 65.4177 298.342 65.4177 298.342L70.4142 284.293Z" fill="#35B74B"/>
<path fill-rule="evenodd" clip-rule="evenodd" d="M96.1338 300.343L83.3542 292.628C83.3542 292.628 50.2287 323.88 55.4039 328.047C59.3293 331.207 61.6366 328.372 70.9322 318.67C80.2264 308.971 92.0025 314.548 92.0025 314.548L96.1338 300.343Z" fill="#35B74B"/>
<path fill-rule="evenodd" clip-rule="evenodd" d="M174.198 197.525L176.595 231.771L123.397 217.824L174.198 197.525Z" fill="#F3A683"/>
<path fill-rule="evenodd" clip-rule="evenodd" d="M123.397 219.002C123.397 219.002 169.931 221.954 176.127 219.873C176.127 219.873 185.221 309.776 169.04 319.475C152.857 329.177 116.544 314.972 116.544 314.972L126.349 295.57L147.489 294.185V259.54L145.972 259.886L123.397 219.002Z" fill="#112129"/>
<path fill-rule="evenodd" clip-rule="evenodd" d="M65.0667 280.326C65.0667 280.326 53.3623 285.177 57.1495 296.957C57.1495 296.957 97.1035 328.485 116.545 321.208C127.437 317.133 139.137 286.035 147.323 259.466L176.127 219.873C176.127 219.873 162.542 220.557 158.01 220.539C149.348 220.507 123.398 219.002 123.398 219.002C123.398 219.002 109.842 290.375 105.013 292.106C100.183 293.837 65.0667 280.326 65.0667 280.326Z" fill="#22343D"/>
<path fill-rule="evenodd" clip-rule="evenodd" d="M134.241 129.486C134.241 129.486 162.129 103.155 166.948 96.2242C171.767 89.2952 182.099 66.0827 194.833 56.382L188.637 43.2162C188.637 43.2162 192.426 41.1382 194.833 46.6801C194.833 46.6801 203.784 28.666 205.85 29.0107C207.918 29.3569 201.72 42.8701 201.72 42.8701C201.72 42.8701 210.329 30.3965 212.738 30.744C215.145 31.0901 206.54 44.7656 206.54 44.7656C206.54 44.7656 216.179 33.5156 217.557 34.9014C218.934 36.2872 209.982 44.7656 209.982 44.7656C209.982 44.7656 219.622 39.1965 220.655 41.0319C221.688 42.8701 211.016 47.7198 211.016 47.7198C211.016 47.7198 209.982 55.6885 203.442 59.1523C203.442 59.1523 190.491 94.3656 178.785 105.798L141.182 145.127L134.241 129.486Z" fill="#FFC6B2"/>
<path fill-rule="evenodd" clip-rule="evenodd" d="M100.951 143.133C100.951 143.133 74.5266 170.95 67.5966 175.734C60.6652 180.517 37.5042 190.697 27.7469 203.424L14.7223 197.065C14.7223 197.065 12.6221 200.856 18.1074 203.332C18.1074 203.332 0.121543 212.171 0.447869 214.255C0.771487 216.337 14.2565 210.227 14.2565 210.227C14.2565 210.227 1.78161 218.773 2.10387 221.2C2.42614 223.627 16.0939 215.094 16.0939 215.094C16.0939 215.094 4.82551 224.688 6.1904 226.086C7.55257 227.486 16.0628 218.559 16.0628 218.559C16.0628 218.559 10.4381 228.207 12.2552 229.263C14.0696 230.319 18.9889 219.625 18.9889 219.625C18.9889 219.625 26.9155 218.663 30.4211 212.111C30.4211 212.111 63.5642 198.841 75.0358 187.168L116.28 157.758L100.951 143.133Z" fill="#FFC6B2"/>
<path fill-rule="evenodd" clip-rule="evenodd" d="M110.857 132.046L97.4927 145.212L100.882 160.054C100.882 160.054 114.049 191.865 116.039 199.625C119.133 211.693 114.129 230.092 114.129 230.092C114.129 230.092 136.45 228.227 156.761 227.535C177.07 226.841 183.715 220.257 183.715 220.257C183.715 220.257 166.105 161.235 153.947 144.737C141.788 128.241 137.365 123.076 137.365 123.076L119.464 127.014L110.857 132.046Z" fill="white"/>
<path fill-rule="evenodd" clip-rule="evenodd" d="M150.08 142.791L164.005 133.837C164.005 133.837 166.132 124.244 149.339 112.929L129.647 125.347L150.08 142.791Z" fill="white"/>
<path fill-rule="evenodd" clip-rule="evenodd" d="M100.309 144.171C92.6748 145.249 78.724 164.72 77.1682 164.683C77.1682 164.683 86.9864 180.807 94.7641 181.33C94.7641 181.33 128.99 140.123 100.309 144.171Z" fill="white"/>
<path fill-rule="evenodd" clip-rule="evenodd" d="M127.257 131.502C127.257 131.502 116.161 123.159 116.545 119.833C116.643 118.995 118.181 117.635 118.58 116.427C120.732 109.932 110.359 93.1944 103.985 89.6665C98.9711 86.8922 101.169 86.6469 90.6166 92.9573C80.0645 99.2676 86.0765 110.18 90.7886 115.824C95.2434 121.158 100.345 123.444 104.936 123.829L111.462 138.418L127.257 131.502Z" fill="#FFC6B2"/>
<path fill-rule="evenodd" clip-rule="evenodd" d="M107.235 143.084C105.136 137.903 109.11 131.378 116.112 128.504C123.116 125.629 130.492 127.498 132.595 132.676C134.692 137.856 127.646 145.642 123.712 147.256C119.779 148.871 109.332 148.262 107.235 143.084Z" fill="#FFC6B2"/>
<path fill-rule="evenodd" clip-rule="evenodd" d="M90.789 115.824C90.789 115.824 87.1899 115.624 86.7905 118.037C86.3897 120.451 93.3874 120.451 95.9872 118.64L90.789 115.824Z" fill="#FFC6B2"/>
<path fill-rule="evenodd" clip-rule="evenodd" d="M92.5887 118.037C91.9049 113.675 87.2862 110.432 87.5164 106.182C89.7303 106.2 91.152 103.44 90.1446 101.082C89.7479 100.155 89.0763 99.3619 88.647 98.4476C88.2192 97.5346 88.1054 96.3382 88.7621 95.8218C89.0736 95.5779 89.4947 95.5356 89.8982 95.4948C93.1804 95.1555 98.8038 96.1461 101.825 95.0192C104.701 93.9468 107.782 91.8606 107.483 88.315C107.222 85.2273 104.512 82.7241 102.024 80.8328C100.598 79.7481 96.5236 76.9125 94.9867 77.17C92.6401 77.5625 92.0714 80.7129 91.9022 83.3496C90.2611 81.7771 87.84 82.0292 86.4129 83.3087C84.9857 84.5882 84.31 86.6213 83.6885 88.5835C83.0656 90.547 82.4062 92.5855 80.998 93.8896C79.6859 95.105 77.6102 96.0248 77.8823 98.0919C78.206 100.556 81.4042 101.432 82.8828 103.533C82.5186 103.018 82.2099 106.307 82.4198 106.865C83.0507 108.545 84.6255 109.657 85.7643 110.942C88.1894 113.681 89.3755 116.438 92.5887 118.037Z" fill="#FF7B5B"/>
<path fill-rule="evenodd" clip-rule="evenodd" d="M112.694 108.063L104.494 112.331C104.494 112.331 114.344 119.526 112.694 108.063Z" fill="white"/>
<path fill-rule="evenodd" clip-rule="evenodd" d="M101.413 109.755C101.861 110.611 101.198 111.848 99.9318 112.519C98.6658 113.189 97.2765 113.039 96.8283 112.183C96.3815 111.328 97.0436 110.092 98.3097 109.42C99.577 108.75 100.965 108.899 101.413 109.755Z" fill="#FFB2A0"/>
<path fill-rule="evenodd" clip-rule="evenodd" d="M113.387 101.524C113.835 102.38 113.171 103.617 111.905 104.288C110.639 104.958 109.25 104.808 108.802 103.952C108.355 103.097 109.017 101.859 110.283 101.189C111.551 100.519 112.939 100.668 113.387 101.524Z" fill="#FFB2A0"/>
<path fill-rule="evenodd" clip-rule="evenodd" d="M106.97 107.761C106.932 107.713 107.085 107.51 107.44 107.252C107.779 106.989 108.368 106.706 108.805 106.232C109.238 105.772 109.394 104.815 108.73 104.68C108.041 104.444 107.259 105.24 106.361 105.996C106.139 106.181 105.919 106.365 105.701 106.546C105.498 106.734 105.07 107.01 104.626 106.954C103.78 106.816 103.42 106.248 103.095 105.868C102.445 105.028 102.044 104.15 101.822 103.389C101.382 101.852 101.58 100.86 101.685 100.868C101.833 100.862 101.882 101.815 102.441 103.167C102.723 103.839 103.144 104.602 103.757 105.323C104.056 105.688 104.433 106.029 104.701 106.04C104.813 106.045 104.901 106.007 105.112 105.828C105.328 105.647 105.544 105.463 105.764 105.278C106.216 104.91 106.607 104.538 107.125 104.192C107.627 103.851 108.343 103.636 108.985 103.855C109.67 104.036 110.072 104.84 109.953 105.399C109.876 105.969 109.594 106.388 109.275 106.695C108.599 107.263 107.995 107.401 107.615 107.573C107.225 107.721 107.011 107.814 106.97 107.761Z" fill="#FF7B5B"/>
<path fill-rule="evenodd" clip-rule="evenodd" d="M104.936 123.829C104.936 123.829 110.166 123.859 113.005 122.1C113.005 122.1 110.604 125.068 105.8 125.836L104.936 123.829Z" fill="#FFA192"/>
<path fill-rule="evenodd" clip-rule="evenodd" d="M107.204 100.223C107.157 100.484 106.426 100.564 105.652 100.907C104.868 101.226 104.302 101.699 104.084 101.552C103.861 101.433 104.231 100.493 105.29 100.045C106.347 99.5938 107.273 99.9781 107.204 100.223Z" fill="#22343D"/>
<path fill-rule="evenodd" clip-rule="evenodd" d="M96.9536 106.99C96.7559 106.843 97.066 105.995 97.8188 105.146C98.5812 104.28 99.5547 103.991 99.6576 104.233C99.766 104.469 99.1729 105.018 98.5053 105.78C97.827 106.539 97.1675 107.151 96.9536 106.99Z" fill="#22343D"/>
<path fill-rule="evenodd" clip-rule="evenodd" d="M92.9799 105.682C92.5561 105.366 92.2257 104.013 93.8478 102.19C95.4849 100.325 97.3142 100.654 97.5336 101.172C97.7692 101.68 97.1599 102.403 95.7232 104.043C94.2649 105.677 93.4389 106.028 92.9799 105.682Z" fill="#FF7B5B"/>
<path fill-rule="evenodd" clip-rule="evenodd" d="M101.591 98.5002C101.357 98.0587 101.615 96.7737 103.725 95.8784C105.864 94.9532 107.29 95.9738 107.27 96.5039C107.266 97.0312 106.46 97.4005 104.581 98.2154C102.688 99.0152 101.844 98.9812 101.591 98.5002Z" fill="#FF7B5B"/>
<path fill-rule="evenodd" clip-rule="evenodd" d="M551.558 111.282C551.696 111.42 549.424 113.992 544.709 116.794C540.053 119.593 532.726 122.367 524.298 122.43C515.871 122.493 508.503 119.827 503.806 117.098C499.052 114.367 496.742 111.827 496.878 111.687C497.074 111.437 499.657 113.58 504.418 115.925C509.133 118.279 516.239 120.616 524.284 120.558C532.331 120.496 539.4 118.054 544.081 115.63C548.805 113.214 551.359 111.034 551.558 111.282Z" fill="#FF7B5B"/>
<path fill-rule="evenodd" clip-rule="evenodd" d="M500.144 107.396C500.015 107.681 497.5 106.63 493.261 105.679C491.149 105.178 488.586 104.791 485.731 104.434C482.866 104.115 479.699 103.861 476.355 103.621C473.009 103.386 469.806 103.115 466.898 102.752C463.989 102.364 461.376 101.902 459.223 101.316C454.901 100.181 452.453 98.8373 452.538 98.6478C452.651 98.3617 455.225 99.246 459.505 100.021C461.64 100.432 464.217 100.749 467.086 101.037C469.962 101.301 473.139 101.518 476.489 101.755C479.841 101.994 483.049 102.304 485.955 102.723C488.859 103.183 491.465 103.717 493.596 104.398C497.876 105.713 500.24 107.217 500.144 107.396Z" fill="#E96F52"/>
<mask id="mask0_0_574" style="mask-type:luminance" maskUnits="userSpaceOnUse" x="432" y="35" width="169" height="84">
<path fill-rule="evenodd" clip-rule="evenodd" d="M432.181 35.2054H601V118.441H432.181V35.2054Z" fill="white"/>
</mask>
<g mask="url(#mask0_0_574)">
<path fill-rule="evenodd" clip-rule="evenodd" d="M449.162 52.0647C457.197 50.3491 465.522 51.8262 473.623 53.1848C481.726 54.5433 490.137 55.7683 498.058 53.58C512.36 49.6297 523.216 35.089 538.047 35.2061C544.154 35.2538 549.91 37.8783 555.86 39.2668C563.248 40.9919 570.944 40.8066 578.428 42.037C585.913 43.2675 593.645 46.2967 597.875 52.6316C602.893 60.1492 601.517 70.7533 596.251 78.0979C590.985 85.4439 582.552 89.916 573.912 92.4505C567.885 94.2179 561.464 95.2399 556.249 98.7568C550.973 102.315 547.528 108.04 542.613 112.086C530.279 122.236 511.084 119.327 498.344 109.699C495.143 107.28 492.176 104.473 488.58 102.703C473.952 95.4974 452.914 105.036 440.316 91.9259C427.523 78.6116 429.346 56.2943 449.162 52.0647Z" fill="#FF7B5B"/>
</g>
<path fill-rule="evenodd" clip-rule="evenodd" d="M445.147 309.916C445.147 309.916 458.55 338.824 460.118 333.472C461.682 328.117 461.165 315.26 460.325 313.425C459.481 311.589 454.003 303.48 454.003 303.48L445.147 309.916Z" fill="#FFB2A0"/>
<path fill-rule="evenodd" clip-rule="evenodd" d="M542.059 76.1511C543.299 77.7495 542.47 76.0325 543.875 78.3381C549.711 78.1337 553.628 73.1642 553.628 73.1642C553.628 73.1642 562.891 73.4108 562.784 71.7457C562.678 70.0778 553.904 70.7005 553.904 70.7005C553.904 70.7005 563.186 67.7668 562.677 66.3019C562.171 64.8385 551.455 69.5069 551.455 69.5069C551.455 69.5069 562.268 62.7523 560.67 61.669C559.074 60.5884 548.669 66.4845 548.669 66.4845C548.669 66.4845 557.712 59.0105 556.356 58.0471C555.004 57.0837 542.461 66.8116 542.461 66.8116C542.644 62.026 539.233 62.1936 539.233 62.1936L539.374 73.8782C539.374 73.8782 541.487 75.4153 542.059 76.1511Z" fill="#FFC6B2"/>
<path fill-rule="evenodd" clip-rule="evenodd" d="M404.753 23.2669C402.771 23.6349 404.308 22.9413 401.735 23.7316C397.509 19.6764 398.07 13.3033 398.07 13.3033C398.07 13.3033 390.983 7.29956 392.158 6.12633C393.34 4.95037 399.489 11.2785 399.489 11.2785C399.489 11.2785 394.486 2.88189 395.832 2.12699C397.176 1.37208 402.112 12.0225 402.112 12.0225C402.112 12.0225 398.48 -0.253542 400.389 0.00399624C402.296 0.261535 406.187 11.6205 406.187 11.6205C406.187 11.6205 404.357 -0.00826749 406.002 0.175689C407.65 0.358282 410.614 16.0136 410.614 16.0136C413.633 12.3127 416.072 14.7178 416.072 14.7178L408.417 23.1893C408.417 23.1893 405.665 23.0993 404.753 23.2669Z" fill="#FFC6B2"/>
<path fill-rule="evenodd" clip-rule="evenodd" d="M452.832 72.0751C450.269 71.6513 444.071 75.7965 440.971 82.5524C439.235 86.3337 438.041 90.175 440.032 96.3246C440.971 99.2175 442.934 99.5799 443.373 100.876C443.927 102.516 442.092 107.688 442.092 107.688L449.408 110.661C449.883 107.108 450.422 103.534 454.02 101.992C455.366 101.414 456.806 101.049 458.076 100.316C461.503 98.3386 463.334 94.0135 464.742 90.4721C465.793 87.8272 459.258 73.1352 452.832 72.0751Z" fill="#FFC6B2"/>
<path fill-rule="evenodd" clip-rule="evenodd" d="M444.123 172.479L431.866 167.529C431.866 167.529 395.491 235.412 395.643 254.246C395.793 273.079 445.602 310.788 445.602 310.788L454.003 303.481C454.003 303.481 438.625 276.497 430.404 266.983C422.182 257.466 444.123 172.479 444.123 172.479Z" fill="#FFC0A9"/>
<path fill-rule="evenodd" clip-rule="evenodd" d="M504.98 249.807C504.98 249.807 531.995 236.908 526.567 235.769C521.138 234.635 508.443 236.198 506.695 237.19C504.944 238.184 497.358 244.336 497.358 244.336L504.98 249.807Z" fill="#FFC6B2"/>
<path fill-rule="evenodd" clip-rule="evenodd" d="M456.163 171.89L437.569 178.697C437.569 178.697 418.97 261.022 426.071 273.947C433.169 286.877 453.11 278.321 481.509 262.723L505.297 249.655L497.357 244.337C497.357 244.337 469.676 249.796 461.903 255.238C461.903 255.238 465.96 243.671 471.369 227.342C476.777 211.012 480.507 194.343 456.163 171.89Z" fill="#FFC6B2"/>
<path fill-rule="evenodd" clip-rule="evenodd" d="M433.276 115.804C433.276 110.334 435.026 106.379 440.461 106.379C445.896 106.379 453.41 108.296 453.41 113.767C453.41 119.239 449.127 128.122 443.689 128.122C438.254 128.122 433.276 121.276 433.276 115.804Z" fill="#FFC6B2"/>
<path fill-rule="evenodd" clip-rule="evenodd" d="M437.569 105.595C437.569 105.595 420.667 87.1883 417.286 69.1565C413.904 51.1274 408.16 21.8702 408.16 21.8702L401.737 23.7316C401.737 23.7316 398.693 63.7155 401.737 69.8378C404.778 75.9615 419.644 116.729 424.17 127.435L437.569 105.595Z" fill="#FFC6B2"/>
<path fill-rule="evenodd" clip-rule="evenodd" d="M455.727 119.94C455.727 119.94 457.027 114.215 478.399 106.432C499.771 98.6518 540.092 73.4308 540.092 73.4308L544.115 78.0624C544.115 78.0624 522.207 103.529 509.461 107.995C496.715 112.464 469.644 130.076 466.858 131.485C462.646 133.617 462.697 136.3 455.727 119.94Z" fill="#FFC6B2"/>
<path fill-rule="evenodd" clip-rule="evenodd" d="M437.569 105.595C437.569 105.595 420.396 111.195 420.396 137.49C420.396 137.49 420.407 173.503 424.455 180.055C424.455 180.055 431.034 181.751 439.237 180.055C447.838 178.275 456.162 171.89 456.162 171.89L469.67 131.08L468.055 111.96L449.689 108.391C449.689 108.391 454.957 133.168 435.895 122.516C432.19 120.446 441.345 106.389 441.345 106.389L437.569 105.595Z" fill="#22343D"/>
<path fill-rule="evenodd" clip-rule="evenodd" d="M423.039 126.98L414.578 109.24C414.578 109.24 415.791 98.4781 431.325 94.6218C431.325 94.6218 432.895 100.046 434.618 102.119C436.339 104.19 441.351 106.395 441.351 106.395L423.039 126.98Z" fill="#22343D"/>
<path fill-rule="evenodd" clip-rule="evenodd" d="M455.028 134.111L481.935 128.561C481.935 128.561 486.613 118.807 475.521 107.204C475.521 107.204 454.533 108.48 451.817 108.707C449.142 108.931 450.978 111.004 450.978 111.004L455.028 134.111Z" fill="#22343D"/>
<path fill-rule="evenodd" clip-rule="evenodd" d="M424.412 171.283C424.412 171.283 398.962 218.633 394.758 227.094C394.758 227.094 469.839 261.801 500.317 220.024C500.317 220.024 482.98 183.097 456.178 169.039L444.615 165.554L424.864 171.055" fill="#22343D"/>
<path fill-rule="evenodd" clip-rule="evenodd" d="M463.757 90.0244C463.757 90.0244 466.656 87.107 468.439 89.1264C470.223 91.1458 461.974 94.0632 461.974 94.0632L463.757 90.0244Z" fill="#FFC6B2"/>
<path fill-rule="evenodd" clip-rule="evenodd" d="M516.784 50.2356C516.812 50.3365 515.693 50.8243 513.555 51.3353C511.422 51.8517 508.258 52.3205 504.327 52.4009C500.399 52.4799 495.727 52.1283 490.614 51.4307C485.497 50.748 479.939 49.7451 474.091 49.1033C468.252 48.4751 462.638 48.3607 457.666 49.1687C452.693 49.9631 448.388 51.6024 445.098 53.5169C441.808 55.4464 439.518 57.5871 438.112 59.2072C436.699 60.8288 436.062 61.8644 435.919 61.7772C435.84 61.7363 436.265 60.5699 437.546 58.7521C438.819 56.9398 441.066 54.5484 444.415 52.3859C447.763 50.237 452.212 48.3906 457.382 47.4668C462.558 46.5293 468.348 46.6015 474.289 47.2419C480.234 47.8946 485.799 48.9548 490.857 49.7233C495.913 50.5068 500.483 50.9865 504.331 51.0764C512.045 51.293 516.714 49.9154 516.784 50.2356Z" fill="#FF7B5B"/>
<path fill-rule="evenodd" clip-rule="evenodd" d="M448.994 88.3682C448.986 88.4827 448.16 88.5631 446.899 88.142C446.588 88.0317 446.22 87.8872 445.877 87.5711C445.708 87.413 445.551 87.2032 445.455 86.9511C445.317 86.5982 445.327 86.1976 445.464 85.8923C445.505 85.831 445.502 85.6852 445.582 85.6825L445.827 85.6743C445.984 85.6525 446.17 85.7043 446.351 85.7383C446.684 85.8024 446.791 85.7929 447.028 85.8092C447.444 85.8187 447.874 85.7751 448.305 85.6798C450.065 85.3064 451.243 84.0173 451.771 82.9572C452.325 81.8903 452.374 81.0877 452.521 81.0972C452.626 81.0836 452.832 81.9366 452.374 83.2243C452.141 83.8552 451.736 84.5787 451.082 85.2137C450.432 85.8474 449.532 86.3679 448.509 86.5927C447.999 86.7072 447.486 86.7508 446.992 86.7249C446.776 86.714 446.438 86.6704 446.339 86.6486C446.248 86.6336 446.259 86.6132 446.241 86.6241C446.231 86.635 446.225 86.6527 446.226 86.6786C446.263 86.8012 446.329 86.9184 446.423 87.0233C446.611 87.2373 446.885 87.3967 447.151 87.5302C448.241 88.0685 449.014 88.2279 448.994 88.3682Z" fill="#FF7B5B"/>
<path fill-rule="evenodd" clip-rule="evenodd" d="M442.958 88.6836L452.87 92.6134C452.87 92.6134 444.16 98.6581 442.958 88.6836Z" fill="white"/>
<path fill-rule="evenodd" clip-rule="evenodd" d="M457.103 90.5746C456.751 91.2477 455.659 91.3649 454.664 90.8376C453.669 90.3116 453.147 89.3387 453.498 88.6669C453.85 87.9937 454.943 87.8752 455.938 88.4025C456.933 88.9299 457.455 89.9014 457.103 90.5746Z" fill="#FFB2A0"/>
<path fill-rule="evenodd" clip-rule="evenodd" d="M446.041 84.6721C445.74 85.3698 444.661 85.5715 443.629 85.1218C442.597 84.6721 442.003 83.7428 442.304 83.0452C442.603 82.3475 443.683 82.1458 444.715 82.5955C445.747 83.0452 446.341 83.9745 446.041 84.6721Z" fill="#FFB2A0"/>
<path fill-rule="evenodd" clip-rule="evenodd" d="M442.369 99.6227C442.369 99.6227 445.844 102.551 449.469 101.608C449.469 101.608 448.219 103.494 443.408 102.802C443.408 102.802 443.807 100.724 442.369 99.6227Z" fill="#FFA192"/>
<path fill-rule="evenodd" clip-rule="evenodd" d="M456.152 84.3102C456.152 84.7463 455.8 85.1006 455.366 85.1006C454.933 85.1006 454.581 84.7463 454.581 84.3102C454.581 83.8742 454.933 83.5199 455.366 83.5199C455.8 83.5199 456.152 83.8742 456.152 84.3102Z" fill="#22343D"/>
<path fill-rule="evenodd" clip-rule="evenodd" d="M449.725 81.9809C449.725 82.4169 449.373 82.7712 448.94 82.7712C448.507 82.7712 448.156 82.4169 448.156 81.9809C448.156 81.5448 448.507 81.1906 448.94 81.1906C449.373 81.1906 449.725 81.5448 449.725 81.9809Z" fill="#22343D"/>
<path fill-rule="evenodd" clip-rule="evenodd" d="M458.675 82.2051C458.432 82.3086 457.964 81.7377 457.254 81.2757C456.56 80.7934 455.856 80.5767 455.857 80.3124C455.834 80.0589 456.817 79.8532 457.772 80.4977C458.728 81.1381 458.917 82.1288 458.675 82.2051Z" fill="#775298"/>
<path fill-rule="evenodd" clip-rule="evenodd" d="M447.349 78.3707C447.333 78.124 448.177 77.8134 449.306 77.8433C450.456 77.8679 451.305 78.4293 451.187 78.6636C451.078 78.9007 450.278 78.7986 449.269 78.7795C448.255 78.7495 447.366 78.6391 447.349 78.3707Z" fill="#775298"/>
<path fill-rule="evenodd" clip-rule="evenodd" d="M450.888 321.662C450.888 321.662 455.011 336.389 459.269 335.183C463.526 333.979 460.325 313.425 460.325 313.425L456.077 306.669C456.077 306.669 460.067 341.074 450.888 321.662Z" fill="#22343D"/>
<path fill-rule="evenodd" clip-rule="evenodd" d="M502.879 240.014C502.879 240.014 505.877 236.722 509.511 236.174C513.147 235.625 526.139 234.07 528.047 235.808C529.956 237.545 517.516 243.37 517.516 243.37C517.516 243.37 521.851 240.591 520.051 239.558C516.871 237.728 502.879 240.014 502.879 240.014Z" fill="#22343D"/>
<path fill-rule="evenodd" clip-rule="evenodd" d="M497.724 243.957L501.792 252.268L504.011 251.028L498.587 242.841L497.724 243.957Z" fill="#22343D"/>
<path fill-rule="evenodd" clip-rule="evenodd" d="M452.24 300.149L442.255 309.205L445.214 311.686L453.595 302.506L452.24 300.149Z" fill="#22343D"/>
<path fill-rule="evenodd" clip-rule="evenodd" d="M243.493 209.993C240.654 202.902 239.563 195.007 235.326 188.661C229.228 179.53 217.517 174.999 212.57 165.188C210.468 161.021 209.809 156.255 209.787 151.582C209.746 142.338 212.496 132.511 219.592 126.636C227.744 119.886 239.977 119.98 249.526 124.515C259.072 129.05 266.366 137.281 272.567 145.88C278.77 154.476 284.2 163.703 291.423 171.451C296.778 177.196 303.13 182.15 307.163 188.899C318.222 207.403 306.844 230.814 287.321 237.492C270.167 243.359 249.428 224.819 243.493 209.993Z" fill="#22343D"/>
<path fill-rule="evenodd" clip-rule="evenodd" d="M219.055 340.493C220.753 341.898 218.9 340.925 221.37 342.544C220.819 348.753 215.112 352.665 215.112 352.665C215.112 352.665 214.871 362.551 213.037 362.348C211.2 362.148 212.377 352.829 212.377 352.829C212.377 352.829 208.619 362.566 207.029 361.946C205.441 361.329 211.193 350.155 211.193 350.155C211.193 350.155 203.131 361.322 202.024 359.562C200.917 357.802 208.011 347.027 208.011 347.027C208.011 347.027 199.252 356.268 198.262 354.772C197.274 353.28 208.715 340.427 208.715 340.427C203.42 340.369 203.795 336.741 203.795 336.741L216.693 337.511C216.693 337.511 218.273 339.844 219.055 340.493Z" fill="#FFC6B2"/>
<path fill-rule="evenodd" clip-rule="evenodd" d="M342.279 154.045C344.487 154.435 342.774 153.699 345.637 154.537C350.341 150.236 349.717 143.479 349.717 143.479C349.717 143.479 357.606 137.113 356.298 135.869C354.982 134.622 348.138 141.33 348.138 141.33C348.138 141.33 353.706 132.428 352.209 131.627C350.714 130.827 345.22 142.121 345.22 142.121C345.22 142.121 349.262 129.103 347.136 129.376C345.016 129.65 340.684 141.694 340.684 141.694C340.684 141.694 342.721 129.364 340.889 129.558C339.055 129.752 336.09 145.906 336.09 145.906C331.771 142.369 328.747 144.633 328.747 144.633L338.201 153.962C338.201 153.962 341.265 153.868 342.279 154.045Z" fill="#FFC6B2"/>
<path fill-rule="evenodd" clip-rule="evenodd" d="M288.28 208.035C292.27 207.409 304.439 215.345 301.343 231.461C301.084 232.814 299.328 235.792 298.89 237.024C298.338 238.584 302.642 244.295 302.642 244.295L291.53 247.868C291.056 244.49 291.853 239.553 288.262 238.086C286.919 237.537 285.481 237.189 284.214 236.493C280.792 234.612 278.966 230.498 277.56 227.131C276.511 224.615 275.712 221.908 275.742 219.178C275.815 212.302 281.866 209.044 288.28 208.035Z" fill="#FFC6B2"/>
<path fill-rule="evenodd" clip-rule="evenodd" d="M310.533 252.173C310.533 246.372 308.705 244.158 302.655 244.158C296.606 244.158 288.619 246.372 288.619 252.173C288.619 257.975 292.891 265.235 298.944 265.235C304.993 265.235 310.533 257.975 310.533 252.173Z" fill="#FFC6B2"/>
<path fill-rule="evenodd" clip-rule="evenodd" d="M305.756 241.346C305.756 241.346 324.568 221.828 328.33 202.707C332.095 183.588 338.489 152.564 338.489 152.564L345.638 154.537C345.638 154.537 349.026 196.937 345.638 203.429C342.253 209.924 323.062 255.018 323.438 266.56L305.756 241.346Z" fill="#FFC6B2"/>
<path fill-rule="evenodd" clip-rule="evenodd" d="M272.222 250.797C272.222 250.797 265.826 251.879 256.043 274.247C246.26 296.613 216.159 338.252 216.159 338.252L221.051 342.786C221.051 342.786 250.399 320.782 256.043 307.435C261.685 294.088 268.835 277.494 272.222 278.213C275.608 278.937 289.906 259.093 272.222 250.797Z" fill="#FFC6B2"/>
<path fill-rule="evenodd" clip-rule="evenodd" d="M322.586 269.542L331.346 245.213C331.346 245.213 329.994 233.802 312.706 229.711L302.912 243.911L322.586 269.542Z" fill="#FF7B5B"/>
<path fill-rule="evenodd" clip-rule="evenodd" d="M275.143 248.93C275.143 248.93 264.809 249.806 256.432 268.32C256.432 268.32 265.644 281.118 272.383 281.55C272.383 281.55 297.413 260.02 275.143 248.93Z" fill="#FF7B5B"/>
<path fill-rule="evenodd" clip-rule="evenodd" d="M303.537 468.488C303.537 468.488 288.619 499.143 286.875 493.467C285.134 487.789 285.709 474.155 286.644 472.209C287.582 470.262 293.681 461.663 293.681 461.663L303.537 468.488Z" fill="#FFC6B2"/>
<path fill-rule="evenodd" clip-rule="evenodd" d="M304.677 322.747L318.319 317.498C318.319 317.498 358.805 389.483 358.637 409.455C358.469 429.425 303.031 469.413 303.031 469.413L293.68 461.663C293.68 461.663 319.957 422.785 329.106 412.696C333.682 407.65 300.927 382.923 295.966 359.132C291.005 335.34 304.677 322.747 304.677 322.747Z" fill="#FBBE00"/>
<path fill-rule="evenodd" clip-rule="evenodd" d="M222.654 452.429C222.654 452.429 194.749 473.127 195.91 467.318C197.074 461.504 204.099 449.638 205.861 448.318C207.625 447 217.152 442.034 217.152 442.034L222.654 452.429Z" fill="#FFC6B2"/>
<path fill-rule="evenodd" clip-rule="evenodd" d="M267.561 348.237L307.922 324.698C307.922 324.698 309.524 406.467 299.834 424.147C290.146 441.827 221.763 453.028 221.763 453.028L217.152 442.035C217.152 442.035 259.342 416.739 272.294 411.788C285.249 406.835 267.561 348.237 267.561 348.237Z" fill="#FECC2F"/>
<path fill-rule="evenodd" clip-rule="evenodd" d="M291.598 308.596C291.598 308.596 261.88 319.185 267.561 348.238C273.242 377.289 282.71 382.736 282.71 382.736L299.754 354.593L316.865 317.738L299.754 315.553L291.598 308.596Z" fill="#FECC2F"/>
<path fill-rule="evenodd" clip-rule="evenodd" d="M305.756 241.346C305.756 241.346 327.636 253.686 327.636 281.57C327.636 281.57 324.856 313.359 320.351 320.304C320.351 320.304 313.028 322.104 303.898 320.304C294.325 318.418 285.06 311.647 285.06 311.647L277.583 272.728L271.766 250.003L274.92 248.957L291.376 247.137C291.376 247.137 289.012 271.875 307.386 259.591C311.256 257.003 302.568 244.104 302.568 244.104L305.756 241.346Z" fill="#FF7B5B"/>
<path fill-rule="evenodd" clip-rule="evenodd" d="M319.148 135.978L365.023 162.909L390.829 113.857L347.82 89.8119L319.148 135.978Z" fill="white"/>
<path fill-rule="evenodd" clip-rule="evenodd" d="M382.968 370.786L415.778 350.347L388.672 302.732L358.679 322.303L382.968 370.786Z" fill="white"/>
<path fill-rule="evenodd" clip-rule="evenodd" d="M221.422 167.89C221.508 167.813 222.521 168.738 224.123 170.625C225.718 172.515 227.894 175.389 230.078 179.267C232.27 183.129 234.44 188.029 235.989 193.716C237.592 199.362 238.667 205.708 241.131 211.82C242.411 214.84 243.961 217.651 245.807 220.136C247.669 222.606 249.734 224.772 251.859 226.662C256.203 230.341 260.754 232.872 264.81 234.334C268.861 235.816 272.331 236.481 274.744 236.72C277.154 236.988 278.517 237.028 278.518 237.187C278.525 237.287 277.167 237.495 274.691 237.447C272.218 237.428 268.617 236.953 264.376 235.585C260.133 234.236 255.338 231.739 250.753 227.98C248.504 226.048 246.319 223.81 244.35 221.239C242.397 218.653 240.748 215.696 239.409 212.53C236.842 206.141 235.828 199.739 234.334 194.169C232.908 188.579 230.926 183.769 228.922 179.899C226.93 176.018 224.953 173.076 223.552 171.071C222.142 169.069 221.316 167.984 221.422 167.89Z" fill="#22343D"/>
<path fill-rule="evenodd" clip-rule="evenodd" d="M277.784 136.383C278.121 136.331 278.449 140.875 280.976 147.597C282.238 150.945 284.114 154.797 286.81 158.659C288.157 160.592 289.708 162.497 291.463 164.396C293.205 166.302 295.104 168.238 296.898 170.41C300.496 174.794 302.971 179.532 305.301 183.714C307.615 187.937 309.458 191.954 310.395 195.547C311.373 199.129 311.43 202.213 311.119 204.258C310.796 206.313 310.288 207.354 310.204 207.326C310.043 207.283 310.306 206.184 310.398 204.193C310.478 202.205 310.226 199.308 309.133 195.922C308.077 192.522 306.177 188.69 303.806 184.557C301.399 180.426 298.902 175.783 295.465 171.605C293.74 169.515 291.869 167.586 290.115 165.632C288.352 163.687 286.749 161.662 285.397 159.636C282.683 155.579 280.871 151.536 279.737 148.041C278.576 144.547 278.082 141.599 277.848 139.567C277.616 137.531 277.678 136.392 277.784 136.383Z" fill="#22343D"/>
<path fill-rule="evenodd" clip-rule="evenodd" d="M291.848 225.553C291.831 225.422 292.578 225.302 293.284 224.468C293.446 224.276 293.61 223.995 293.607 223.832C293.603 223.656 293.481 223.351 293.271 223.175C293.053 222.979 292.811 222.883 292.491 222.916C292.161 222.941 291.759 223.105 291.234 223.184C290.083 223.338 289.185 222.684 288.594 222.154C287.988 221.597 287.525 221.032 287.179 220.525C286.492 219.504 286.278 218.767 286.383 218.712C286.505 218.647 286.92 219.257 287.695 220.113C288.083 220.538 288.571 221.026 289.148 221.496C289.717 221.953 290.413 222.368 291.108 222.258C291.476 222.21 291.905 222.037 292.428 222.002C292.96 221.949 293.552 222.195 293.877 222.563C294.222 222.939 294.416 223.382 294.375 223.907C294.272 224.444 293.989 224.694 293.755 224.929C292.743 225.82 291.816 225.674 291.848 225.553Z" fill="#FF7B5B"/>
<path fill-rule="evenodd" clip-rule="evenodd" d="M297.27 226.321L288.459 229.545C288.459 229.545 295.935 236.126 297.27 226.321Z" fill="white"/>
<path fill-rule="evenodd" clip-rule="evenodd" d="M287.58 225.772C287.932 226.445 287.411 227.418 286.415 227.944C285.42 228.471 284.329 228.354 283.977 227.681C283.625 227.009 284.146 226.036 285.141 225.509C286.136 224.981 287.228 225.099 287.58 225.772Z" fill="#FFB2A0"/>
<path fill-rule="evenodd" clip-rule="evenodd" d="M298.025 220.382C298.313 221.085 297.704 222.003 296.665 222.435C295.625 222.869 294.549 222.649 294.261 221.946C293.972 221.243 294.581 220.324 295.621 219.893C296.66 219.461 297.736 219.679 298.025 220.382Z" fill="#FFB2A0"/>
<path fill-rule="evenodd" clip-rule="evenodd" d="M288.72 238.321C288.72 238.321 291.667 238.925 295.425 237.981C295.425 237.981 293.573 239.792 290.546 240.213C290.546 240.213 289.868 238.951 288.72 238.321Z" fill="#FFA192"/>
<path fill-rule="evenodd" clip-rule="evenodd" d="M291.731 218.391C292.062 218.673 292.102 219.172 291.822 219.504C291.542 219.837 291.047 219.878 290.716 219.596C290.385 219.315 290.345 218.816 290.625 218.482C290.905 218.15 291.401 218.109 291.731 218.391Z" fill="#22343D"/>
<path fill-rule="evenodd" clip-rule="evenodd" d="M285.811 221.819C286.141 222.101 286.182 222.6 285.901 222.932C285.622 223.265 285.127 223.306 284.795 223.024C284.465 222.741 284.424 222.244 284.704 221.91C284.985 221.578 285.48 221.537 285.811 221.819Z" fill="#22343D"/>
<path fill-rule="evenodd" clip-rule="evenodd" d="M291.766 215.093C291.688 215.346 290.952 215.337 290.144 215.583C289.329 215.804 288.71 216.205 288.51 216.032C288.303 215.887 288.782 214.999 289.888 214.683C290.992 214.362 291.865 214.858 291.766 215.093Z" fill="#22343D"/>
<path fill-rule="evenodd" clip-rule="evenodd" d="M281.538 221.309C281.341 221.162 281.651 220.315 282.404 219.467C283.165 218.6 284.139 218.312 284.241 218.553C284.351 218.788 283.756 219.338 283.089 220.099C282.412 220.858 281.752 221.471 281.538 221.309Z" fill="#22343D"/>
<path fill-rule="evenodd" clip-rule="evenodd" d="M278.215 227.893C278.215 227.893 275.389 225.504 274.033 227.665C272.677 229.826 280.137 230.964 280.137 230.964L278.215 227.893Z" fill="#FFC6B2"/>
<path fill-rule="evenodd" clip-rule="evenodd" d="M210.267 445.702C210.267 445.702 206.215 447.475 205.159 448.539C204.102 449.602 194.413 466.441 195.647 468.568C196.88 470.696 206.596 463.475 206.596 463.475C206.596 463.475 198.466 465.024 210.267 445.702Z" fill="#FC3B36"/>
<path fill-rule="evenodd" clip-rule="evenodd" d="M289.323 467.97C289.323 467.97 286.445 471.1 286.001 472.537C285.557 473.972 284.762 493.414 286.838 494.72C288.912 496.027 294.583 485.299 294.583 485.299C294.583 485.299 287.803 490.643 289.323 468.015" fill="#FC3B36"/>
</svg>
