<svg width="547" height="609" viewBox="0 0 547 609" fill="none" xmlns="http://www.w3.org/2000/svg">
<path d="M544.433 395.325C537.145 435.971 516.183 472.978 484.959 500.325C474.178 509.74 462.513 518.111 450.123 525.325C406.451 551.475 352.329 567.325 295.985 580.325L286.342 582.475C277.967 584.359 269.376 585.133 260.796 584.775C171.181 581.075 110.142 449.525 91.1588 311.075C74.599 187.825 102.316 48.2253 226.414 41.9253C273.014 39.6253 327.388 62.6253 377.875 99.6253C381.511 102.275 385.146 105.025 388.73 107.825L390.952 109.575C485.211 183.975 562.204 304.625 544.433 395.325Z" fill="#FDE6D6"/>
<path d="M104.588 511.375C111.606 525.425 114.181 543.225 100.095 548.925C84.343 555.325 59.2004 545.025 51.9303 521.575C47.235 506.575 48.8506 485.675 62.0277 477.625C72.7815 470.725 96.2075 494.175 104.588 511.375Z" fill="#F5F9FD"/>
<path d="M490.008 196.275C483.697 190.825 478.648 182.725 484 177.275C489.351 171.825 503.791 171.375 512.272 181.325C517.675 187.675 521.411 198.075 517.321 204.425C513.686 209.825 497.884 202.925 490.008 196.275Z" fill="#FFAD69"/>
<path fill-rule="evenodd" clip-rule="evenodd" d="M192.133 115.575C188.801 115.225 185.418 114.975 182.036 114.825C181.768 114.901 181.481 114.801 181.32 114.576C181.159 114.351 181.159 114.05 181.32 113.825C181.481 113.599 181.768 113.499 182.036 113.575C185.062 113.575 188.173 113.905 191.214 114.228L191.217 114.228C191.523 114.261 191.829 114.293 192.133 114.325C192.304 114.337 192.462 114.42 192.568 114.553C192.674 114.687 192.718 114.858 192.689 115.025C192.647 115.31 192.421 115.534 192.133 115.575ZM142.151 119.175C141.878 119.154 141.642 118.979 141.545 118.725C141.448 118.38 141.651 118.022 141.999 117.925C145.18 117.075 148.512 116.325 152.097 115.675C152.258 115.63 152.43 115.653 152.574 115.738C152.717 115.823 152.819 115.963 152.854 116.125C152.917 116.469 152.694 116.8 152.349 116.875C149.017 117.525 145.736 118.275 142.555 119.125L142.151 119.175ZM222.022 121.175C225.253 122.025 228.484 122.925 231.715 123.925H232.17C232.504 123.925 232.775 123.657 232.775 123.325C232.775 122.994 232.504 122.725 232.17 122.725C228.888 121.675 225.606 120.775 222.426 119.925C222.244 119.864 222.045 119.884 221.88 119.98C221.715 120.076 221.601 120.239 221.567 120.425C221.523 120.75 221.712 121.061 222.022 121.175ZM123.117 125.975C122.885 125.956 122.678 125.825 122.562 125.625C122.416 125.307 122.55 124.932 122.865 124.775C125.894 123.425 129.024 122.125 132.255 120.975C132.409 120.911 132.583 120.911 132.736 120.978C132.889 121.044 133.007 121.17 133.063 121.325C133.171 121.642 133.018 121.988 132.71 122.125C129.529 123.275 126.399 124.575 123.42 125.925L123.117 125.975ZM241.358 127.075C244.488 128.175 247.669 129.375 250.799 130.575L251.254 130.625C251.588 130.625 251.86 130.357 251.86 130.025C251.86 129.694 251.588 129.425 251.254 129.425C248.123 128.225 244.943 127.025 241.762 125.925C241.443 125.841 241.108 125.986 240.954 126.275C240.853 126.606 241.03 126.957 241.358 127.075ZM105.649 135.975C105.447 135.989 105.254 135.893 105.144 135.725C105.03 135.613 104.966 135.46 104.966 135.3C104.966 135.141 105.03 134.988 105.144 134.875C107.921 132.925 110.748 131.075 113.676 129.425C113.973 129.319 114.305 129.436 114.465 129.706C114.626 129.975 114.57 130.319 114.332 130.525C111.455 132.175 108.577 133.975 105.901 135.875C105.841 135.921 105.772 135.955 105.699 135.975H105.649ZM269.076 138.525H269.379H269.429C269.638 138.518 269.829 138.405 269.934 138.225C270.002 138.08 270.008 137.913 269.951 137.763C269.894 137.612 269.779 137.491 269.631 137.425C266.602 135.975 263.522 134.625 260.392 133.275C260.245 133.208 260.076 133.202 259.925 133.258C259.773 133.314 259.65 133.429 259.584 133.575C259.438 133.893 259.572 134.269 259.887 134.425C262.967 135.725 266.097 137.125 269.076 138.525ZM90.4729 149.085C90.3505 149.121 90.2195 149.118 90.0986 149.075C89.9846 148.963 89.9204 148.81 89.9204 148.65C89.9204 148.491 89.9846 148.338 90.0986 148.225C92.4715 145.775 95.1473 143.225 97.4698 141.275C97.7237 141.034 98.1246 141.034 98.3785 141.275C98.6222 141.527 98.6222 141.924 98.3785 142.175C95.9047 144.325 93.3298 146.625 91.1084 149.025C90.9208 149.153 90.6804 149.175 90.4729 149.085ZM305.022 157.575H304.72C301.892 155.825 298.964 154.125 296.036 152.575C295.846 152.459 295.734 152.252 295.741 152.031C295.748 151.811 295.873 151.611 296.069 151.506C296.265 151.402 296.503 151.409 296.692 151.525C298.223 152.388 299.753 153.277 301.269 154.159L301.269 154.159L301.27 154.159L301.27 154.159L301.272 154.161L301.274 154.162C302.657 154.966 304.028 155.762 305.376 156.525C305.49 156.638 305.554 156.791 305.554 156.95C305.554 157.11 305.49 157.263 305.376 157.375C305.288 157.484 305.162 157.555 305.022 157.575ZM77.5274 164.675H77.8808C78.0847 164.766 78.3234 164.726 78.4866 164.575C80.1324 161.932 81.8957 159.716 83.673 157.482L83.6734 157.482L83.6738 157.481L83.6742 157.481L83.6746 157.48L83.675 157.48C83.9144 157.179 84.154 156.878 84.3936 156.575C84.524 156.461 84.5987 156.297 84.5987 156.125C84.5987 155.953 84.524 155.789 84.3936 155.675C84.2799 155.562 84.1255 155.499 83.9645 155.499C83.8034 155.499 83.649 155.562 83.5353 155.675C81.4654 158.275 79.4459 160.975 77.5274 163.825C77.4133 163.938 77.3492 164.091 77.3492 164.25C77.3492 164.41 77.4133 164.563 77.5274 164.675ZM322.037 168.425C321.925 168.479 321.795 168.479 321.683 168.425L313.302 162.825C313.01 162.646 312.919 162.265 313.1 161.975C313.282 161.685 313.666 161.596 313.959 161.775C316.82 163.575 319.647 165.425 322.441 167.325C322.654 167.569 322.654 167.931 322.441 168.175C322.357 168.32 322.205 168.414 322.037 168.425ZM67.9853 181.925C67.8236 181.861 67.6977 181.731 67.6397 181.568C67.5817 181.405 67.5972 181.226 67.6824 181.075C69.096 178.025 70.6611 175.025 72.2767 172.125C72.3398 171.858 72.5657 171.659 72.8411 171.627C73.1164 171.596 73.382 171.74 73.5045 171.986C73.6271 172.232 73.5802 172.528 73.3874 172.725C71.7718 175.575 70.2572 178.575 68.7931 181.625C68.727 181.772 68.6044 181.886 68.4526 181.943C68.3007 181.999 68.1324 181.993 67.9853 181.925ZM353.995 192.425C354.125 192.476 354.269 192.476 354.399 192.425C354.541 192.433 354.681 192.398 354.803 192.325C354.917 192.213 354.981 192.06 354.981 191.9C354.981 191.741 354.917 191.588 354.803 191.475C352.986 190.094 351.315 188.733 349.669 187.392C348.754 186.647 347.847 185.908 346.927 185.175C346.647 185.023 346.298 185.092 346.099 185.339C345.899 185.586 345.908 185.939 346.119 186.175C348.071 187.556 349.831 189.009 351.597 190.467L351.598 190.467L351.598 190.467L351.598 190.468L351.599 190.468L351.599 190.468L351.6 190.469L351.6 190.469L351.6 190.469L351.601 190.469L351.601 190.47L351.601 190.47L351.602 190.47L351.602 190.471L351.602 190.471L351.603 190.471L351.603 190.472C352.393 191.124 353.184 191.777 353.995 192.425ZM60.8665 200.775C60.555 200.64 60.3852 200.303 60.4626 199.975C61.5228 196.725 62.6336 193.525 63.8452 190.475C63.999 190.186 64.3343 190.041 64.653 190.125C64.8102 190.181 64.9372 190.298 65.0041 190.45C65.071 190.601 65.0718 190.773 65.0064 190.925C63.8452 193.925 62.7345 197.125 61.6743 200.325C61.5762 200.67 61.215 200.871 60.8665 200.775ZM369.797 205.507C369.729 205.507 369.661 205.496 369.596 205.475C367.122 203.225 364.547 201.025 361.972 198.875C361.752 198.615 361.752 198.236 361.972 197.975C362.226 197.734 362.627 197.734 362.881 197.975L370.504 204.575C370.725 204.836 370.725 205.215 370.504 205.475C370.294 205.623 370.017 205.633 369.797 205.507ZM55.3941 219.913C55.4908 220.057 55.6452 220.152 55.8179 220.175C56.0097 220.191 56.1985 220.122 56.3346 219.987C56.4706 219.852 56.5401 219.665 56.5247 219.475C57.2315 216.225 57.9888 212.925 58.8471 209.725C58.9135 209.397 58.7168 209.072 58.3927 208.975C58.2254 208.913 58.0389 208.927 57.8831 209.014C57.7274 209.101 57.6182 209.251 57.5849 209.425C57.4225 210.119 57.2601 210.807 57.0989 211.489L57.0987 211.49L57.0972 211.496L57.0963 211.5L57.0957 211.502C56.4564 214.209 55.8365 216.833 55.313 219.425C55.2679 219.592 55.2975 219.77 55.3941 219.913ZM398.676 233.575C398.532 233.639 398.366 233.639 398.222 233.575C395.95 231.125 393.577 228.575 391.255 226.325C391.011 226.074 391.011 225.677 391.255 225.425C391.517 225.207 391.901 225.207 392.163 225.425C393.166 226.461 394.177 227.534 395.186 228.604L395.187 228.605C396.516 230.014 397.839 231.418 399.131 232.725C399.374 232.977 399.374 233.374 399.131 233.625C398.977 233.652 398.82 233.635 398.676 233.575ZM51.8293 239.225C51.7987 239.567 52.042 239.874 52.3847 239.925C52.7139 239.959 53.0169 239.745 53.0915 239.425C53.4954 235.975 53.9498 232.625 54.4547 229.425C54.501 229.264 54.4708 229.091 54.3725 228.955C54.2742 228.819 54.1186 228.734 53.9498 228.725C53.7888 228.696 53.6229 228.733 53.4897 228.827C53.3566 228.922 53.2676 229.065 53.243 229.225C52.6876 232.525 52.2332 235.875 51.8293 239.225ZM412.106 248.575C411.944 248.642 411.762 248.642 411.601 248.575L404.987 240.975C404.873 240.863 404.809 240.71 404.809 240.55C404.809 240.391 404.873 240.238 404.987 240.125C405.102 239.996 405.268 239.922 405.441 239.922C405.615 239.922 405.781 239.996 405.896 240.125C407.501 241.899 409.133 243.783 410.773 245.675C411.351 246.342 411.93 247.01 412.51 247.675C412.753 247.927 412.753 248.324 412.51 248.575C412.38 248.625 412.236 248.625 412.106 248.575ZM50.3218 259.682C50.437 259.806 50.5993 259.876 50.7691 259.875C51.0955 259.879 51.3752 259.645 51.4254 259.325C51.4865 257.974 51.5969 256.615 51.7068 255.261C51.8695 253.257 52.0313 251.265 52.0313 249.325C52.0349 248.975 51.7759 248.675 51.4254 248.625C51.2562 248.611 51.0888 248.668 50.964 248.782C50.8392 248.896 50.7685 249.057 50.7691 249.225C50.7148 249.935 50.6558 250.647 50.5967 251.361C50.381 253.966 50.1632 256.596 50.1632 259.225C50.1491 259.393 50.2066 259.559 50.3218 259.682ZM424.93 264.225C424.769 264.298 424.585 264.298 424.425 264.225C422.355 261.525 420.285 258.875 418.215 256.325C418.101 256.213 418.037 256.06 418.037 255.9C418.037 255.741 418.101 255.588 418.215 255.475C418.33 255.346 418.495 255.272 418.669 255.272C418.843 255.272 419.009 255.346 419.124 255.475C419.738 256.252 420.363 257.019 420.992 257.792C422.43 259.559 423.894 261.358 425.334 263.375C425.577 263.627 425.577 264.024 425.334 264.275L424.93 264.225ZM50.1633 279.325C50.1633 279.657 50.4346 279.925 50.7692 279.925H50.8197C50.9895 279.926 51.1518 279.856 51.2669 279.732C51.3821 279.609 51.4397 279.443 51.4255 279.275V272.275V269.275C51.4261 269.107 51.3554 268.946 51.2306 268.832C51.1058 268.718 50.9384 268.661 50.7692 268.675C50.4346 268.675 50.1633 268.944 50.1633 269.275V272.275V279.325ZM436.491 280.525C436.312 280.59 436.115 280.59 435.936 280.525C434.118 277.825 432.2 275.075 430.231 272.275C430.117 272.163 430.052 272.01 430.052 271.85C430.052 271.691 430.117 271.538 430.231 271.425C430.485 271.184 430.886 271.184 431.139 271.425C433.159 274.175 435.077 276.975 436.895 279.675C437.108 279.919 437.108 280.281 436.895 280.525C436.766 280.581 436.62 280.581 436.491 280.525ZM446.69 297.225C446.786 297.413 446.982 297.529 447.194 297.525L447.548 297.225C447.662 297.113 447.726 296.96 447.726 296.8C447.726 296.641 447.662 296.488 447.548 296.375C446.084 293.525 444.317 290.675 442.499 287.775C442.253 287.564 441.887 287.564 441.641 287.775C441.42 288.036 441.42 288.415 441.641 288.675C442.61 290.385 443.634 292.095 444.658 293.805C445.341 294.945 446.023 296.085 446.69 297.225ZM51.5769 299.925C51.2611 299.926 50.9974 299.687 50.9711 299.375C50.9711 297.333 50.7889 295.29 50.6106 293.291C50.4921 291.963 50.3752 290.653 50.3148 289.375C50.3137 289.035 50.578 288.751 50.9206 288.725C51.0898 288.711 51.2572 288.768 51.382 288.882C51.5068 288.996 51.5775 289.157 51.5769 289.325C51.5769 291.656 51.7847 294.039 51.9953 296.454C52.0784 297.406 52.1619 298.364 52.2333 299.325C52.2474 299.493 52.1899 299.659 52.0747 299.782C51.9595 299.906 51.7972 299.976 51.6274 299.975L51.5769 299.925ZM456.181 314.825C456.313 315.033 456.539 315.164 456.787 315.175V315.125C457.102 314.969 457.236 314.593 457.09 314.275C455.626 311.325 454.061 308.325 452.445 305.325C452.27 305.032 451.895 304.923 451.587 305.075C451.374 305.319 451.374 305.681 451.587 305.925C453.202 308.925 454.768 311.925 456.181 314.825ZM53.6974 319.875C53.3709 319.879 53.0913 319.645 53.0411 319.325C52.6372 316.025 52.2333 312.675 51.8799 309.325C51.8509 309.158 51.8948 308.987 52.0006 308.853C52.1064 308.72 52.2643 308.637 52.4352 308.625C52.7805 308.595 53.0901 308.836 53.142 309.175C53.4954 312.475 53.8993 315.825 54.3032 319.175C54.3322 319.342 54.2883 319.514 54.1825 319.647C54.0767 319.781 53.9188 319.864 53.7479 319.875H53.6974ZM464.158 333.125C464.26 333.368 464.499 333.525 464.764 333.525L464.966 333.475C465.123 333.42 465.25 333.302 465.317 333.151C465.384 332.999 465.385 332.827 465.319 332.675C464.158 329.575 462.845 326.475 461.482 323.375C461.324 323.063 460.945 322.931 460.624 323.075C460.476 323.141 460.361 323.262 460.304 323.413C460.247 323.563 460.253 323.73 460.321 323.875C461.684 326.975 462.946 330.075 464.158 333.125ZM56.7266 339.675C56.4277 339.679 56.1705 339.467 56.1207 339.175C55.5149 335.875 54.9595 332.525 54.4547 329.175C54.4257 329.003 54.4683 328.826 54.5729 328.684C54.6774 328.543 54.835 328.45 55.01 328.425C55.3553 328.395 55.6649 328.636 55.7168 328.975C56.0976 331.464 56.5071 333.953 56.9237 336.485C57.0594 337.31 57.1959 338.14 57.3324 338.975C57.3949 339.319 57.172 339.65 56.8275 339.725L56.7266 339.675ZM470.923 352.025C470.973 352.317 471.23 352.529 471.529 352.525L471.681 352.475C471.844 352.44 471.986 352.34 472.072 352.198C472.158 352.056 472.181 351.885 472.135 351.725C471.226 348.575 470.217 345.325 469.156 342.125C469.111 341.961 468.997 341.823 468.843 341.746C468.689 341.67 468.509 341.662 468.349 341.725C468.182 341.77 468.043 341.883 467.966 342.036C467.889 342.189 467.881 342.367 467.945 342.525C469.005 345.675 470.015 348.925 470.923 352.025ZM60.8666 359.325C60.5677 359.329 60.3105 359.117 60.2607 358.825C59.5034 355.525 58.7966 352.225 58.1907 348.825C58.1456 348.659 58.1752 348.481 58.2719 348.337C58.3685 348.194 58.5229 348.098 58.6956 348.075C58.8566 348.046 59.0225 348.083 59.1557 348.177C59.2888 348.272 59.3778 348.415 59.4024 348.575C59.6738 349.898 59.9538 351.239 60.2389 352.603L60.2396 352.606L60.2409 352.613L60.2412 352.614C60.6448 354.546 61.0586 356.526 61.4724 358.575C61.518 358.735 61.4951 358.906 61.409 359.048C61.323 359.19 61.1815 359.29 61.018 359.325H60.8666ZM474.962 371.425C475.034 371.725 475.308 371.934 475.619 371.925L475.72 371.875C475.881 371.851 476.026 371.763 476.121 371.631C476.216 371.499 476.254 371.335 476.225 371.175C475.72 367.775 475.114 364.475 474.357 361.175C474.281 360.834 473.946 360.613 473.599 360.675C473.275 360.772 473.078 361.097 473.145 361.425C473.852 364.925 474.458 368.225 474.962 371.425ZM65.6124 379.275C65.329 379.284 65.0773 379.097 65.0065 378.825V378.325C64.1482 375.075 63.2899 371.825 62.4822 368.325C62.4439 367.987 62.657 367.67 62.987 367.575C63.3147 367.531 63.6292 367.718 63.7443 368.025C64.5521 371.275 65.3599 374.525 66.2182 377.725V378.225C66.3152 378.57 66.112 378.928 65.7638 379.025L65.6124 379.275ZM476.729 391.325C476.729 391.657 477.001 391.925 477.335 391.925L477.386 391.875C477.728 391.849 477.993 391.566 477.992 391.225C477.968 389.674 477.855 388.1 477.742 386.526C477.614 384.751 477.487 382.974 477.487 381.225C477.474 381.053 477.392 380.892 477.259 380.78C477.127 380.667 476.954 380.611 476.78 380.625C476.609 380.637 476.451 380.72 476.345 380.853C476.239 380.987 476.196 381.158 476.225 381.325C476.477 384.675 476.729 388.025 476.729 391.325ZM70.964 398.525C70.699 398.525 70.4601 398.367 70.3582 398.125C69.3989 394.925 68.4396 391.675 67.5309 388.475C67.4853 388.316 67.5082 388.145 67.5942 388.003C67.6803 387.861 67.8218 387.76 67.9853 387.725C68.1392 387.679 68.3057 387.695 68.4478 387.77C68.5899 387.845 68.6959 387.973 68.7426 388.125C69.6513 391.375 70.6106 394.575 71.5698 397.725C71.6713 398.056 71.4939 398.407 71.1659 398.525H70.964ZM475.64 411.781C475.747 411.907 475.906 411.978 476.073 411.975L476.275 411.925C476.543 411.865 476.744 411.645 476.78 411.375C476.856 410.678 476.939 409.975 477.022 409.269L477.022 409.268L477.022 409.268C477.327 406.684 477.638 404.045 477.638 401.375C477.618 401.044 477.364 400.772 477.032 400.725C476.863 400.711 476.696 400.768 476.571 400.882C476.446 400.996 476.375 401.157 476.376 401.325C476.174 404.725 475.871 408.075 475.518 411.325C475.487 411.487 475.532 411.655 475.64 411.781ZM77.2245 417.625C76.9516 417.604 76.7155 417.429 76.6186 417.175C75.5584 414.025 74.4982 410.875 73.4884 407.675C73.4614 407.375 73.6461 407.096 73.9346 407.001C74.2231 406.906 74.5399 407.019 74.7001 407.275C75.7099 410.475 76.7701 413.625 77.8303 416.775C77.8938 416.934 77.8861 417.112 77.809 417.265C77.7319 417.417 77.5928 417.53 77.4264 417.575L77.2245 417.625ZM472.186 430.725C472.123 431.069 472.346 431.4 472.69 431.475L472.993 431.925C473.202 431.873 473.376 431.729 473.464 431.534C473.553 431.339 473.547 431.115 473.448 430.925C474.155 427.475 474.811 424.175 475.316 420.925C475.345 420.766 475.308 420.601 475.213 420.47C475.118 420.338 474.973 420.25 474.811 420.225C474.464 420.163 474.129 420.384 474.054 420.725C473.549 424.125 472.892 427.425 472.186 430.725ZM83.6867 436.475C83.4218 436.475 83.1828 436.317 83.0809 436.075C81.9197 432.975 80.7585 429.825 79.6478 426.675C79.5223 426.358 79.6805 426 80.0012 425.875C80.3218 425.751 80.6835 425.908 80.809 426.225C81.196 427.275 81.5774 428.325 81.9588 429.375C82.7218 431.475 83.4847 433.575 84.2926 435.675C84.3941 436.006 84.2166 436.357 83.8887 436.475H83.6867ZM466.985 450.125C466.884 450.456 467.061 450.807 467.389 450.925H467.591C467.856 450.925 468.095 450.767 468.197 450.525C469.257 447.375 470.267 444.125 471.176 440.925C471.26 440.594 471.056 440.258 470.721 440.175C470.387 440.092 470.048 440.294 469.964 440.625C469.055 443.775 468.096 446.975 466.985 450.125ZM91.1589 455.125C90.9164 455.142 90.6914 455 90.6035 454.775C89.2909 451.675 88.0287 448.575 86.817 445.475C86.734 445.318 86.7254 445.133 86.7936 444.969C86.8618 444.805 86.9997 444.679 87.1704 444.625C87.5042 444.525 87.8591 444.701 87.9782 445.025C89.1899 448.125 90.4521 451.225 91.7648 454.275C91.8776 454.606 91.7268 454.969 91.4113 455.125H91.1589ZM459.412 468.575C459.266 468.893 459.4 469.269 459.715 469.425C460.036 469.57 460.415 469.437 460.574 469.125C462.038 466.175 463.401 463.075 464.713 459.975C464.821 459.658 464.668 459.312 464.36 459.175C464.213 459.108 464.045 459.102 463.893 459.158C463.741 459.214 463.618 459.329 463.552 459.475C462.24 462.575 460.876 465.625 459.412 468.575ZM99.3378 473.525C99.0992 473.527 98.8818 473.39 98.7824 473.175C97.3688 470.125 96.0056 467.075 94.6425 463.975C94.5744 463.83 94.5681 463.663 94.625 463.513C94.6819 463.362 94.7973 463.241 94.9454 463.175C95.1041 463.093 95.2914 463.085 95.4569 463.152C95.6225 463.22 95.7495 463.356 95.8037 463.525C96.834 465.919 97.9266 468.313 99.0081 470.683C99.3045 471.333 99.6 471.98 99.8932 472.625C100.039 472.943 99.9054 473.319 99.5902 473.475L99.3378 473.525ZM449.567 486.875H449.87L449.971 486.925C450.236 486.983 450.51 486.886 450.678 486.675C451.448 485.34 452.253 483.982 453.065 482.612L453.066 482.611L453.066 482.611L453.067 482.61L453.067 482.609C453.957 481.107 454.856 479.591 455.727 478.075C455.919 477.878 455.966 477.582 455.844 477.336C455.721 477.09 455.456 476.946 455.18 476.977C454.905 477.009 454.679 477.208 454.616 477.475C453.101 480.375 451.385 483.225 449.567 486.025C449.453 486.138 449.389 486.291 449.389 486.45C449.389 486.61 449.453 486.763 449.567 486.875ZM108.123 491.575C107.884 491.577 107.667 491.44 107.567 491.225C106.002 488.225 104.487 485.175 103.074 482.225C103.006 482.08 102.999 481.913 103.056 481.763C103.113 481.612 103.229 481.491 103.377 481.425C103.607 481.222 103.955 481.222 104.185 481.425L108.678 490.425C108.832 490.73 108.722 491.101 108.425 491.275L108.123 491.575ZM437.602 503.025H438.006H438.107C438.206 503.053 438.311 503.053 438.41 503.025C440.581 500.425 442.651 497.725 444.62 495.075C444.734 494.963 444.798 494.81 444.798 494.65C444.798 494.491 444.734 494.338 444.62 494.225C444.506 494.112 444.351 494.049 444.19 494.049C444.029 494.049 443.875 494.112 443.761 494.225C442.151 496.597 440.473 498.634 438.755 500.72L438.514 501.013L438.291 501.285C438.062 501.563 437.832 501.843 437.602 502.125C437.358 502.377 437.358 502.774 437.602 503.025ZM117.715 509.225C117.49 509.226 117.281 509.113 117.16 508.925L116.779 508.254C115.283 505.613 113.74 502.89 112.111 500.125C112.044 499.841 112.177 499.547 112.436 499.407C112.695 499.267 113.016 499.315 113.222 499.525C114.837 502.525 116.503 505.475 118.27 508.275C118.483 508.519 118.483 508.881 118.27 509.125L117.715 509.225ZM423.97 517.825C424.098 517.888 424.247 517.888 424.374 517.825C424.493 517.905 424.636 517.94 424.778 517.925C427.002 515.861 429.183 513.501 431.243 511.272L431.246 511.27C431.43 511.071 431.614 510.872 431.796 510.675C432.039 510.424 432.039 510.027 431.796 509.775C431.682 509.662 431.528 509.599 431.367 509.599C431.206 509.599 431.051 509.662 430.938 509.775C429.724 510.978 428.464 512.299 427.184 513.643L427.182 513.645L427.182 513.646L427.181 513.646L427.181 513.646L427.181 513.646L427.181 513.646L427.181 513.646L427.181 513.647C426.12 514.76 425.045 515.888 423.97 516.975C423.842 517.08 423.767 517.236 423.767 517.4C423.767 517.565 423.842 517.721 423.97 517.825ZM128.115 526.325C127.893 526.317 127.687 526.206 127.56 526.025C125.793 523.275 123.975 520.375 122.208 517.525C121.995 517.281 121.995 516.919 122.208 516.675C122.322 516.562 122.477 516.499 122.638 516.499C122.799 516.499 122.953 516.562 123.067 516.675C124.513 519.076 126.03 521.477 127.529 523.848L127.549 523.879C127.823 524.312 128.096 524.744 128.368 525.175C128.581 525.419 128.581 525.781 128.368 526.025L128.115 526.325ZM408.875 531.075C409.001 531.224 409.184 531.315 409.38 531.325L409.531 531.275C409.589 531.234 409.641 531.183 409.682 531.125L417.357 524.575C417.6 524.324 417.6 523.927 417.357 523.675C417.243 523.562 417.088 523.499 416.927 523.499C416.766 523.499 416.612 523.562 416.498 523.675C415.498 524.53 414.513 525.384 413.531 526.236L413.527 526.24C411.983 527.58 410.448 528.912 408.875 530.225C408.761 530.338 408.697 530.491 408.697 530.65C408.697 530.81 408.761 530.963 408.875 531.075ZM139.526 542.975C139.316 542.968 139.125 542.855 139.021 542.675C137.052 540.075 135.083 537.325 133.164 534.525C132.944 534.265 132.944 533.886 133.164 533.625C133.418 533.384 133.819 533.384 134.073 533.625C135.992 536.375 137.961 539.125 139.879 541.775C139.993 541.888 140.057 542.041 140.057 542.2C140.057 542.36 139.993 542.513 139.879 542.625C139.842 542.742 139.772 542.846 139.677 542.925L139.526 542.975ZM392.82 543.475C392.98 543.548 393.164 543.548 393.325 543.475L393.476 543.425C393.524 543.45 393.575 543.467 393.628 543.475C396.455 541.525 399.181 539.525 401.806 537.525C401.921 537.413 401.985 537.26 401.985 537.1C401.985 536.941 401.921 536.788 401.806 536.675C401.693 536.562 401.538 536.499 401.377 536.499C401.216 536.499 401.062 536.562 400.948 536.675C398.586 538.475 396.143 540.233 393.654 542.025L392.82 542.625C392.706 542.738 392.642 542.891 392.642 543.05C392.642 543.21 392.706 543.363 392.82 543.475ZM376.411 554.525C376.199 554.529 376.003 554.413 375.907 554.225C375.792 554.113 375.728 553.96 375.728 553.8C375.728 553.641 375.792 553.488 375.907 553.375C378.835 551.575 381.713 549.775 384.439 547.975C384.553 547.862 384.707 547.799 384.868 547.799C385.029 547.799 385.184 547.862 385.297 547.975C385.411 548.088 385.475 548.241 385.475 548.4C385.475 548.56 385.411 548.713 385.297 548.825C382.571 550.625 379.693 552.425 376.765 554.225L376.411 554.525ZM151.592 558.675C151.755 558.737 151.934 558.737 152.097 558.675L152.551 558.775C152.795 558.524 152.795 558.127 152.551 557.875C151.422 556.437 150.279 555.099 149.136 553.761L149.135 553.761C148.133 552.587 147.13 551.414 146.139 550.175C145.93 549.913 145.546 549.868 145.281 550.075C145.016 550.282 144.971 550.663 145.18 550.925C147.301 553.675 149.421 556.225 151.592 558.675ZM359.094 564.575C358.862 564.556 358.654 564.425 358.539 564.225C358.385 563.92 358.495 563.549 358.791 563.375C361.77 561.775 364.749 560.125 367.576 558.375C367.823 558.164 368.188 558.164 368.434 558.375C368.548 558.488 368.613 558.641 368.613 558.8C368.613 558.96 368.548 559.113 368.434 559.225L359.599 564.225L359.094 564.575ZM165.627 573.275C165.757 573.325 165.901 573.325 166.031 573.275V573.225C166.174 573.297 166.343 573.297 166.486 573.225C166.614 573.121 166.689 572.965 166.689 572.8C166.689 572.636 166.614 572.48 166.486 572.375C164.167 570.229 161.798 567.733 159.429 565.236L159.429 565.236L159.428 565.236L159.428 565.236L159.428 565.236L159.428 565.236L159.428 565.235L159.427 565.235L159.427 565.235L159.427 565.235L159.427 565.235L159.427 565.234L159.426 565.234L159.426 565.234L159.426 565.234L159.426 565.234L159.426 565.234L159.426 565.233L159.425 565.233L159.425 565.233L159.425 565.233L159.425 565.233L159.425 565.232L159.424 565.232L159.424 565.232L159.424 565.232L159.424 565.232L159.424 565.232L159.424 565.231L159.423 565.231L159.423 565.231L159.423 565.231L159.423 565.231L159.423 565.23L159.422 565.23L159.422 565.23L159.422 565.23L159.422 565.23L159.422 565.229L159.422 565.229L159.421 565.229L159.421 565.229L159.421 565.229L159.421 565.229L159.421 565.228L159.42 565.228L159.42 565.228L159.42 565.228L159.42 565.228L159.42 565.227L159.42 565.227L159.419 565.227L159.419 565.227L159.419 565.227L159.419 565.227L159.419 565.226L159.418 565.226L159.418 565.226L159.418 565.226L159.418 565.226L159.418 565.225L159.418 565.225C159.164 564.984 158.763 564.984 158.509 565.225C158.38 565.33 158.306 565.486 158.306 565.65C158.306 565.815 158.38 565.971 158.509 566.075C160.898 568.575 163.271 570.975 165.627 573.275ZM341.121 573.775C340.882 573.777 340.665 573.64 340.566 573.425C340.48 573.275 340.465 573.095 340.523 572.932C340.581 572.77 340.707 572.64 340.868 572.575L349.855 568.075C350.054 567.884 350.353 567.838 350.602 567.959C350.85 568.081 350.995 568.344 350.964 568.616C350.932 568.889 350.731 569.113 350.461 569.175C347.432 570.725 344.453 572.225 341.373 573.675L341.121 573.775ZM322.239 581.875C322.322 582.11 322.543 582.269 322.794 582.275L323.046 582.225L332.235 578.025C332.509 577.986 332.729 577.781 332.784 577.513C332.84 577.244 332.72 576.97 332.483 576.827C332.247 576.684 331.946 576.704 331.73 576.875C329.58 577.905 327.404 578.884 325.22 579.866L325.216 579.868L325.208 579.872C324.32 580.271 323.431 580.671 322.542 581.075C322.394 581.141 322.278 581.262 322.221 581.413C322.164 581.563 322.171 581.73 322.239 581.875ZM181.43 586.375C181.315 586.413 181.191 586.413 181.077 586.375C179.518 585.188 178.03 583.965 176.487 582.697L176.487 582.696C175.431 581.829 174.349 580.939 173.201 580.025C172.936 579.804 172.902 579.413 173.125 579.15C173.348 578.888 173.743 578.854 174.008 579.075L174.574 579.559L174.575 579.559L174.576 579.561C176.949 581.591 179.262 583.569 181.834 585.375C181.964 585.489 182.039 585.653 182.039 585.825C182.039 585.997 181.964 586.161 181.834 586.275C181.681 586.364 181.497 586.382 181.329 586.325L181.43 586.375ZM303.76 589.825C303.848 590.05 304.073 590.192 304.316 590.175L304.568 590.125C307.698 588.875 310.778 587.575 313.908 586.225C314.056 586.16 314.172 586.038 314.229 585.888C314.286 585.738 314.279 585.571 314.211 585.425C314.057 585.136 313.722 584.991 313.403 585.075C310.324 586.425 307.193 587.725 304.063 588.975C303.748 589.132 303.614 589.507 303.76 589.825ZM198.293 597.225H197.99C195.329 595.817 192.669 594.244 190.046 592.693C189.782 592.537 189.519 592.381 189.255 592.225C189.042 591.981 189.042 591.619 189.255 591.375C189.369 591.262 189.523 591.199 189.685 591.199C189.846 591.199 190 591.262 190.114 591.375C192.941 593.225 195.869 594.925 198.747 596.375C198.96 596.619 198.96 596.981 198.747 597.225C198.594 597.263 198.433 597.245 198.293 597.175V597.225ZM284.929 597.275C285.012 597.51 285.233 597.669 285.484 597.675L285.736 597.625L295.127 593.925C295.435 593.788 295.588 593.442 295.48 593.125C295.342 592.82 294.993 592.669 294.673 592.775L285.282 596.475C285.114 596.516 284.975 596.632 284.906 596.789C284.837 596.946 284.845 597.125 284.929 597.275ZM266.602 604.725C266.318 604.734 266.067 604.547 265.996 604.275C265.894 603.945 266.072 603.593 266.4 603.475C267.864 603.025 269.378 602.476 270.892 601.926L270.893 601.925L275.942 600.075C276.095 600.011 276.269 600.011 276.422 600.078C276.575 600.144 276.694 600.27 276.75 600.425C276.833 600.575 276.842 600.755 276.772 600.912C276.703 601.068 276.564 601.184 276.396 601.225L271.348 603.125C269.833 603.675 268.268 604.225 266.753 604.675L266.602 604.725ZM207.33 601.575C210.446 602.893 213.631 604.045 216.872 605.025V604.975C217.191 605.06 217.526 604.914 217.68 604.625C217.777 604.28 217.573 603.922 217.225 603.825C214.035 602.861 210.9 601.726 207.835 600.425C207.5 600.313 207.134 600.463 206.976 600.775C206.869 601.092 207.022 601.438 207.33 601.575ZM246.76 608.525C246.426 608.525 246.154 608.257 246.154 607.925C246.124 607.763 246.169 607.596 246.277 607.47C246.384 607.344 246.543 607.273 246.71 607.275C250.099 607.048 253.472 606.614 256.807 605.975C257.154 605.913 257.489 606.134 257.565 606.475C257.594 606.635 257.557 606.799 257.461 606.931C257.366 607.063 257.221 607.151 257.06 607.175C253.724 607.825 250.352 608.275 246.962 608.525H246.76ZM236.663 608.525C233.276 608.325 229.904 607.924 226.565 607.325C226.393 607.302 226.238 607.207 226.142 607.063C226.045 606.92 226.015 606.742 226.061 606.575C226.085 606.415 226.174 606.272 226.307 606.177C226.44 606.083 226.606 606.046 226.767 606.075C230.106 606.675 233.478 607.076 236.865 607.275C237.035 607.275 237.197 607.345 237.312 607.468C237.427 607.592 237.485 607.758 237.471 607.925C237.461 608.118 237.365 608.297 237.209 608.413C237.053 608.529 236.853 608.57 236.663 608.525ZM384.388 219.225C384.474 219.268 384.569 219.285 384.663 219.277C384.855 219.393 385.101 219.395 385.297 219.275C385.541 219.024 385.541 218.627 385.297 218.375C383.5 216.516 381.482 214.658 379.518 212.848C378.998 212.37 378.483 211.896 377.977 211.425C377.723 211.184 377.322 211.184 377.068 211.425C376.954 211.538 376.89 211.691 376.89 211.85C376.89 212.01 376.954 212.163 377.068 212.275C378.564 213.758 380.193 215.283 381.837 216.824L381.839 216.825L381.845 216.832L381.846 216.832L381.848 216.834C382.696 217.628 383.548 218.427 384.388 219.225ZM338.193 180.075H338.546C338.695 180.076 338.838 180.023 338.95 179.925C339.064 179.813 339.128 179.66 339.128 179.5C339.128 179.341 339.064 179.188 338.95 179.075C336.224 177.075 333.497 175.075 330.72 173.125C330.436 173.024 330.119 173.128 329.952 173.376C329.785 173.625 329.81 173.955 330.014 174.175C332.74 176.075 335.517 178.075 338.193 180.075ZM287.403 147.575H287.1C284.138 145.975 281.159 144.425 278.163 142.925C277.985 142.835 277.857 142.669 277.818 142.474C277.779 142.279 277.831 142.077 277.961 141.925C278.036 141.774 278.172 141.66 278.335 141.613C278.498 141.565 278.674 141.588 278.82 141.675C281.748 143.125 284.777 144.725 287.756 146.325C287.87 146.438 287.934 146.591 287.934 146.75C287.934 146.91 287.87 147.063 287.756 147.175C287.726 147.349 287.613 147.498 287.453 147.575H287.403ZM202.231 116.925C205.664 117.425 208.996 118.075 212.328 118.775C212.647 118.838 212.96 118.639 213.035 118.325C213.097 117.982 212.874 117.65 212.53 117.575C209.046 116.825 205.664 116.225 202.433 115.675C202.272 115.646 202.106 115.683 201.973 115.777C201.839 115.872 201.75 116.015 201.726 116.175C201.663 116.519 201.886 116.85 202.231 116.925ZM161.415 115.433C161.531 115.538 161.685 115.589 161.841 115.575H161.79C165.123 115.225 168.505 114.925 171.888 114.925C172.058 114.926 172.22 114.856 172.335 114.732C172.45 114.609 172.508 114.443 172.494 114.275C172.47 113.954 172.212 113.699 171.888 113.675C168.455 113.775 165.072 114.025 161.79 114.375C161.624 114.373 161.465 114.444 161.357 114.57C161.25 114.696 161.205 114.863 161.235 115.025C161.234 115.18 161.3 115.328 161.415 115.433Z" fill="#D8D5DB"/>
<path d="M474.861 395.775C474.861 396.375 474.861 396.875 474.861 397.425C473.599 411.375 461.482 441.125 449.618 467.425C450.022 476.925 450.325 485.425 450.375 492.425C450.375 493.725 450.375 494.925 450.375 496.125H448.911C449.264 502.325 449.719 513.075 450.072 525.425C406.401 551.575 352.278 567.425 295.935 580.425L286.292 582.575C277.917 584.459 269.326 585.233 260.745 584.875C260.229 582.783 260.042 580.624 260.19 578.475C261.383 550.286 264.351 522.198 269.076 494.375L265.945 493.925C277.406 455.625 283.162 400.375 286.14 352.425C286.494 346.775 286.797 341.275 287.049 335.825C279.728 343.225 274.68 347.825 274.68 347.825L259.18 322.575C240.045 336.275 221.971 348.375 213.136 353.975C205.815 360.775 193.345 361.775 183.55 348.975C167.697 328.425 145.332 242.175 142.706 227.525C142.323 227.382 141.965 227.179 141.646 226.925C138.011 221.925 125.288 194.675 126.5 189.375C127.712 184.075 133.669 172.625 140.586 171.075C139.778 168.625 138.869 166.075 137.557 162.525C134.628 154.625 131.145 146.625 136.395 147.525C141.646 148.425 153.662 177.525 155.732 182.525C156.035 180.175 156.338 178.275 156.338 178.275C157.953 173.575 166.435 171.075 165.173 178.275C163.709 188.275 167.243 193.275 167.092 201.525C167.092 201.975 167.092 202.475 167.092 203.175C167.112 203.475 167.112 203.776 167.092 204.075C167.118 204.291 167.118 204.509 167.092 204.725C167.092 204.725 167.092 204.975 167.092 205.075C165.862 211.22 163.683 217.14 160.629 222.625C166.132 240.425 191.376 286.975 206.068 312.625C215.054 305.225 226.262 296.425 237.875 287.625L236.865 285.975C236.865 285.975 296.743 230.525 327.742 226.325C328.196 224.175 328.499 221.825 328.802 219.375C329.105 216.925 329.307 212.775 329.408 209.375C306.638 209.125 304.518 192.525 306.79 171.425L303.205 170.525L308.506 156.925V155.925C307.924 155.254 307.586 154.409 307.547 153.525C307.547 151.875 308.001 150.475 308.91 150.425C309.04 150.375 309.184 150.375 309.314 150.425C309.314 149.225 309.718 148.025 309.869 146.825C310.273 144.175 310.778 141.825 311.283 139.375C309.933 139.112 308.544 139.112 307.193 139.375L306.79 136.925C308.459 136.631 310.169 136.631 311.838 136.925C313.514 130.222 316.221 123.813 319.866 117.925C312.596 117.425 309.162 115.075 314.211 109.275C322.037 100.275 359.094 95.7753 377.775 99.5753C384.338 100.925 388.629 103.275 388.68 106.775C388.68 107.175 388.68 107.425 388.68 107.775C390.59 106.975 392.235 105.658 393.426 103.975L395.546 105.375C394.328 107.083 392.741 108.5 390.901 109.525L390.144 109.925C410.137 122.825 381.864 191.925 381.763 191.925C381.208 203.775 380.854 215.475 380.905 223.725C398.878 225.775 410.238 230.975 417.76 239.125C437.955 255.175 468.954 321.025 468.954 321.025L456.282 324.325C465.319 353.025 472.993 381.825 475.215 391.475C475.281 392.918 475.163 394.363 474.861 395.775Z" fill="#D1CDD3"/>
<rect opacity="0.3" x="381.258" y="284.925" width="337.911" height="261.25" rx="33.6" transform="rotate(180 381.258 284.925)" fill="#4D8DFF"/>
<path opacity="0.3" fill-rule="evenodd" clip-rule="evenodd" d="M41.0755 308.575H358.741C369.479 308.575 379.775 304.341 387.354 296.807C394.933 289.273 399.171 279.06 399.131 268.425V40.1753C399.131 18.0839 381.047 0.175293 358.741 0.175293H41.0755C18.7689 0.175293 0.685791 18.0839 0.685791 40.1753V268.575C0.685791 290.667 18.7689 308.575 41.0755 308.575ZM1.79646 40.1753C1.82428 18.7028 19.3938 1.30282 41.0755 1.27527H358.741C380.422 1.30282 397.992 18.7028 398.02 40.1753V268.425C397.992 289.898 380.422 307.298 358.741 307.325H41.0755C19.3938 307.298 1.82428 289.898 1.79646 268.425V40.1753Z" fill="#4D8DFF"/>
<g opacity="0.3">
<rect x="127.812" y="101.075" width="56.4447" height="43.65" rx="5.6" transform="rotate(180 127.812 101.075)" fill="#4D8DFF"/>
<rect x="202.938" y="101.075" width="56.4447" height="43.65" rx="5.6" transform="rotate(180 202.938 101.075)" fill="#4D8DFF"/>
<rect x="278.113" y="101.075" width="56.4447" height="43.65" rx="5.6" transform="rotate(180 278.113 101.075)" fill="#4D8DFF"/>
<rect x="353.288" y="101.075" width="56.4447" height="43.65" rx="5.6" transform="rotate(180 353.288 101.075)" fill="#4D8DFF"/>
</g>
<g opacity="0.3">
<rect x="127.812" y="176.125" width="56.4447" height="43.65" rx="5.6" transform="rotate(180 127.812 176.125)" fill="#4D8DFF"/>
<rect x="202.938" y="176.125" width="56.4447" height="43.65" rx="5.6" transform="rotate(180 202.938 176.125)" fill="#4D8DFF"/>
<rect x="278.113" y="176.125" width="56.4447" height="43.65" rx="5.6" transform="rotate(180 278.113 176.125)" fill="#4D8DFF"/>
<rect x="353.288" y="176.125" width="56.4447" height="43.65" rx="5.6" transform="rotate(180 353.288 176.125)" fill="#4D8DFF"/>
</g>
<g opacity="0.3">
<rect x="127.812" y="251.125" width="56.4447" height="43.65" rx="5.6" transform="rotate(180 127.812 251.125)" fill="#4D8DFF"/>
<rect x="202.938" y="251.125" width="56.4447" height="43.65" rx="5.6" transform="rotate(180 202.938 251.125)" fill="#4D8DFF"/>
<rect x="278.113" y="251.125" width="56.4447" height="43.65" rx="5.6" transform="rotate(180 278.113 251.125)" fill="#4D8DFF"/>
<rect x="353.288" y="251.125" width="56.4447" height="43.65" rx="5.6" transform="rotate(180 353.288 251.125)" fill="#4D8DFF"/>
</g>
<rect x="285.282" y="93.9753" width="56.4447" height="43.65" rx="5.6" transform="rotate(180 285.282 93.9753)" fill="#4D8DFF"/>
<rect x="285.282" y="244.025" width="56.4447" height="43.65" rx="5.6" transform="rotate(180 285.282 244.025)" fill="#FF4E4A"/>
<rect x="134.931" y="169.025" width="56.4447" height="43.65" rx="5.6" transform="rotate(180 134.931 169.025)" fill="#FFC84D"/>
<path d="M420.689 148.775C418.972 159.675 415.64 218.775 417.003 232.275C418.366 245.775 351.37 249.875 360.306 234.825C369.242 219.775 362.881 169.825 362.881 169.825L420.689 148.775Z" fill="#FFAD69"/>
<path d="M416.044 150.475L362.881 169.725C364.872 186.199 365.345 202.817 364.295 219.375C386.206 210.425 381.359 192.225 381.359 182.425C381.359 173.525 416.094 152.175 416.044 150.475Z" fill="#D88344"/>
<path d="M345.968 152.725L337.688 170.225L347.785 174.275L345.968 152.725Z" fill="#D88344"/>
<path d="M345.816 146.925C340.767 180.575 332.487 214.125 373.685 208.575C414.883 203.025 421.244 150.825 421.143 140.925C420.487 88.3253 355.51 80.8253 345.816 146.925Z" fill="#FFAD69"/>
<path d="M426.141 110.125C428.269 109.036 430.117 107.48 431.543 105.575L429.423 104.175C428.134 105.887 426.384 107.204 424.374 107.975C424.401 107.626 424.401 107.275 424.374 106.925C424.374 93.3253 360.457 97.2253 349.906 109.375C343.645 116.575 350.309 118.475 361.114 118.125C360.312 118.737 359.713 119.573 359.397 120.525C352.278 155.075 385.903 189.075 389.689 191.975H417.154C417.154 191.975 445.932 122.825 426.141 110.125Z" fill="#232323"/>
<path d="M510.96 391.525C507.325 375.475 488.392 306.025 473.347 272.725L434.926 280.825C434.926 280.825 459.715 362.925 472.892 393.575C469.813 410.075 454.263 486.825 444.67 508.275C440.429 518.275 456.484 522.125 460.372 517.325C464.259 512.525 508.385 424.725 510.859 397.325C510.859 396.725 510.859 396.225 510.859 395.675C511.111 394.306 511.145 392.905 510.96 391.525Z" fill="#FFAD69"/>
<path d="M453.253 238.875C473.448 254.525 504.699 321.075 504.699 321.075L438.561 338.075C438.561 338.075 400.09 197.675 453.253 238.875Z" fill="#E5AA33"/>
<path d="M484.959 500.375C474.178 509.79 462.513 518.161 450.123 525.375C406.451 551.525 352.329 567.375 295.985 580.375C295.935 579.726 295.935 579.074 295.985 578.425C297.803 547.475 301.034 512.125 306.083 489.675L450.526 492.525L484.656 493.225C484.656 494.925 484.959 497.325 484.959 500.375Z" fill="#232323"/>
<path d="M404.886 222.925C444.519 224.225 457.948 237.475 464.764 260.425C472.539 286.425 486.221 443.675 486.221 496.175C486.221 496.175 367.526 504.525 301.791 493.825C322.39 424.875 324.612 300.925 325.066 263.825C325.369 236.275 354.601 221.275 404.886 222.925Z" fill="#FFC84D"/>
<path fill-rule="evenodd" clip-rule="evenodd" d="M409.783 249.925C410.493 250.876 411.619 251.433 412.813 251.425L413.418 251.225C414.773 251.056 415.93 250.177 416.448 248.925L422.203 234.725C422.587 233.584 422.403 232.33 421.706 231.345C421.01 230.359 419.883 229.759 418.669 229.725H402.16C400.725 229.725 399.414 230.528 398.773 231.798C398.132 233.069 398.27 234.589 399.13 235.725L409.783 249.925ZM400.898 232.925C401.114 232.488 401.567 232.215 402.059 232.225H418.518C418.942 232.22 419.34 232.427 419.578 232.775C419.805 233.144 419.805 233.607 419.578 233.975L413.822 248.125C413.67 248.562 413.277 248.874 412.813 248.925C412.363 248.977 411.92 248.786 411.651 248.425L400.898 234.225C400.64 233.829 400.64 233.321 400.898 232.925Z" fill="white"/>
<path d="M324.914 272.975C324.611 291.125 323.905 320.075 321.936 352.425C338.748 332.425 355.257 308.775 356.216 291.025C357.58 266.625 343.595 265.125 324.914 272.975Z" fill="#E5AA33"/>
<path d="M347.28 281.425L327.085 248.175C327.085 248.175 271.55 287.825 241.712 312.375C226.969 286.675 201.776 240.125 196.273 222.375C199.317 216.908 201.48 211.003 202.685 204.875C202.715 204.761 202.715 204.64 202.685 204.525C202.685 204.525 202.685 204.075 202.685 203.875C202.707 203.576 202.707 203.275 202.685 202.975C202.685 202.275 202.685 201.725 202.685 201.275C202.685 193.225 199.302 188.275 200.767 178.075C201.776 170.925 193.547 173.375 191.931 178.075L191.275 182.275C189.205 177.275 176.735 147.925 171.989 147.275C167.243 146.625 170.222 154.525 173.15 162.275C174.412 165.725 175.371 168.425 176.179 170.825C169.212 172.425 163.053 184.225 162.093 189.175C161.134 194.125 173.756 221.725 177.24 226.725C177.509 227.059 177.834 227.347 178.199 227.575C180.774 242.275 203.442 328.475 218.992 349.075C228.787 361.825 241.308 360.825 248.628 354.075C266.602 342.725 321.835 305.125 347.28 281.425Z" fill="#FFAD69"/>
<path d="M381.359 248.175C379.34 284.875 310.677 347.825 310.677 347.825L272.408 285.825C272.408 285.825 385.095 181.425 381.359 248.175Z" fill="#FFC84D"/>
<path d="M360.154 157.325C358.64 166.125 356.418 174.875 364.749 174.225C373.079 173.575 375.2 159.875 375.351 157.275C376.058 143.275 363.133 139.925 360.154 157.325Z" fill="#FFAD69"/>
</svg>
