<svg width="533" height="521" viewBox="0 0 533 521" fill="none" xmlns="http://www.w3.org/2000/svg">
<mask id="mask0_0_273" style="mask-type:luminance" maskUnits="userSpaceOnUse" x="0" y="54" width="533" height="467">
<path fill-rule="evenodd" clip-rule="evenodd" d="M0.000640869 54.0881H532.14V520.175H0.000640869V54.0881Z" fill="white"/>
</mask>
<g mask="url(#mask0_0_273)">
<path fill-rule="evenodd" clip-rule="evenodd" d="M499.269 308.338C497.62 310.988 495.977 313.593 494.223 316.188C478.887 339.243 459.854 361.388 438.778 381.743C437.824 382.688 436.825 383.643 435.83 384.588C432.828 387.438 429.731 390.293 426.634 393.038C421.293 397.943 415.793 402.688 410.198 407.238C407.251 409.738 404.209 412.193 401.206 414.588C366.342 442.193 329.076 466.343 292.353 484.538C280.969 490.243 269.579 495.338 258.339 499.738C199.686 522.993 145.09 528.443 107.424 505.388C95.4293 498.088 85.1884 487.888 77.0457 474.443C75.7469 472.288 74.448 470.138 73.1492 467.993C61.1149 447.838 49.6202 427.593 39.5292 407.238C37.1313 402.488 34.8884 397.793 32.6903 393.038C-3.927 314.288 -17.8695 234.588 34.0341 156.188C54.2161 125.693 87.3415 101.943 127.101 85.1381C138.446 80.2931 150.28 76.0881 162.574 72.4381C168.619 70.5381 174.709 68.8881 180.953 67.3931C188.801 65.3931 196.789 63.6431 204.882 62.1381C211.081 60.9431 217.271 59.8931 223.515 58.9881C226.113 58.6431 228.71 58.2931 231.308 57.9381C249.742 55.5931 268.425 54.2881 287.013 54.1431C289.456 54.0881 291.904 54.0881 294.307 54.0881C305.547 54.1431 316.682 54.5881 327.672 55.4931C330.619 55.6931 333.567 55.9431 336.514 56.2881C392.614 61.7431 444.068 77.8381 479.037 104.543C486.68 110.393 493.529 116.688 499.469 123.543C500.573 124.793 501.622 126.043 502.616 127.338C502.965 127.738 503.27 128.138 503.615 128.543C510.858 137.638 516.653 147.043 521.004 156.643C543.235 205.093 530.241 258.538 499.269 308.338Z" fill="#FDE6D6"/>
</g>
<path fill-rule="evenodd" clip-rule="evenodd" d="M386.196 454.779C372.718 468.919 363.121 489.139 377.618 501.119C393.809 514.494 427.204 511.389 444.469 486.154C455.504 470.034 461.344 444.549 449.119 430.254C438.654 418.014 402.731 437.429 386.196 454.779Z" fill="#E8E5EA"/>
<path fill-rule="evenodd" clip-rule="evenodd" d="M190.196 451.092C186.849 451.237 183.452 451.342 180.155 451.342C179.805 451.342 179.556 451.637 179.556 451.992C179.556 452.287 179.805 452.592 180.155 452.592C183.502 452.592 186.849 452.487 190.246 452.342C190.596 452.342 190.846 452.037 190.846 451.692C190.796 451.392 190.496 451.092 190.196 451.092ZM170.164 451.192C166.767 451.092 163.37 450.892 160.173 450.692C159.723 450.642 159.524 450.892 159.474 451.237C159.474 451.592 159.723 451.892 160.073 451.942C163.32 452.142 166.717 452.342 170.114 452.442C170.464 452.442 170.764 452.192 170.764 451.837C170.764 451.492 170.514 451.192 170.164 451.192ZM210.178 449.642C206.831 449.987 203.484 450.292 200.187 450.542C199.838 450.542 199.588 450.837 199.588 451.192C199.638 451.542 199.888 451.792 200.237 451.792H200.287C203.584 451.542 206.931 451.237 210.278 450.892C210.628 450.837 210.878 450.542 210.878 450.187C210.828 449.842 210.528 449.587 210.178 449.642ZM150.182 449.692C146.885 449.337 143.538 448.842 140.291 448.287C139.941 448.242 139.641 448.442 139.541 448.792C139.491 449.137 139.741 449.442 140.091 449.492C143.338 450.092 146.685 450.542 150.032 450.942H150.132C150.432 450.942 150.681 450.742 150.731 450.387C150.781 450.042 150.532 449.737 150.182 449.692ZM230.061 446.992C226.664 447.487 223.367 447.992 220.119 448.442C219.77 448.487 219.52 448.792 219.57 449.137C219.62 449.442 219.92 449.692 220.219 449.692H220.269C223.516 449.242 226.863 448.737 230.26 448.192C230.56 448.142 230.81 447.842 230.76 447.487C230.71 447.142 230.41 446.942 230.061 446.992ZM130.5 446.292C127.202 445.542 123.955 444.692 120.808 443.792C120.458 443.692 120.109 443.842 120.009 444.192C119.909 444.537 120.109 444.892 120.458 444.987C123.506 445.837 126.603 446.692 129.75 447.442C129.9 447.487 130.05 447.487 130.2 447.542H130.35C130.45 447.542 130.549 447.487 130.649 447.442L130.699 447.392C130.849 447.342 130.899 447.192 130.949 447.037C130.999 446.742 130.799 446.392 130.5 446.292ZM249.743 443.242C246.496 443.937 243.149 444.642 240.002 445.242H239.902C239.552 445.292 239.352 445.587 239.402 445.942C239.452 446.237 239.752 446.437 240.052 446.437H240.152C242.4 446.037 244.698 445.587 246.995 445.092C247.995 444.892 248.994 444.692 249.993 444.442C250.342 444.392 250.542 444.042 250.492 443.692C250.392 443.392 250.093 443.142 249.743 443.242ZM269.226 438.487C266.078 439.337 262.831 440.187 259.534 440.987C259.185 441.092 258.985 441.392 259.085 441.742C259.135 442.037 259.384 442.237 259.684 442.237C259.734 442.237 259.784 442.237 259.834 442.192C263.131 441.392 266.428 440.542 269.575 439.737C269.875 439.642 270.075 439.292 270.025 438.937C269.925 438.642 269.575 438.442 269.226 438.487ZM111.317 440.587C110.218 440.187 109.169 439.787 108.07 439.337C106.021 438.537 104.073 437.642 102.125 436.742C101.825 436.592 101.425 436.742 101.276 437.037C101.126 437.342 101.276 437.742 101.575 437.887C103.673 438.892 105.871 439.787 108.07 440.692C108.969 441.092 109.918 441.437 110.867 441.792H111.117C111.367 441.792 111.616 441.637 111.716 441.392C111.816 441.092 111.666 440.742 111.317 440.587ZM288.458 432.887C287.809 433.087 287.16 433.337 286.46 433.537C284.012 434.292 281.465 435.092 278.917 435.837C278.567 435.942 278.367 436.237 278.467 436.592C278.567 436.892 278.817 437.037 279.067 437.037H279.267C281.764 436.292 284.312 435.542 286.71 434.787C287.459 434.537 288.159 434.337 288.858 434.092C289.158 433.992 289.358 433.642 289.258 433.287C289.158 432.992 288.808 432.792 288.458 432.887ZM93.2328 432.142L92.8831 431.892C90.0856 430.292 87.388 428.592 84.7903 426.792C84.5405 426.592 84.1409 426.692 83.9411 426.992C83.7413 427.237 83.8412 427.642 84.0909 427.842C86.6886 429.587 89.4362 431.342 92.2337 432.992L92.6333 433.242C92.7332 433.287 92.8331 433.287 92.933 433.287C93.1828 433.287 93.3826 433.192 93.4826 432.992C93.6824 432.687 93.5325 432.287 93.2328 432.142ZM307.441 426.437C304.294 427.592 301.097 428.692 298 429.787C297.65 429.892 297.5 430.242 297.6 430.542C297.7 430.837 297.9 430.987 298.2 430.987C298.25 430.987 298.3 430.987 298.4 430.942C301.547 429.892 304.694 428.737 307.841 427.592C308.191 427.487 308.341 427.142 308.241 426.792C308.091 426.437 307.691 426.292 307.441 426.437ZM326.924 419.442C326.774 419.092 326.425 418.937 326.125 419.092C323.078 420.342 319.93 421.637 316.783 422.842C316.483 422.992 316.334 423.337 316.434 423.692C316.533 423.937 316.783 424.092 317.033 424.092C317.083 424.092 317.183 424.042 317.283 424.042C320.43 422.792 323.577 421.492 326.574 420.242C326.924 420.092 327.074 419.737 326.924 419.442ZM76.7975 420.837C75.6485 419.942 74.4995 418.992 73.4504 418.087C72.0017 416.837 70.6529 415.542 69.3041 414.292C69.0544 414.042 68.6547 414.042 68.4049 414.292C68.1552 414.537 68.1552 414.942 68.4049 415.187C70.0035 416.692 71.6521 418.192 73.4005 419.642C74.2497 420.387 75.099 421.142 75.9982 421.837C76.0981 421.942 76.2479 421.992 76.3978 421.992C76.5976 421.992 76.7475 421.892 76.8974 421.742C77.0972 421.492 77.0472 421.092 76.7975 420.837ZM345.308 411.237C345.158 410.892 344.758 410.787 344.458 410.942C341.561 412.287 338.614 413.692 335.317 415.142C335.017 415.242 334.867 415.642 335.017 415.942C335.117 416.192 335.367 416.342 335.566 416.342C335.666 416.342 335.766 416.292 335.816 416.237C339.113 414.787 342.111 413.442 345.008 412.037C345.308 411.892 345.458 411.542 345.308 411.237ZM62.4103 407.037C60.2122 404.537 58.1141 401.892 56.2158 399.242C56.016 398.937 55.6164 398.892 55.3166 399.092C55.0668 399.292 55.0169 399.692 55.2167 399.942C56.9651 402.442 58.9134 404.892 60.9116 407.237C61.1114 407.442 61.2613 407.687 61.4611 407.887C61.561 407.992 61.7609 408.087 61.9107 408.087C62.0606 408.087 62.2105 408.042 62.3603 407.942C62.5602 407.742 62.6101 407.487 62.5102 407.237C62.5102 407.142 62.4602 407.087 62.4103 407.037ZM363.242 402.192C363.092 401.892 362.692 401.792 362.392 401.942C359.545 403.487 356.498 405.042 353.5 406.542C353.201 406.692 353.101 406.992 353.201 407.237C353.151 407.287 353.201 407.342 353.201 407.392C353.301 407.592 353.55 407.742 353.75 407.742C353.85 407.742 353.95 407.687 354.05 407.642C354.3 407.487 354.599 407.392 354.849 407.237C357.647 405.892 360.344 404.442 362.992 403.042C363.292 402.887 363.392 402.487 363.242 402.192ZM380.726 392.342C380.576 392.037 380.177 391.942 379.877 392.087C379.327 392.392 378.828 392.742 378.278 393.042C375.98 394.442 373.632 395.787 371.185 397.142C370.885 397.287 370.785 397.687 370.985 397.992C371.085 398.192 371.284 398.287 371.534 398.287C371.634 398.287 371.734 398.287 371.834 398.242C374.781 396.542 377.729 394.842 380.526 393.192C380.576 393.142 380.626 393.087 380.676 393.042C380.876 392.842 380.876 392.592 380.726 392.342ZM50.8207 390.837C49.1222 387.992 47.5736 384.987 46.2248 381.992C46.0749 381.692 45.6752 381.542 45.3755 381.692C45.0758 381.837 44.9259 382.192 45.0758 382.542C46.4745 385.542 48.0231 388.592 49.7216 391.492C49.8215 391.692 50.0214 391.792 50.2711 391.792C50.3711 391.792 50.471 391.742 50.5709 391.692C50.8706 391.542 50.9705 391.142 50.8207 390.837ZM397.761 381.742C397.761 381.692 397.711 381.637 397.711 381.592C397.511 381.292 397.111 381.237 396.862 381.392C396.662 381.492 396.512 381.637 396.312 381.742C394.913 382.687 393.415 383.692 391.966 384.587C390.817 385.387 389.618 386.142 388.469 386.892C388.169 387.037 388.07 387.442 388.269 387.742C388.369 387.942 388.569 388.042 388.769 388.042C388.869 388.042 389.019 387.992 389.119 387.942C390.867 386.837 392.566 385.742 394.264 384.587C395.363 383.892 396.462 383.192 397.561 382.442C397.761 382.287 397.861 381.992 397.761 381.742ZM414.046 369.942C413.846 369.642 413.447 369.587 413.197 369.787C410.549 371.792 407.802 373.792 405.104 375.742C404.805 375.942 404.755 376.292 404.954 376.592C405.104 376.742 405.254 376.837 405.454 376.837C405.604 376.837 405.704 376.837 405.854 376.742C408.551 374.787 411.299 372.792 413.946 370.787C414.246 370.587 414.296 370.187 414.046 369.942ZM39.5307 363.192C39.4308 362.842 39.0811 362.642 38.7314 362.742C38.4317 362.842 38.2319 363.192 38.2818 363.487C39.181 366.792 40.1801 370.042 41.2791 373.142C41.3791 373.442 41.5789 373.592 41.8786 373.592C41.9286 373.592 41.9785 373.592 42.0784 373.537C42.3782 373.442 42.578 373.087 42.4281 372.742C41.3291 369.642 40.38 366.437 39.5307 363.192ZM429.682 357.237C429.433 356.992 429.033 356.992 428.783 357.192C426.335 359.292 423.788 361.437 421.09 363.642C420.84 363.842 420.79 364.242 420.99 364.492C421.14 364.642 421.29 364.737 421.49 364.737C421.64 364.737 421.739 364.692 421.889 364.587C424.587 362.442 427.185 360.242 429.582 358.142C429.882 357.887 429.882 357.542 429.682 357.237ZM35.9835 343.487C35.9835 343.192 35.6838 342.887 35.3341 342.942C34.9844 342.992 34.7347 343.287 34.7846 343.642C35.1343 347.037 35.5839 350.387 36.1334 353.642C36.1834 353.937 36.4831 354.137 36.7828 354.137H36.8827C37.2324 354.092 37.4322 353.792 37.3823 353.442C36.8328 350.187 36.3332 346.892 35.9835 343.487ZM444.369 343.592C444.12 343.337 443.72 343.337 443.47 343.592C441.172 345.892 438.724 348.242 436.277 350.542C436.027 350.742 435.977 351.142 436.227 351.392C436.326 351.542 436.526 351.592 436.676 351.592C436.826 351.592 436.976 351.542 437.126 351.437C439.574 349.137 442.021 346.792 444.369 344.442C444.619 344.192 444.619 343.792 444.369 343.592ZM457.907 328.737C457.657 328.487 457.258 328.537 457.008 328.792C454.96 331.292 452.712 333.842 450.414 336.342C450.164 336.592 450.214 336.992 450.464 337.237C450.564 337.342 450.714 337.392 450.863 337.392C451.063 337.392 451.213 337.287 451.313 337.192C453.661 334.642 455.909 332.087 458.007 329.587C458.207 329.337 458.157 328.937 457.907 328.737ZM35.2345 327.992C35.2345 326.542 35.2345 325.042 35.2845 323.537C35.2845 323.192 35.0347 322.887 34.685 322.887C34.3353 322.887 34.0356 323.142 34.0356 323.487C33.9857 324.987 33.9857 326.492 33.9857 327.992C33.9857 329.892 34.0356 331.742 34.0856 333.592C34.0856 333.892 34.3853 334.192 34.685 334.192H34.735C35.0847 334.137 35.3345 333.892 35.3345 333.537C35.2845 331.692 35.2345 329.842 35.2345 327.992ZM469.996 312.742C469.697 312.542 469.347 312.592 469.147 312.887C467.299 315.587 465.301 318.337 463.302 320.987C463.053 321.292 463.152 321.692 463.402 321.892C463.502 321.942 463.652 321.992 463.802 321.992C463.952 321.992 464.152 321.942 464.301 321.742C466.3 319.092 468.298 316.342 470.146 313.592C470.346 313.287 470.296 312.887 469.996 312.742ZM36.3829 302.887C35.9833 302.792 35.7335 303.042 35.6835 303.392C35.2339 306.792 34.8842 310.142 34.5845 313.442C34.5845 313.792 34.8343 314.092 35.184 314.092H35.2339C35.5337 314.092 35.8334 313.842 35.8334 313.537C36.1331 310.242 36.4828 306.892 36.9324 303.592C36.9824 303.242 36.7326 302.887 36.3829 302.887ZM480.237 295.442C479.938 295.342 479.588 295.442 479.388 295.742C477.939 298.592 476.291 301.542 474.542 304.442C474.342 304.737 474.442 305.142 474.742 305.342C474.842 305.387 474.942 305.387 475.042 305.387C475.292 305.387 475.491 305.292 475.591 305.092C477.39 302.142 479.038 299.192 480.537 296.292C480.687 295.987 480.537 295.587 480.237 295.442ZM39.9803 283.087C39.6306 283.042 39.3309 283.242 39.231 283.592C38.5316 286.892 37.8322 290.187 37.2328 293.442C37.1828 293.792 37.4326 294.092 37.7323 294.192H37.8822C38.1819 294.192 38.4317 293.992 38.4817 293.692C39.0811 290.442 39.7305 287.142 40.4799 283.842C40.5298 283.487 40.33 283.192 39.9803 283.087ZM488.13 276.992C487.781 276.892 487.431 277.037 487.331 277.392C486.282 280.442 485.033 283.592 483.684 286.692C483.534 287.037 483.684 287.392 484.034 287.542C484.084 287.542 484.184 287.592 484.284 287.592C484.483 287.592 484.733 287.442 484.833 287.192C486.182 284.042 487.431 280.892 488.48 277.792C488.63 277.487 488.43 277.142 488.13 276.992ZM45.1757 263.692C44.876 263.592 44.5263 263.792 44.4264 264.137C43.4273 267.342 42.4781 270.587 41.6289 273.792C41.5789 274.137 41.7787 274.492 42.0785 274.537C42.1284 274.587 42.1784 274.587 42.2783 274.587C42.5281 274.587 42.7778 274.392 42.8777 274.137C43.677 270.942 44.6262 267.687 45.6253 264.492C45.7252 264.137 45.5254 263.792 45.1757 263.692ZM493.425 257.642C493.076 257.542 492.776 257.792 492.676 258.087C491.977 261.292 491.128 264.537 490.228 267.842C490.178 268.142 490.328 268.487 490.678 268.592C490.728 268.592 490.778 268.642 490.828 268.642C491.128 268.642 491.377 268.442 491.427 268.142C492.326 264.892 493.176 261.592 493.925 258.392C493.975 258.042 493.775 257.687 493.425 257.642ZM51.7198 244.692C51.3701 244.587 51.0204 244.737 50.9205 245.042C49.7216 248.192 48.5726 251.392 47.5236 254.537C47.3737 254.842 47.5735 255.187 47.8733 255.342H48.0731C48.3728 255.342 48.5726 255.187 48.6725 254.942C49.7716 251.792 50.9205 248.592 52.0695 245.492C52.1694 245.187 52.0196 244.787 51.7198 244.692ZM497.022 237.842C496.722 237.792 496.373 238.042 496.323 238.392C495.873 241.692 495.324 244.987 494.724 248.287C494.674 248.642 494.874 248.937 495.224 249.042H495.324C495.623 249.042 495.873 248.842 495.973 248.537C496.573 245.187 497.122 241.837 497.572 238.592C497.572 238.242 497.372 237.887 497.022 237.842ZM59.3131 226.092C59.0133 225.942 58.6636 226.092 58.5138 226.437C57.165 229.492 55.8162 232.592 54.5673 235.692C54.4674 235.987 54.6173 236.392 54.917 236.492C55.0169 236.542 55.0669 236.542 55.1668 236.542C55.4165 236.542 55.6164 236.392 55.7163 236.142C56.9652 233.087 58.314 229.987 59.6627 226.942C59.8126 226.592 59.6627 226.237 59.3131 226.092ZM498.771 217.842C498.471 217.887 498.171 218.087 498.121 218.442C497.971 221.792 497.772 225.142 497.472 228.442C497.422 228.792 497.672 229.092 498.021 229.137H498.071C498.371 229.137 498.671 228.892 498.671 228.537C499.02 225.242 499.22 221.892 499.37 218.487C499.42 218.192 499.12 217.887 498.771 217.842ZM67.9553 207.942C67.6556 207.792 67.256 207.887 67.1061 208.192C65.6074 211.192 64.1088 214.242 62.71 217.237C62.5602 217.592 62.71 217.942 63.0098 218.087C63.1097 218.142 63.1596 218.142 63.2595 218.142C63.5093 218.142 63.7091 218.042 63.809 217.792C65.2578 214.787 66.7564 211.742 68.2551 208.792C68.4049 208.442 68.2551 208.087 67.9553 207.942ZM499.37 198.387C499.37 198.042 499.07 197.792 498.721 197.792C498.371 197.792 498.121 198.092 498.121 198.442C498.271 201.742 498.371 205.092 498.371 208.442C498.371 208.792 498.671 209.092 498.971 209.092C499.32 209.092 499.62 208.792 499.62 208.442C499.62 205.092 499.52 201.692 499.37 198.387ZM77.4469 190.192C77.1471 190.042 76.7475 190.142 76.5976 190.442C74.8991 193.387 73.3006 196.392 71.7519 199.292C71.6021 199.592 71.702 199.942 72.0017 200.092C72.1016 200.142 72.2015 200.192 72.3015 200.192C72.5013 200.192 72.751 200.092 72.851 199.842C74.3996 196.992 75.9981 193.992 77.6966 191.042C77.8465 190.742 77.7466 190.392 77.4469 190.192ZM497.472 178.292C497.422 177.942 497.122 177.692 496.772 177.792C496.423 177.842 496.223 178.142 496.273 178.487C496.723 181.792 497.122 185.142 497.422 188.442C497.472 188.792 497.722 188.992 498.071 188.992H498.121C498.471 188.992 498.721 188.692 498.671 188.342C498.371 184.992 497.971 181.642 497.472 178.292ZM87.6877 172.942C87.4379 172.742 87.0383 172.842 86.8385 173.142C85.09 175.987 83.3416 178.842 81.6431 181.742C81.4433 182.042 81.5432 182.392 81.8429 182.592C81.9428 182.642 82.0428 182.692 82.1427 182.692C82.3924 182.692 82.5923 182.592 82.6922 182.392C84.3907 179.492 86.1391 176.642 87.8875 173.792C88.0874 173.487 87.9874 173.142 87.6877 172.942ZM495.773 167.992H495.723C495.174 164.842 494.425 161.692 493.675 158.487C493.625 158.142 493.276 157.942 492.926 158.042C492.626 158.092 492.376 158.442 492.476 158.792C493.226 161.842 493.875 164.892 494.475 167.942C494.525 168.142 494.574 168.387 494.624 168.592C494.674 168.892 494.924 169.092 495.224 169.092H495.324C495.673 168.992 495.873 168.692 495.823 168.342C495.823 168.242 495.773 168.092 495.773 167.992ZM98.9277 155.792C98.6779 155.592 98.2782 155.642 98.0784 155.942L97.8286 156.292C95.9803 159.042 94.082 161.842 92.2836 164.637C92.0838 164.942 92.1337 165.342 92.4335 165.542C92.5334 165.592 92.6832 165.642 92.7831 165.642C92.983 165.642 93.1828 165.542 93.2827 165.342C95.1311 162.542 96.9794 159.737 98.8777 156.992L99.1275 156.642C99.2774 156.392 99.2274 155.987 98.9277 155.792ZM490.378 146.492C489.629 143.992 488.83 141.542 488.03 139.142C487.93 138.792 487.531 138.642 487.231 138.742C486.881 138.892 486.731 139.242 486.831 139.542C487.781 142.292 488.68 145.092 489.529 147.942C489.629 148.342 489.779 148.692 489.879 149.092C489.979 149.392 490.228 149.542 490.478 149.542H490.678C490.978 149.442 491.177 149.092 491.078 148.742C490.878 147.992 490.628 147.237 490.378 146.492ZM110.467 139.342C110.168 139.142 109.768 139.192 109.568 139.492C107.67 142.192 105.722 144.892 103.773 147.692C103.574 147.942 103.673 148.342 103.923 148.542C104.073 148.642 104.173 148.642 104.323 148.642C104.473 148.642 104.673 148.592 104.822 148.387C106.721 145.642 108.669 142.892 110.617 140.192C110.817 139.892 110.717 139.542 110.467 139.342ZM122.357 123.142C122.057 122.942 121.707 122.992 121.458 123.242C119.459 125.887 117.461 128.592 115.463 131.342C115.263 131.592 115.363 131.992 115.613 132.192C115.713 132.292 115.863 132.342 115.962 132.342C116.162 132.342 116.362 132.237 116.512 132.042C118.46 129.342 120.458 126.642 122.457 123.992C122.656 123.742 122.607 123.342 122.357 123.142ZM484.483 129.692C484.184 128.942 483.834 128.142 483.484 127.342C483.334 126.942 483.135 126.492 482.935 126.042C482.186 124.192 481.336 122.292 480.487 120.442C480.337 120.142 479.987 119.992 479.638 120.142C479.338 120.292 479.188 120.642 479.338 120.942C479.938 122.237 480.537 123.542 481.086 124.842C481.486 125.692 481.836 126.542 482.136 127.342C482.535 128.192 482.885 128.992 483.185 129.842C483.235 129.942 483.285 130.042 483.334 130.142C483.434 130.392 483.634 130.542 483.884 130.542C483.984 130.542 484.034 130.542 484.134 130.492C484.384 130.392 484.583 130.142 484.533 129.842C484.533 129.792 484.533 129.737 484.483 129.692ZM134.696 107.237C134.396 107.042 134.046 107.092 133.797 107.342C131.748 109.842 129.8 112.442 127.802 114.992C127.752 115.092 127.652 115.142 127.602 115.242C127.352 115.542 127.402 115.942 127.702 116.142C127.802 116.242 127.952 116.292 128.052 116.292C128.202 116.292 128.351 116.242 128.451 116.142C128.501 116.092 128.501 116.092 128.551 116.042C130.649 113.342 132.698 110.742 134.796 108.142C134.995 107.892 134.946 107.492 134.696 107.237ZM476.091 111.392C475.441 110.192 474.842 109.042 474.193 107.892C473.243 106.092 472.244 104.342 471.195 102.592C471.045 102.292 470.646 102.192 470.346 102.342C470.046 102.542 469.946 102.892 470.146 103.192C471.195 104.992 472.194 106.842 473.243 108.742C473.793 109.792 474.392 110.887 474.942 111.992C475.092 112.192 475.292 112.292 475.491 112.292C475.591 112.292 475.691 112.292 475.791 112.237C476.091 112.092 476.241 111.692 476.091 111.392ZM147.534 91.7916C147.235 91.5916 146.885 91.6416 146.635 91.8916C144.487 94.3916 142.289 96.9416 140.141 99.5416C139.941 99.8416 139.941 100.242 140.241 100.442C140.341 100.542 140.491 100.592 140.64 100.592C140.79 100.592 140.99 100.492 141.09 100.342C143.238 97.7416 145.436 95.1916 147.584 92.6916C147.784 92.4416 147.784 92.0416 147.534 91.7916ZM465.9 93.9916C464.102 91.1916 462.203 88.4416 460.255 85.6916C460.055 85.3916 459.656 85.3416 459.356 85.5416C459.106 85.7416 459.006 86.1416 459.206 86.4416C461.154 89.1416 463.103 91.8916 464.901 94.6916C465.001 94.8416 465.201 94.9416 465.4 94.9416C465.5 94.9416 465.65 94.9416 465.75 94.8416C466.05 94.6916 466.1 94.2916 465.9 93.9916ZM160.922 76.8416C160.673 76.6416 160.273 76.6416 160.073 76.8916C157.775 79.2916 155.527 81.7916 153.279 84.2916C153.029 84.5916 153.079 84.9416 153.329 85.1916C153.429 85.2916 153.579 85.3416 153.729 85.3416C153.879 85.3416 154.078 85.2916 154.178 85.1416C156.426 82.6416 158.724 80.1416 160.972 77.7416C161.222 77.4916 161.172 77.0916 160.922 76.8416ZM454.16 77.6916C452.062 75.0416 449.864 72.4416 447.666 69.9416C447.466 69.6916 447.067 69.6916 446.817 69.8916C446.517 70.1416 446.517 70.5416 446.767 70.7916C448.915 73.2416 451.113 75.8416 453.161 78.4416C453.311 78.5916 453.461 78.6916 453.661 78.6916C453.811 78.6916 453.911 78.6416 454.061 78.5416C454.31 78.3416 454.36 77.9416 454.16 77.6916ZM175.01 62.5416C174.76 62.2916 174.41 62.2916 174.161 62.5416C171.813 64.7916 169.415 67.1916 167.017 69.6366C166.767 69.8916 166.767 70.2916 167.017 70.4916C167.117 70.6416 167.267 70.6916 167.467 70.6916C167.616 70.6916 167.766 70.6416 167.916 70.4916C170.264 68.0916 172.662 65.6916 175.01 63.4416C175.26 63.1916 175.26 62.7916 175.01 62.5416ZM440.872 62.5916C438.524 60.1916 436.127 57.7916 433.679 55.5416C433.429 55.2916 433.029 55.2916 432.78 55.5416C432.58 55.7916 432.58 56.1916 432.83 56.4416C435.277 58.6916 437.675 61.0916 439.973 63.4416C440.073 63.5416 440.223 63.6416 440.423 63.6416C440.573 63.6416 440.723 63.5916 440.822 63.4416C441.072 63.1916 441.072 62.7916 440.872 62.5916ZM189.896 49.0416C189.647 48.7916 189.247 48.7416 188.997 48.9916C187.199 50.5416 185.401 52.0916 183.652 53.6916C183.202 54.0416 182.803 54.4416 182.403 54.8416C182.103 55.0916 181.754 55.3416 181.454 55.6416C181.204 55.8866 181.204 56.2916 181.404 56.5416C181.554 56.6416 181.704 56.7416 181.904 56.7416C182.053 56.7416 182.203 56.6916 182.303 56.5916C182.853 56.0916 183.402 55.5916 183.952 55.0916L185.75 53.4416C187.099 52.2366 188.448 51.0916 189.797 49.9416C190.046 49.6916 190.096 49.2916 189.896 49.0416ZM426.185 48.8416C423.638 46.6416 420.99 44.5416 418.392 42.4916C418.093 42.2916 417.693 42.3416 417.493 42.5916C417.293 42.8916 417.343 43.2916 417.593 43.4866C420.241 45.4916 422.838 47.6416 425.386 49.7916C425.486 49.8916 425.636 49.9416 425.786 49.9416C425.936 49.9416 426.135 49.8416 426.235 49.6916C426.485 49.4416 426.435 49.0416 426.185 48.8416ZM205.582 36.5416C205.383 36.2916 204.983 36.1916 204.733 36.4416C202.086 38.3416 199.438 40.4416 196.74 42.5416C196.491 42.7916 196.441 43.1416 196.64 43.4416C196.79 43.5916 196.94 43.6916 197.14 43.6916C197.29 43.6916 197.39 43.6416 197.54 43.5416C200.187 41.3916 202.835 39.3416 205.483 37.4416C205.732 37.2366 205.782 36.8416 205.582 36.5416ZM410.25 36.5416C407.502 34.5916 404.705 32.7416 401.857 30.9416C401.607 30.7916 401.208 30.8416 401.008 31.1416C400.808 31.4416 400.908 31.8416 401.208 31.9916C404.005 33.7916 406.803 35.6416 409.55 37.5416C409.65 37.6416 409.8 37.6416 409.9 37.6416C410.1 37.6416 410.3 37.5916 410.4 37.3916C410.599 37.0916 410.549 36.7416 410.25 36.5416ZM222.268 25.3416C222.068 25.0916 221.668 24.9916 221.418 25.1416C218.571 26.8916 215.723 28.6916 212.926 30.5916C212.626 30.7916 212.576 31.1916 212.776 31.4916C212.876 31.6416 213.076 31.7416 213.276 31.7416C213.425 31.7416 213.525 31.6916 213.625 31.6416C216.423 29.7366 219.22 27.9416 222.068 26.2416C222.367 26.0416 222.417 25.6416 222.268 25.3416ZM393.265 25.7916C390.318 24.1416 387.32 22.4916 384.373 20.9866C384.073 20.8416 383.673 20.9866 383.524 21.2916C383.374 21.5916 383.524 21.9416 383.823 22.1366C386.771 23.6416 389.718 25.1916 392.615 26.8416C392.715 26.9416 392.815 26.9416 392.915 26.9416C393.165 26.9416 393.365 26.8416 393.465 26.6416C393.665 26.3416 393.565 25.9416 393.265 25.7916ZM239.902 15.8416C239.752 15.4916 239.402 15.3916 239.053 15.5416C236.105 16.9416 233.058 18.4866 230.111 20.0916C229.811 20.2916 229.711 20.6416 229.861 20.9416C229.961 21.1916 230.21 21.2916 230.41 21.2916C230.51 21.2916 230.61 21.2416 230.71 21.1916C233.657 19.5916 236.655 18.0916 239.602 16.6416C239.902 16.4916 240.052 16.1416 239.902 15.8416ZM375.281 16.6416C372.234 15.2916 369.136 13.9416 366.039 12.6916C365.739 12.5916 365.34 12.7416 365.24 13.0416C365.09 13.3866 365.24 13.7416 365.59 13.8916C368.687 15.0916 371.784 16.4416 374.781 17.7916C374.881 17.8416 374.931 17.8416 375.031 17.8416C375.281 17.8416 375.531 17.6916 375.631 17.4916C375.78 17.1366 375.631 16.7916 375.281 16.6416ZM257.736 7.94164C254.589 8.99164 251.392 10.1916 248.294 11.4416C247.945 11.5916 247.795 11.9416 247.945 12.2366C248.045 12.4916 248.294 12.6416 248.494 12.6416C248.594 12.6416 248.694 12.6416 248.744 12.5916C251.841 11.3416 254.988 10.1416 258.136 9.09164C258.435 8.99164 258.635 8.64164 258.485 8.34164C258.385 7.99164 258.036 7.84164 257.736 7.94164ZM356.598 9.19164C353.4 8.09164 350.203 7.09164 347.006 6.19164C346.656 6.09164 346.307 6.29164 346.207 6.64164C346.107 6.94164 346.307 7.29164 346.656 7.39164C349.804 8.29164 353.051 9.29164 356.198 10.3916H356.398C356.648 10.3916 356.897 10.2416 356.997 9.99164C357.097 9.63664 356.947 9.29164 356.598 9.19164ZM277.169 2.74164C273.871 3.38664 270.574 4.14164 267.377 5.04164C267.028 5.09164 266.828 5.44164 266.928 5.79164C266.978 6.04164 267.227 6.24164 267.527 6.24164H267.677C270.874 5.39164 274.171 4.63664 277.418 3.99164C277.718 3.94164 277.968 3.59164 277.918 3.24164C277.818 2.94164 277.518 2.69164 277.169 2.74164ZM337.215 3.74164C333.918 3.04164 330.571 2.39164 327.324 1.89164C326.974 1.84164 326.624 2.09164 326.574 2.39164C326.524 2.74164 326.774 3.09164 327.124 3.14164C330.371 3.64164 333.668 4.24164 336.965 4.94164C337.015 4.99164 337.065 4.99164 337.065 4.99164C337.365 4.99164 337.615 4.79164 337.715 4.49164C337.764 4.14164 337.565 3.84164 337.215 3.74164ZM297.201 0.291636H297.151C293.804 0.491636 290.407 0.791636 287.11 1.19164C286.76 1.24164 286.51 1.54164 286.56 1.89164C286.61 2.19164 286.86 2.44164 287.21 2.44164H287.26C290.557 2.04164 293.904 1.74164 297.251 1.54164C297.55 1.54164 297.85 1.24164 297.8 0.886636C297.8 0.591636 297.5 0.291636 297.201 0.291636ZM317.283 0.691636C313.986 0.391636 310.589 0.191636 307.242 0.141636C306.892 0.141636 306.592 0.391636 306.592 0.741636C306.592 1.09164 306.842 1.39164 307.192 1.39164C310.539 1.44164 313.886 1.64164 317.183 1.94164H317.233C317.582 1.94164 317.832 1.69164 317.882 1.34164C317.882 0.986636 317.632 0.691636 317.283 0.691636Z" fill="#D8D5DB"/>
<path fill-rule="evenodd" clip-rule="evenodd" d="M496.873 135.191L490.379 146.491L489.53 147.941L480.133 164.191L478.09 167.791L417.844 272.191L407.853 289.491L397.862 272.191L362.144 210.291L356.649 200.791L344.405 179.541L315.735 129.841H499.971L496.873 135.191ZM311.439 127.341L344.405 184.491L353.796 200.791L359.296 210.291L395.009 272.191L407.853 294.491L420.741 272.191L480.333 168.841L482.431 165.241L498.722 137.041L503.218 129.191L503.617 128.541L504.317 127.341H311.439Z" fill="white"/>
<path fill-rule="evenodd" clip-rule="evenodd" d="M342.509 382.239C342.659 382.789 342.409 383.594 341.86 384.589C340.611 386.939 337.619 390.289 334.471 393.039C333.817 393.594 333.168 394.139 332.518 394.589C330.62 396.139 328.771 397.344 327.323 397.789C322.227 399.489 300.197 396.589 294.852 393.689C294.507 393.489 294.252 393.289 294.003 393.039C291.809 393.189 288.557 393.239 284.611 393.039C282.812 392.944 280.864 392.789 278.766 392.489C273.821 391.939 268.176 390.789 262.081 388.839C259.084 387.944 255.936 386.789 252.739 385.389C249.742 384.039 246.645 382.489 243.548 380.689C242.798 380.289 242.249 379.789 241.599 379.394C242.199 383.994 242.798 388.539 243.448 393.039C243.647 394.289 243.847 395.539 243.997 396.739C244.547 400.289 245.096 403.794 245.696 407.239C248.044 420.789 250.741 433.539 253.988 444.939C254.288 446.139 254.638 447.344 254.987 448.489C253.938 448.639 252.889 448.794 251.89 448.939C252.14 450.089 252.34 451.294 252.54 452.489C255.037 465.989 256.936 482.639 258.334 499.739C199.687 522.989 145.085 528.439 107.419 505.389C95.4298 498.089 85.1889 487.889 77.0462 474.439C75.7474 472.289 74.4485 470.139 73.1497 467.989C73.3995 460.939 73.6992 454.989 73.949 450.939C72.9998 450.839 72.5003 450.839 72.5003 450.839C72.5003 442.689 72.85 431.989 73.3995 419.639C73.4494 419.139 73.4494 418.639 73.4494 418.089C73.6492 414.589 73.8491 410.989 74.0988 407.239C74.2987 402.639 74.5984 397.944 74.8981 393.039C75.3477 385.939 75.8473 378.539 76.3968 371.039C64.2077 367.789 54.0168 364.289 48.2719 360.789C40.7786 356.239 37.9311 349.889 38.131 343.639C38.031 342.389 38.031 341.039 38.3308 339.639C41.1782 330.189 50.9695 302.039 62.0596 274.089L49.7706 269.889C49.7706 269.889 85.6885 205.839 106.77 191.739C106.87 191.689 106.92 191.639 107.019 191.589C114.463 184.689 125.203 180.239 141.289 178.439C141.389 165.089 140.34 142.539 139.241 125.289C133.995 124.089 130.449 119.739 128.45 116.139C128.201 115.739 127.951 115.339 127.801 114.989C127.002 113.439 126.552 112.139 126.352 111.489C125.253 107.089 126.302 103.439 128.45 101.089C128.001 97.4391 127.351 91.4391 127.102 85.1391C126.602 73.5391 127.251 60.8391 132.497 59.6891C132.447 59.5391 132.347 59.4391 132.297 59.3391C130.948 55.1891 133.396 50.5891 133.496 50.4391L135.694 51.5891C135.694 51.6391 133.696 55.4391 134.645 58.5391C138.841 53.8891 152.978 52.3891 167.815 53.2391C168.664 53.2391 169.564 53.3391 170.413 53.3891C173.46 53.6391 176.507 53.9391 179.505 54.3891C180.504 54.4891 181.453 54.6391 182.402 54.8391C182.902 54.8891 183.451 54.9891 183.951 55.0891C187.198 55.6391 190.295 56.3391 193.143 57.1391C198.038 58.4891 202.135 60.1891 204.882 62.1391C205.781 62.7391 206.481 63.3891 207.08 64.0391C209.578 66.9391 209.978 68.9891 208.879 70.3391C208.229 71.0891 207.18 71.6391 205.781 72.0391C206.381 76.2391 206.631 79.8891 206.73 83.2391C207.03 84.0391 207.33 84.8891 207.63 85.7391C207.879 86.4891 208.129 87.2891 208.379 88.0891C208.429 88.1391 208.479 88.1391 208.529 88.1891C208.829 88.4391 209.128 88.6391 209.428 88.8891C210.527 89.8891 211.526 91.1391 212.275 92.7891L210.027 93.8391C209.978 93.7391 209.928 93.6891 209.878 93.5891C210.477 96.1391 211.027 98.7891 211.426 101.589C212.026 105.739 212.675 109.889 213.325 113.939C213.524 115.489 213.724 117.039 213.924 118.539C214.374 121.639 214.773 124.689 215.023 127.589C215.123 128.489 215.223 129.339 215.223 130.189C216.272 143.389 215.023 154.339 207.13 159.839C205.631 160.939 203.833 161.839 201.785 162.439C199.187 163.289 196.09 163.739 192.493 163.789C192.593 167.289 192.793 170.689 193.093 173.889C193.242 175.139 193.392 176.389 193.592 177.539C193.742 178.739 193.942 179.939 194.192 181.039C207.53 184.239 217.571 189.639 223.915 196.989C224.215 197.289 224.564 197.589 224.864 197.939C228.411 201.389 231.858 206.694 235.105 213.039C239.201 220.989 243.048 230.644 246.445 240.289C246.695 241.039 246.945 241.839 247.244 242.589C247.494 243.439 247.794 244.239 248.044 245.089C249.442 249.239 250.741 253.389 251.94 257.344C252.839 260.289 253.639 263.144 254.438 265.839C258.284 279.394 260.532 289.394 260.532 289.394L254.438 290.839L251.94 291.439L250.142 291.894C250.741 294.289 251.341 296.639 251.94 299.039C251.99 299.289 252.09 299.589 252.14 299.844C252.939 302.944 253.689 306.094 254.438 309.139C258.284 324.789 261.531 339.289 262.98 348.889C267.276 352.439 270.424 357.989 275.069 363.144C279.765 368.339 286.11 373.039 296.85 374.889C296.9 374.889 296.9 374.939 296.95 374.939C301.151 371.639 308.939 367.744 313.685 366.294C314.334 366.139 314.889 365.989 315.383 365.889C315.783 365.789 316.138 365.739 316.432 365.739C318.436 365.339 318.73 365.489 319.929 366.239C320.379 366.589 320.978 367.039 321.928 367.589C325.824 369.889 329.92 372.039 333.467 374.139C337.863 376.694 341.31 379.139 342.309 381.739C342.409 381.894 342.459 382.089 342.509 382.239Z" fill="#D1CDD3"/>
<path fill-rule="evenodd" clip-rule="evenodd" d="M357.349 367.567C353.788 365.432 354.827 365.162 350.8 365.902C346.454 366.707 337.103 371.197 332.372 374.937C332.322 374.932 332.287 374.907 332.237 374.897C310.816 371.222 307.049 356.057 298.387 348.877C293.586 317.397 269.398 231.727 269.398 231.727L232.951 245.292C238.261 281.387 259.632 350.037 265.177 365.527C266.086 367.402 267.26 368.892 268.574 370.102C270.392 373.947 273.659 377.657 278.939 380.712C300.79 393.357 321.471 393.532 329.384 393.027C329.639 393.282 329.929 393.502 330.259 393.687C335.619 396.617 357.609 399.487 362.745 397.802C367.965 396.087 378.655 385.257 377.886 382.257C376.637 377.357 366.276 372.917 357.349 367.567Z" fill="#FFAD69"/>
<path fill-rule="evenodd" clip-rule="evenodd" d="M236.693 208.587C226.402 231.737 230.184 305.092 230.184 305.092L295.95 289.402C295.95 289.402 263.829 147.517 236.693 208.587Z" fill="#377ADB"/>
<path fill-rule="evenodd" clip-rule="evenodd" d="M292.354 484.539C280.969 490.244 269.574 495.339 258.334 499.739C199.686 522.989 145.09 528.439 107.419 505.389C107.968 483.739 108.717 461.189 109.317 450.939C109.417 449.739 109.517 448.689 109.567 447.839L129.749 447.439H130.648L130.698 447.389L239.9 445.244H240.005L246.994 445.089L253.988 444.939L286.259 444.289C286.614 445.789 286.958 447.389 287.258 448.994C289.356 459.194 291.005 471.439 292.354 484.539Z" fill="#232323"/>
<path fill-rule="evenodd" clip-rule="evenodd" d="M188.382 177.569C149.147 178.864 135.884 192.119 129.12 215.044C121.437 241.074 107.909 398.294 107.909 450.829C107.909 450.829 225.329 459.159 290.376 448.484C269.979 379.529 267.776 255.549 267.366 218.609C267.062 190.899 238.117 175.924 188.382 177.569Z" fill="#4D8DFF"/>
<mask id="mask1_0_273" style="mask-type:luminance" maskUnits="userSpaceOnUse" x="0" y="0" width="533" height="521">
<path fill-rule="evenodd" clip-rule="evenodd" d="M0 520.175H532.14V0.140137H0V520.175Z" fill="white"/>
</mask>
<g mask="url(#mask1_0_273)">
<path fill-rule="evenodd" clip-rule="evenodd" d="M194.791 314.44H251.94V245.09H194.791V314.44ZM192.293 316.94H254.438V242.59H192.293V316.94Z" fill="white"/>
<path fill-rule="evenodd" clip-rule="evenodd" d="M222.945 113.279C226.807 110.364 246.969 113.009 241.164 71.9241C239.046 56.9341 224.984 66.9391 215.027 68.9391C205.066 70.9391 211.401 114.019 211.401 114.019L222.945 113.279Z" fill="#232323"/>
<path fill-rule="evenodd" clip-rule="evenodd" d="M172.746 103.438C174.42 114.328 177.767 173.243 176.373 186.928C174.979 200.613 241.1 204.518 232.448 189.443C223.801 174.363 229.94 124.378 229.94 124.378L172.746 103.438Z" fill="#FFAD69"/>
<path fill-rule="evenodd" clip-rule="evenodd" d="M177.322 105.103L229.93 124.383C229.93 124.383 226.378 153.493 228.521 173.993C188.407 170.888 178.111 120.178 177.437 110.413C177.322 108.573 177.267 106.798 177.322 105.103Z" fill="#D88344"/>
<path fill-rule="evenodd" clip-rule="evenodd" d="M246.821 101.583C251.696 135.218 259.974 168.758 219.24 163.233C178.502 157.713 172.177 105.438 172.292 95.5826C172.927 42.9676 237.234 35.4426 246.821 101.583Z" fill="#FFAD69"/>
<path fill-rule="evenodd" clip-rule="evenodd" d="M242.477 64.0266C232.89 52.8816 178.993 48.6766 170.071 58.5466C169.092 55.4466 171.09 51.6366 171.11 51.6016L168.912 50.4166C168.807 50.6066 166.374 55.2016 167.698 59.3316C167.743 59.4616 167.853 59.5516 167.898 59.6816C158.037 61.8566 164.331 104.737 164.331 104.737L175.876 103.997C179.738 101.087 193.141 80.5966 196.093 68.2316C217.199 71.8066 254.661 78.1916 242.477 64.0266Z" fill="#232323"/>
<path fill-rule="evenodd" clip-rule="evenodd" d="M236.744 368.753C232.618 368.983 216.607 371.768 210.987 370.463C192.099 366.048 143.422 344.193 117.221 331.978C133.341 296.953 157.07 234.963 157.07 234.963L119.759 224.003C102.444 256.108 78.5304 323.913 73.7147 339.648C73.4449 341.058 73.4249 342.383 73.5099 343.653C73.34 349.878 76.1875 356.233 83.6658 360.793C104.407 373.438 182.652 385.708 204.323 388.103C204.723 388.913 205.252 389.648 206.111 390.133C211.412 393.113 235.53 395.343 240.491 396.223C246.71 397.323 265.588 398.923 264.774 396.393C263.44 392.248 256.442 367.648 236.744 368.753Z" fill="#FFAD69"/>
<path fill-rule="evenodd" clip-rule="evenodd" d="M142.154 191.759C121.107 205.839 85.1794 269.884 85.1794 269.884L149.157 291.759C149.157 291.759 197.674 154.619 142.154 191.759Z" fill="#4D8DFF"/>
<path fill-rule="evenodd" clip-rule="evenodd" d="M212.52 99.9201C212.39 101.56 213.275 102.965 214.498 103.065C215.727 103.16 216.826 101.915 216.961 100.275C217.096 98.6401 216.207 97.2301 214.978 97.1301C213.754 97.0351 212.65 98.2801 212.52 99.9201Z" fill="#232323"/>
<path fill-rule="evenodd" clip-rule="evenodd" d="M238.469 100.609C238.339 102.249 239.223 103.654 240.447 103.754C241.676 103.849 242.775 102.604 242.91 100.964C243.039 99.3286 242.15 97.9186 240.926 97.8186C239.702 97.7236 238.598 98.9686 238.469 100.609Z" fill="#232323"/>
<path fill-rule="evenodd" clip-rule="evenodd" d="M206.137 90.7161L204.044 89.3511C208.46 82.5811 215.873 84.1511 216.193 84.2211L215.648 86.6611C215.409 86.6111 209.589 85.4211 206.137 90.7161Z" fill="#232323"/>
<path fill-rule="evenodd" clip-rule="evenodd" d="M245.418 93.8336C242.775 88.0786 236.84 88.3936 236.606 88.4186L236.431 85.9236C236.751 85.9036 244.314 85.4386 247.686 92.7886L245.418 93.8336Z" fill="#232323"/>
<path fill-rule="evenodd" clip-rule="evenodd" d="M220.857 130.887C216.636 130.887 208.518 129.687 203.478 121.297L205.616 120.007C211.725 130.177 222.686 128.322 223.15 128.237L223.605 130.692C223.565 130.702 222.511 130.887 220.857 130.887Z" fill="#232323"/>
<path fill-rule="evenodd" clip-rule="evenodd" d="M240.064 119.495L227.935 119.33L227.97 116.83L236.717 116.95L231.317 98.5151L233.71 97.8101L240.064 119.495Z" fill="#D88344"/>
<path fill-rule="evenodd" clip-rule="evenodd" d="M182.625 107.718C186.302 116.018 190.913 124.048 179.358 125.538C167.803 127.033 162.428 114.048 161.774 111.503C158.277 97.9276 175.386 91.3976 182.625 107.718Z" fill="#FFAD69"/>
<path fill-rule="evenodd" clip-rule="evenodd" d="M495.449 407.225H17.4354C13.5339 407.225 10.3418 404.03 10.3418 400.125C10.3418 396.22 13.5339 393.025 17.4354 393.025H495.449C499.35 393.025 502.542 396.22 502.542 400.125C502.542 404.03 499.35 407.225 495.449 407.225Z" fill="white"/>
<path fill-rule="evenodd" clip-rule="evenodd" d="M194.338 407.225H13.8891C9.98759 407.225 6.79544 404.03 6.79544 400.125C6.79544 396.22 9.98759 393.025 13.8891 393.025H194.338C198.24 393.025 201.432 396.22 201.432 400.125C201.432 404.03 198.24 407.225 194.338 407.225Z" fill="#D8D5DB"/>
<path fill-rule="evenodd" clip-rule="evenodd" d="M472.042 381.751H323.764C318.105 381.751 314.348 377.151 315.377 371.481L331.548 282.476C332.582 276.801 338.007 272.206 343.677 272.206H491.949C497.614 272.206 501.371 276.801 500.342 282.476L484.171 371.481C483.137 377.151 477.712 381.751 472.042 381.751Z" fill="#2B2B2B"/>
<path fill-rule="evenodd" clip-rule="evenodd" d="M475.667 381.751H327.389C321.729 381.751 317.973 377.151 319.002 371.481L335.172 282.476C336.201 276.801 341.631 272.206 347.296 272.206H495.569C501.239 272.206 504.996 276.801 503.966 282.476L487.791 371.481C486.762 377.151 481.332 381.751 475.667 381.751Z" fill="#232323"/>
<path fill-rule="evenodd" clip-rule="evenodd" d="M426.184 344.988H390.272L396.811 308.993H432.734L426.184 344.988ZM394.713 306.493L387.269 347.488H428.233L435.726 306.493H394.713Z" fill="white"/>
<path fill-rule="evenodd" clip-rule="evenodd" d="M297.759 384.598C297.759 389.233 301.551 393.028 306.187 393.028H461.293C465.929 393.028 469.721 389.233 469.721 384.598H297.759Z" fill="#232323"/>
<path fill-rule="evenodd" clip-rule="evenodd" d="M252.697 384.598C252.697 389.233 256.484 393.028 261.119 393.028H322.115C326.751 393.028 330.542 389.233 330.542 384.598H252.697Z" fill="#2B2B2B"/>
<path fill-rule="evenodd" clip-rule="evenodd" d="M423.072 108.367C417.821 108.367 413.565 112.632 413.565 117.887H432.583C432.583 112.632 428.327 108.367 423.072 108.367Z" fill="#377ADB"/>
<path fill-rule="evenodd" clip-rule="evenodd" d="M423.082 108.37V200.8C423.082 206.065 418.816 210.29 413.555 210.29H344.412V117.91C344.412 112.64 348.673 108.37 353.899 108.37H423.082Z" fill="#4D8DFF"/>
<path fill-rule="evenodd" clip-rule="evenodd" d="M404.07 200.799L334.892 200.789C334.892 206.044 339.153 210.304 344.409 210.304L413.552 210.289C408.296 210.289 404.07 206.064 404.07 200.799Z" fill="#6EA9FF"/>
<path fill-rule="evenodd" clip-rule="evenodd" d="M354.753 123.89H412.752V121.39H354.753V123.89Z" fill="white"/>
<path fill-rule="evenodd" clip-rule="evenodd" d="M354.753 133.36H412.752V130.86H354.753V133.36Z" fill="white"/>
<path fill-rule="evenodd" clip-rule="evenodd" d="M354.753 142.83H412.752V140.33H354.753V142.83Z" fill="white"/>
<path fill-rule="evenodd" clip-rule="evenodd" d="M354.753 152.3H412.752V149.8H354.753V152.3Z" fill="white"/>
<path fill-rule="evenodd" clip-rule="evenodd" d="M354.753 161.77H412.752V159.27H354.753V161.77Z" fill="white"/>
<path fill-rule="evenodd" clip-rule="evenodd" d="M354.753 171.24H412.752V168.74H354.753V171.24Z" fill="white"/>
<path fill-rule="evenodd" clip-rule="evenodd" d="M354.753 180.71H412.752V178.21H354.753V180.71Z" fill="white"/>
<path fill-rule="evenodd" clip-rule="evenodd" d="M354.753 190.18H412.752V187.68H354.753V190.18Z" fill="white"/>
<path fill-rule="evenodd" clip-rule="evenodd" d="M519.719 158.033C506.481 171.283 485.01 171.283 471.767 158.033C458.529 144.778 458.529 123.293 471.767 110.038C485.01 96.7826 506.481 96.7826 519.719 110.038C532.957 123.293 532.957 144.778 519.719 158.033Z" fill="#FFC84D"/>
<path fill-rule="evenodd" clip-rule="evenodd" d="M495.746 134.036L522.687 161.001C507.911 175.796 483.577 175.796 468.8 161.001C462.471 154.661 458.57 146.291 457.785 137.361L495.746 134.036Z" fill="#232323"/>
<path fill-rule="evenodd" clip-rule="evenodd" d="M495.746 134.036L457.9 138.451C457.401 134.176 457.63 129.846 458.58 125.641C459.524 121.441 461.172 117.431 463.46 113.781L495.746 134.036Z" fill="white"/>
<path fill-rule="evenodd" clip-rule="evenodd" d="M329.777 84.9396H301.052C297.346 84.9396 294.308 81.9046 294.308 78.1896V49.4446C294.308 45.7346 297.346 42.6946 301.052 42.6946H329.777C333.483 42.6946 336.521 45.7346 336.521 49.4446V78.1896C336.521 81.9046 333.483 84.9396 329.777 84.9396Z" fill="#232323"/>
<path fill-rule="evenodd" clip-rule="evenodd" d="M321.381 93.3426H292.656C288.95 93.3426 285.912 90.3076 285.912 86.5926V57.8476C285.912 54.1376 288.95 51.0976 292.656 51.0976H321.381C325.087 51.0976 328.125 54.1376 328.125 57.8476V86.5926C328.125 90.3076 325.087 93.3426 321.381 93.3426Z" fill="#FF4E4A"/>
</g>
</svg>
